<?xml version="1.0" encoding="utf-8" standalone="no"?>
<!DOCTYPE svg PUBLIC "-//W3C//DTD SVG 1.1//EN"
  "http://www.w3.org/Graphics/SVG/1.1/DTD/svg11.dtd">
<svg height="432pt" version="1.1" viewBox="0 0 576 432" width="576pt" xmlns="http://www.w3.org/2000/svg" xmlns:xlink="http://www.w3.org/1999/xlink">
 <metadata>
  <rdf:RDF xmlns:cc="http://creativecommons.org/ns#" xmlns:dc="http://purl.org/dc/elements/1.1/" xmlns:rdf="http://www.w3.org/1999/02/22-rdf-syntax-ns#">
   <cc:Work>
    <dc:type rdf:resource="http://purl.org/dc/dcmitype/StillImage"/>
    <dc:date>2021-08-05T01:46:08.480118</dc:date>
    <dc:format>image/svg+xml</dc:format>
    <dc:creator>
     <cc:Agent>
      <dc:title>Matplotlib v3.4.2, https://matplotlib.org/</dc:title>
     </cc:Agent>
    </dc:creator>
   </cc:Work>
  </rdf:RDF>
 </metadata>
 <defs>
  <style type="text/css">*{stroke-linecap:butt;stroke-linejoin:round;}</style>
 </defs>
 <g id="figure_1">
  <g id="patch_1">
   <path d="M 0 432 
L 576 432 
L 576 0 
L 0 0 
z
" style="fill:none;"/>
  </g>
  <g id="axes_1">
   <g id="patch_2">
    <path d="M 72 384.48 
L 518.4 384.48 
L 518.4 51.84 
L 72 51.84 
z
" style="fill:none;"/>
   </g>
   <g id="PolyCollection_1">
    <path clip-path="url(#p439b3834b2)" d="M 92.290909 369.36 
L 92.290909 368.678919 
L 94.36141 367.997838 
L 95.39666 361.187027 
L 117.13692 359.824865 
L 118.172171 359.143784 
L 119.207421 357.100541 
L 137.841929 356.419459 
L 138.87718 348.927568 
L 190.639703 329.857297 
L 251.719481 327.814054 
L 472.227829 165.035676 
L 498.109091 66.96 
L 498.109091 369.36 
L 498.109091 369.36 
L 472.227829 369.36 
L 251.719481 369.36 
L 190.639703 369.36 
L 138.87718 369.36 
L 137.841929 369.36 
L 119.207421 369.36 
L 118.172171 369.36 
L 117.13692 369.36 
L 95.39666 369.36 
L 94.36141 369.36 
L 92.290909 369.36 
z
" style="fill:#ff028d;"/>
   </g>
   <g id="matplotlib.axis_1">
    <g id="xtick_1">
     <g id="line2d_1">
      <defs>
       <path d="M 0 0 
L 0 3.5 
" id="m3f88988f25" style="stroke:#ffffff;stroke-width:0.8;"/>
      </defs>
      <g>
       <use style="fill:#ffffff;stroke:#ffffff;stroke-width:0.8;" x="92.290909" xlink:href="#m3f88988f25" y="384.48"/>
      </g>
     </g>
     <g id="text_1">
      <!-- 0 -->
      <g style="fill:#ffffff;" transform="translate(89.109659 399.078438)scale(0.1 -0.1)">
       <defs>
        <path d="M 2034 4250 
Q 1547 4250 1301 3770 
Q 1056 3291 1056 2328 
Q 1056 1369 1301 889 
Q 1547 409 2034 409 
Q 2525 409 2770 889 
Q 3016 1369 3016 2328 
Q 3016 3291 2770 3770 
Q 2525 4250 2034 4250 
z
M 2034 4750 
Q 2819 4750 3233 4129 
Q 3647 3509 3647 2328 
Q 3647 1150 3233 529 
Q 2819 -91 2034 -91 
Q 1250 -91 836 529 
Q 422 1150 422 2328 
Q 422 3509 836 4129 
Q 1250 4750 2034 4750 
z
" id="DejaVuSans-30" transform="scale(0.015625)"/>
       </defs>
       <use xlink:href="#DejaVuSans-30"/>
      </g>
     </g>
    </g>
    <g id="xtick_2">
     <g id="line2d_2">
      <g>
       <use style="fill:#ffffff;stroke:#ffffff;stroke-width:0.8;" x="175.110946" xlink:href="#m3f88988f25" y="384.48"/>
      </g>
     </g>
     <g id="text_2">
      <!-- 80 -->
      <g style="fill:#ffffff;" transform="translate(168.748446 399.078438)scale(0.1 -0.1)">
       <defs>
        <path d="M 2034 2216 
Q 1584 2216 1326 1975 
Q 1069 1734 1069 1313 
Q 1069 891 1326 650 
Q 1584 409 2034 409 
Q 2484 409 2743 651 
Q 3003 894 3003 1313 
Q 3003 1734 2745 1975 
Q 2488 2216 2034 2216 
z
M 1403 2484 
Q 997 2584 770 2862 
Q 544 3141 544 3541 
Q 544 4100 942 4425 
Q 1341 4750 2034 4750 
Q 2731 4750 3128 4425 
Q 3525 4100 3525 3541 
Q 3525 3141 3298 2862 
Q 3072 2584 2669 2484 
Q 3125 2378 3379 2068 
Q 3634 1759 3634 1313 
Q 3634 634 3220 271 
Q 2806 -91 2034 -91 
Q 1263 -91 848 271 
Q 434 634 434 1313 
Q 434 1759 690 2068 
Q 947 2378 1403 2484 
z
M 1172 3481 
Q 1172 3119 1398 2916 
Q 1625 2713 2034 2713 
Q 2441 2713 2670 2916 
Q 2900 3119 2900 3481 
Q 2900 3844 2670 4047 
Q 2441 4250 2034 4250 
Q 1625 4250 1398 4047 
Q 1172 3844 1172 3481 
z
" id="DejaVuSans-38" transform="scale(0.015625)"/>
       </defs>
       <use xlink:href="#DejaVuSans-38"/>
       <use x="63.623047" xlink:href="#DejaVuSans-30"/>
      </g>
     </g>
    </g>
    <g id="xtick_3">
     <g id="line2d_3">
      <g>
       <use style="fill:#ffffff;stroke:#ffffff;stroke-width:0.8;" x="257.930983" xlink:href="#m3f88988f25" y="384.48"/>
      </g>
     </g>
     <g id="text_3">
      <!-- 160 -->
      <g style="fill:#ffffff;" transform="translate(248.387233 399.078438)scale(0.1 -0.1)">
       <defs>
        <path d="M 794 531 
L 1825 531 
L 1825 4091 
L 703 3866 
L 703 4441 
L 1819 4666 
L 2450 4666 
L 2450 531 
L 3481 531 
L 3481 0 
L 794 0 
L 794 531 
z
" id="DejaVuSans-31" transform="scale(0.015625)"/>
        <path d="M 2113 2584 
Q 1688 2584 1439 2293 
Q 1191 2003 1191 1497 
Q 1191 994 1439 701 
Q 1688 409 2113 409 
Q 2538 409 2786 701 
Q 3034 994 3034 1497 
Q 3034 2003 2786 2293 
Q 2538 2584 2113 2584 
z
M 3366 4563 
L 3366 3988 
Q 3128 4100 2886 4159 
Q 2644 4219 2406 4219 
Q 1781 4219 1451 3797 
Q 1122 3375 1075 2522 
Q 1259 2794 1537 2939 
Q 1816 3084 2150 3084 
Q 2853 3084 3261 2657 
Q 3669 2231 3669 1497 
Q 3669 778 3244 343 
Q 2819 -91 2113 -91 
Q 1303 -91 875 529 
Q 447 1150 447 2328 
Q 447 3434 972 4092 
Q 1497 4750 2381 4750 
Q 2619 4750 2861 4703 
Q 3103 4656 3366 4563 
z
" id="DejaVuSans-36" transform="scale(0.015625)"/>
       </defs>
       <use xlink:href="#DejaVuSans-31"/>
       <use x="63.623047" xlink:href="#DejaVuSans-36"/>
       <use x="127.246094" xlink:href="#DejaVuSans-30"/>
      </g>
     </g>
    </g>
    <g id="xtick_4">
     <g id="line2d_4">
      <g>
       <use style="fill:#ffffff;stroke:#ffffff;stroke-width:0.8;" x="340.75102" xlink:href="#m3f88988f25" y="384.48"/>
      </g>
     </g>
     <g id="text_4">
      <!-- 240 -->
      <g style="fill:#ffffff;" transform="translate(331.20727 399.078438)scale(0.1 -0.1)">
       <defs>
        <path d="M 1228 531 
L 3431 531 
L 3431 0 
L 469 0 
L 469 531 
Q 828 903 1448 1529 
Q 2069 2156 2228 2338 
Q 2531 2678 2651 2914 
Q 2772 3150 2772 3378 
Q 2772 3750 2511 3984 
Q 2250 4219 1831 4219 
Q 1534 4219 1204 4116 
Q 875 4013 500 3803 
L 500 4441 
Q 881 4594 1212 4672 
Q 1544 4750 1819 4750 
Q 2544 4750 2975 4387 
Q 3406 4025 3406 3419 
Q 3406 3131 3298 2873 
Q 3191 2616 2906 2266 
Q 2828 2175 2409 1742 
Q 1991 1309 1228 531 
z
" id="DejaVuSans-32" transform="scale(0.015625)"/>
        <path d="M 2419 4116 
L 825 1625 
L 2419 1625 
L 2419 4116 
z
M 2253 4666 
L 3047 4666 
L 3047 1625 
L 3713 1625 
L 3713 1100 
L 3047 1100 
L 3047 0 
L 2419 0 
L 2419 1100 
L 313 1100 
L 313 1709 
L 2253 4666 
z
" id="DejaVuSans-34" transform="scale(0.015625)"/>
       </defs>
       <use xlink:href="#DejaVuSans-32"/>
       <use x="63.623047" xlink:href="#DejaVuSans-34"/>
       <use x="127.246094" xlink:href="#DejaVuSans-30"/>
      </g>
     </g>
    </g>
    <g id="xtick_5">
     <g id="line2d_5">
      <g>
       <use style="fill:#ffffff;stroke:#ffffff;stroke-width:0.8;" x="423.571058" xlink:href="#m3f88988f25" y="384.48"/>
      </g>
     </g>
     <g id="text_5">
      <!-- 320 -->
      <g style="fill:#ffffff;" transform="translate(414.027308 399.078438)scale(0.1 -0.1)">
       <defs>
        <path d="M 2597 2516 
Q 3050 2419 3304 2112 
Q 3559 1806 3559 1356 
Q 3559 666 3084 287 
Q 2609 -91 1734 -91 
Q 1441 -91 1130 -33 
Q 819 25 488 141 
L 488 750 
Q 750 597 1062 519 
Q 1375 441 1716 441 
Q 2309 441 2620 675 
Q 2931 909 2931 1356 
Q 2931 1769 2642 2001 
Q 2353 2234 1838 2234 
L 1294 2234 
L 1294 2753 
L 1863 2753 
Q 2328 2753 2575 2939 
Q 2822 3125 2822 3475 
Q 2822 3834 2567 4026 
Q 2313 4219 1838 4219 
Q 1578 4219 1281 4162 
Q 984 4106 628 3988 
L 628 4550 
Q 988 4650 1302 4700 
Q 1616 4750 1894 4750 
Q 2613 4750 3031 4423 
Q 3450 4097 3450 3541 
Q 3450 3153 3228 2886 
Q 3006 2619 2597 2516 
z
" id="DejaVuSans-33" transform="scale(0.015625)"/>
       </defs>
       <use xlink:href="#DejaVuSans-33"/>
       <use x="63.623047" xlink:href="#DejaVuSans-32"/>
       <use x="127.246094" xlink:href="#DejaVuSans-30"/>
      </g>
     </g>
    </g>
    <g id="xtick_6">
     <g id="line2d_6">
      <g>
       <use style="fill:#ffffff;stroke:#ffffff;stroke-width:0.8;" x="506.391095" xlink:href="#m3f88988f25" y="384.48"/>
      </g>
     </g>
     <g id="text_6">
      <!-- 400 -->
      <g style="fill:#ffffff;" transform="translate(496.847345 399.078438)scale(0.1 -0.1)">
       <use xlink:href="#DejaVuSans-34"/>
       <use x="63.623047" xlink:href="#DejaVuSans-30"/>
       <use x="127.246094" xlink:href="#DejaVuSans-30"/>
      </g>
     </g>
    </g>
    <g id="text_7">
     <!-- # of Trades -->
     <g style="fill:#ffffff;" transform="translate(260.5875 414.585625)scale(0.12 -0.12)">
      <defs>
       <path d="M 1725 1803 
L 3288 1803 
L 3641 3100 
L 2116 3100 
L 1725 1803 
z
M 1141 1803 
L 1522 3100 
L 688 3100 
Q 391 3100 391 3413 
Q 391 3650 853 3650 
L 1678 3650 
Q 1759 4013 1925 4638 
Q 2016 4925 2291 4925 
Q 2394 4925 2461 4842 
Q 2528 4759 2528 4659 
Q 2528 4534 2447 4247 
Q 2309 3750 2288 3650 
L 3803 3650 
Q 3909 4028 4094 4659 
Q 4175 4925 4400 4925 
Q 4663 4925 4663 4681 
Q 4663 4469 4403 3650 
L 5013 3650 
Q 5331 3650 5331 3416 
Q 5331 3088 4978 3088 
Q 4931 3088 4832 3094 
Q 4734 3100 4688 3100 
L 4231 3100 
L 3900 1803 
L 4538 1803 
Q 4766 1803 4859 1769 
Q 5022 1706 5022 1519 
Q 5022 1231 4750 1231 
L 3744 1231 
L 3463 216 
Q 3378 -88 3113 -88 
Q 2856 -88 2856 159 
Q 2856 344 2959 697 
Q 3103 1188 3113 1231 
L 1550 1231 
Q 1456 866 1222 156 
Q 1131 -66 916 -66 
Q 666 -66 666 181 
Q 666 303 738 534 
Q 847 884 956 1231 
L 359 1231 
Q 100 1231 100 1541 
Q 100 1663 206 1738 
Q 297 1803 425 1803 
L 1141 1803 
z
" id="ComicSansMS-23" transform="scale(0.015625)"/>
       <path id="ComicSansMS-20" transform="scale(0.015625)"/>
       <path d="M 1606 -184 
Q 1081 -184 703 203 
Q 281 634 259 1363 
Q 241 2069 616 2606 
Q 1053 3241 1834 3241 
Q 2459 3241 2781 2669 
Q 3038 2206 3028 1556 
Q 3019 863 2666 372 
Q 2266 -184 1606 -184 
z
M 1794 2606 
Q 1334 2609 1078 2169 
Q 875 1816 875 1363 
Q 875 909 1122 656 
Q 1328 447 1606 447 
Q 1931 447 2166 684 
Q 2431 947 2447 1394 
Q 2491 2603 1794 2606 
z
" id="ComicSansMS-6f" transform="scale(0.015625)"/>
       <path d="M 2534 4394 
Q 1778 4394 1688 3344 
L 1678 3150 
Q 2209 3188 2366 3188 
Q 2863 3188 2863 2875 
Q 2863 2647 2619 2603 
Q 2513 2584 2370 2589 
Q 2228 2594 1650 2547 
L 1625 1834 
Q 1625 1641 1637 1253 
Q 1650 866 1650 675 
Q 1650 81 1581 -250 
Q 1528 -500 1291 -500 
Q 1163 -500 1072 -417 
Q 981 -334 981 -209 
Q 981 -184 988 -147 
Q 1053 259 1053 738 
L 1044 1591 
L 1044 2497 
Q 653 2466 550 2466 
Q 234 2466 234 2769 
Q 234 3078 781 3094 
L 1081 3103 
Q 1091 3278 1128 3578 
Q 1209 4272 1478 4600 
Q 1803 4997 2494 4997 
Q 2941 4997 2941 4694 
Q 2941 4394 2534 4394 
z
" id="ComicSansMS-66" transform="scale(0.015625)"/>
       <path d="M 4256 3947 
Q 4025 3947 3544 3984 
Q 3075 4019 2831 4016 
L 2609 4016 
Q 2619 3584 2694 2616 
Q 2763 1713 2763 1213 
Q 2763 1103 2784 881 
Q 2806 659 2806 547 
Q 2806 334 2738 181 
Q 2650 -25 2466 -25 
Q 2341 -25 2241 62 
Q 2141 150 2141 288 
Q 2141 334 2156 428 
Q 2172 522 2172 569 
Q 2172 722 2151 1028 
Q 2131 1334 2131 1491 
Q 2131 1938 2059 2747 
Q 1984 3622 1975 4003 
L 1691 4000 
Q 1006 4000 616 4100 
Q 363 4166 363 4409 
Q 363 4538 444 4634 
Q 538 4744 684 4734 
Q 794 4728 1184 4678 
Q 1497 4641 1691 4641 
Q 1878 4641 2259 4648 
Q 2641 4656 2828 4656 
Q 3069 4656 3542 4622 
Q 4016 4588 4256 4588 
Q 4391 4588 4481 4495 
Q 4572 4403 4572 4266 
Q 4572 4131 4481 4039 
Q 4391 3947 4256 3947 
z
" id="ComicSansMS-54" transform="scale(0.015625)"/>
       <path d="M 2866 2309 
Q 2844 1919 2553 1919 
Q 2284 1919 2284 2228 
Q 2284 2288 2275 2447 
L 2266 2709 
Q 1772 2650 1475 2431 
Q 1197 2228 1013 1819 
L 1019 106 
Q 1019 -209 709 -209 
Q 434 -209 434 106 
L 434 2300 
Q 434 2403 442 2609 
Q 450 2816 450 2919 
Q 450 3234 725 3234 
Q 1031 3234 1034 2716 
Q 1634 3294 2366 3294 
Q 2619 3294 2744 3103 
Q 2869 2913 2869 2528 
Q 2869 2366 2866 2309 
z
" id="ComicSansMS-72" transform="scale(0.015625)"/>
       <path d="M 2875 -206 
Q 2816 -206 2659 -69 
Q 2519 59 2450 159 
Q 2150 -3 1922 -86 
Q 1694 -169 1541 -169 
Q 809 -169 475 244 
Q 159 631 159 1431 
Q 159 2188 679 2725 
Q 1200 3263 1922 3263 
Q 2194 3263 2531 3122 
Q 2956 2947 2956 2700 
Q 2956 2616 2894 2550 
Q 2863 2431 2845 2159 
Q 2828 1888 2825 1463 
Q 2822 1075 2878 850 
Q 2909 713 3075 300 
Q 3097 244 3147 134 
L 3166 81 
Q 3166 -44 3078 -125 
Q 2991 -206 2875 -206 
z
M 2225 1966 
Q 2225 2100 2242 2258 
Q 2259 2416 2294 2594 
Q 2178 2653 2095 2681 
Q 2013 2709 1963 2709 
Q 1478 2709 1126 2314 
Q 775 1919 775 1403 
Q 775 891 956 634 
Q 1138 378 1500 378 
Q 1800 378 2009 488 
Q 2122 547 2325 725 
Q 2225 1553 2225 1966 
z
" id="ComicSansMS-61" transform="scale(0.015625)"/>
       <path d="M 3313 2759 
Q 3275 2300 3275 1841 
Q 3275 800 3372 269 
Q 3378 225 3378 197 
Q 3378 72 3290 -9 
Q 3203 -91 3088 -91 
Q 2894 -91 2803 191 
Q 2578 25 2336 -59 
Q 2094 -144 1831 -144 
Q 1184 -144 759 288 
Q 322 728 322 1419 
Q 322 2253 764 2756 
Q 1206 3259 1913 3259 
Q 2275 3259 2472 3147 
L 2766 2931 
Q 2809 4247 2869 4703 
Q 2909 4981 3153 4981 
Q 3438 4981 3438 4678 
Q 3438 4244 3313 2759 
z
M 1925 2678 
Q 1400 2678 1137 2367 
Q 875 2056 875 1431 
Q 875 1028 1161 737 
Q 1447 447 1831 447 
Q 2094 447 2275 544 
Q 2381 600 2622 803 
Q 2669 844 2713 900 
L 2703 1441 
L 2706 1803 
L 2713 2172 
Q 2594 2425 2397 2551 
Q 2200 2678 1925 2678 
z
" id="ComicSansMS-64" transform="scale(0.015625)"/>
       <path d="M 1894 -144 
Q 1188 -144 750 209 
Q 272 600 272 1303 
Q 272 2116 666 2666 
Q 1094 3266 1809 3266 
Q 2328 3266 2656 3091 
Q 3059 2875 3059 2428 
Q 3059 2116 2706 1859 
Q 2550 1747 2044 1509 
L 850 944 
Q 1025 684 1286 553 
Q 1547 422 1894 422 
Q 2109 422 2400 503 
Q 2769 606 2875 773 
Q 2981 941 3103 941 
Q 3213 941 3298 858 
Q 3384 775 3384 666 
Q 3384 319 2825 69 
Q 2347 -144 1894 -144 
z
M 1809 2703 
Q 1428 2703 1175 2408 
Q 922 2113 797 1519 
L 1756 1975 
Q 2322 2250 2563 2453 
Q 2294 2703 1809 2703 
z
" id="ComicSansMS-65" transform="scale(0.015625)"/>
       <path d="M 2544 2406 
Q 2372 2406 2303 2522 
Q 2256 2603 2222 2859 
Q 1988 2800 1500 2641 
Q 997 2441 994 2147 
Q 1088 2113 1178 2097 
Q 1897 1969 2247 1744 
Q 2756 1416 2756 794 
Q 2756 284 2316 25 
Q 1950 -188 1391 -188 
Q 981 -188 609 -50 
Q 128 125 128 438 
Q 128 563 226 656 
Q 325 750 450 750 
Q 547 750 700 600 
Q 775 528 1038 481 
Q 1247 444 1391 444 
Q 1653 444 1853 506 
Q 2144 597 2144 794 
Q 2144 1219 1550 1369 
L 1225 1441 
Q 809 1531 634 1653 
Q 381 1828 381 2181 
Q 381 2834 997 3113 
Q 1184 3197 1596 3314 
Q 2009 3431 2188 3513 
Q 2316 3569 2466 3569 
Q 2600 3569 2686 3481 
Q 2772 3394 2772 3253 
Q 2772 3163 2811 2988 
Q 2850 2813 2850 2722 
Q 2850 2581 2764 2493 
Q 2678 2406 2544 2406 
z
" id="ComicSansMS-73" transform="scale(0.015625)"/>
      </defs>
      <use xlink:href="#ComicSansMS-23"/>
      <use x="84.277344" xlink:href="#ComicSansMS-20"/>
      <use x="114.160156" xlink:href="#ComicSansMS-6f"/>
      <use x="166.748047" xlink:href="#ComicSansMS-66"/>
      <use x="217.578125" xlink:href="#ComicSansMS-20"/>
      <use x="247.460938" xlink:href="#ComicSansMS-54"/>
      <use x="315.429688" xlink:href="#ComicSansMS-72"/>
      <use x="363.476562" xlink:href="#ComicSansMS-61"/>
      <use x="414.648438" xlink:href="#ComicSansMS-64"/>
      <use x="473.388672" xlink:href="#ComicSansMS-65"/>
      <use x="528.173828" xlink:href="#ComicSansMS-73"/>
     </g>
    </g>
   </g>
   <g id="matplotlib.axis_2">
    <g id="ytick_1">
     <g id="line2d_7">
      <defs>
       <path d="M 0 0 
L -3.5 0 
" id="m0ad11984d2" style="stroke:#ffffff;stroke-width:0.8;"/>
      </defs>
      <g>
       <use style="fill:#ffffff;stroke:#ffffff;stroke-width:0.8;" x="72" xlink:href="#m0ad11984d2" y="369.36"/>
      </g>
     </g>
     <g id="text_8">
      <!-- 0 -->
      <g style="fill:#ffffff;" transform="translate(58.6375 373.159219)scale(0.1 -0.1)">
       <use xlink:href="#DejaVuSans-30"/>
      </g>
     </g>
    </g>
    <g id="ytick_2">
     <g id="line2d_8">
      <g>
       <use style="fill:#ffffff;stroke:#ffffff;stroke-width:0.8;" x="72" xlink:href="#m0ad11984d2" y="301.251892"/>
      </g>
     </g>
     <g id="text_9">
      <!-- 100 -->
      <g style="fill:#ffffff;" transform="translate(45.9125 305.051111)scale(0.1 -0.1)">
       <use xlink:href="#DejaVuSans-31"/>
       <use x="63.623047" xlink:href="#DejaVuSans-30"/>
       <use x="127.246094" xlink:href="#DejaVuSans-30"/>
      </g>
     </g>
    </g>
    <g id="ytick_3">
     <g id="line2d_9">
      <g>
       <use style="fill:#ffffff;stroke:#ffffff;stroke-width:0.8;" x="72" xlink:href="#m0ad11984d2" y="233.143784"/>
      </g>
     </g>
     <g id="text_10">
      <!-- 200 -->
      <g style="fill:#ffffff;" transform="translate(45.9125 236.943003)scale(0.1 -0.1)">
       <use xlink:href="#DejaVuSans-32"/>
       <use x="63.623047" xlink:href="#DejaVuSans-30"/>
       <use x="127.246094" xlink:href="#DejaVuSans-30"/>
      </g>
     </g>
    </g>
    <g id="ytick_4">
     <g id="line2d_10">
      <g>
       <use style="fill:#ffffff;stroke:#ffffff;stroke-width:0.8;" x="72" xlink:href="#m0ad11984d2" y="165.035676"/>
      </g>
     </g>
     <g id="text_11">
      <!-- 300 -->
      <g style="fill:#ffffff;" transform="translate(45.9125 168.834894)scale(0.1 -0.1)">
       <use xlink:href="#DejaVuSans-33"/>
       <use x="63.623047" xlink:href="#DejaVuSans-30"/>
       <use x="127.246094" xlink:href="#DejaVuSans-30"/>
      </g>
     </g>
    </g>
    <g id="ytick_5">
     <g id="line2d_11">
      <g>
       <use style="fill:#ffffff;stroke:#ffffff;stroke-width:0.8;" x="72" xlink:href="#m0ad11984d2" y="96.927568"/>
      </g>
     </g>
     <g id="text_12">
      <!-- 400 -->
      <g style="fill:#ffffff;" transform="translate(45.9125 100.726786)scale(0.1 -0.1)">
       <use xlink:href="#DejaVuSans-34"/>
       <use x="63.623047" xlink:href="#DejaVuSans-30"/>
       <use x="127.246094" xlink:href="#DejaVuSans-30"/>
      </g>
     </g>
    </g>
    <g id="text_13">
     <!-- Trade Size -->
     <g style="fill:#ffffff;" transform="translate(39.416875 248.807812)rotate(-90)scale(0.12 -0.12)">
      <defs>
       <path d="M -19 4666 
L 3928 4666 
L 3928 4134 
L 2272 4134 
L 2272 0 
L 1638 0 
L 1638 4134 
L -19 4134 
L -19 4666 
z
" id="DejaVuSans-54" transform="scale(0.015625)"/>
       <path d="M 2631 2963 
Q 2534 3019 2420 3045 
Q 2306 3072 2169 3072 
Q 1681 3072 1420 2755 
Q 1159 2438 1159 1844 
L 1159 0 
L 581 0 
L 581 3500 
L 1159 3500 
L 1159 2956 
Q 1341 3275 1631 3429 
Q 1922 3584 2338 3584 
Q 2397 3584 2469 3576 
Q 2541 3569 2628 3553 
L 2631 2963 
z
" id="DejaVuSans-72" transform="scale(0.015625)"/>
       <path d="M 2194 1759 
Q 1497 1759 1228 1600 
Q 959 1441 959 1056 
Q 959 750 1161 570 
Q 1363 391 1709 391 
Q 2188 391 2477 730 
Q 2766 1069 2766 1631 
L 2766 1759 
L 2194 1759 
z
M 3341 1997 
L 3341 0 
L 2766 0 
L 2766 531 
Q 2569 213 2275 61 
Q 1981 -91 1556 -91 
Q 1019 -91 701 211 
Q 384 513 384 1019 
Q 384 1609 779 1909 
Q 1175 2209 1959 2209 
L 2766 2209 
L 2766 2266 
Q 2766 2663 2505 2880 
Q 2244 3097 1772 3097 
Q 1472 3097 1187 3025 
Q 903 2953 641 2809 
L 641 3341 
Q 956 3463 1253 3523 
Q 1550 3584 1831 3584 
Q 2591 3584 2966 3190 
Q 3341 2797 3341 1997 
z
" id="DejaVuSans-61" transform="scale(0.015625)"/>
       <path d="M 2906 2969 
L 2906 4863 
L 3481 4863 
L 3481 0 
L 2906 0 
L 2906 525 
Q 2725 213 2448 61 
Q 2172 -91 1784 -91 
Q 1150 -91 751 415 
Q 353 922 353 1747 
Q 353 2572 751 3078 
Q 1150 3584 1784 3584 
Q 2172 3584 2448 3432 
Q 2725 3281 2906 2969 
z
M 947 1747 
Q 947 1113 1208 752 
Q 1469 391 1925 391 
Q 2381 391 2643 752 
Q 2906 1113 2906 1747 
Q 2906 2381 2643 2742 
Q 2381 3103 1925 3103 
Q 1469 3103 1208 2742 
Q 947 2381 947 1747 
z
" id="DejaVuSans-64" transform="scale(0.015625)"/>
       <path d="M 3597 1894 
L 3597 1613 
L 953 1613 
Q 991 1019 1311 708 
Q 1631 397 2203 397 
Q 2534 397 2845 478 
Q 3156 559 3463 722 
L 3463 178 
Q 3153 47 2828 -22 
Q 2503 -91 2169 -91 
Q 1331 -91 842 396 
Q 353 884 353 1716 
Q 353 2575 817 3079 
Q 1281 3584 2069 3584 
Q 2775 3584 3186 3129 
Q 3597 2675 3597 1894 
z
M 3022 2063 
Q 3016 2534 2758 2815 
Q 2500 3097 2075 3097 
Q 1594 3097 1305 2825 
Q 1016 2553 972 2059 
L 3022 2063 
z
" id="DejaVuSans-65" transform="scale(0.015625)"/>
       <path id="DejaVuSans-20" transform="scale(0.015625)"/>
       <path d="M 3425 4513 
L 3425 3897 
Q 3066 4069 2747 4153 
Q 2428 4238 2131 4238 
Q 1616 4238 1336 4038 
Q 1056 3838 1056 3469 
Q 1056 3159 1242 3001 
Q 1428 2844 1947 2747 
L 2328 2669 
Q 3034 2534 3370 2195 
Q 3706 1856 3706 1288 
Q 3706 609 3251 259 
Q 2797 -91 1919 -91 
Q 1588 -91 1214 -16 
Q 841 59 441 206 
L 441 856 
Q 825 641 1194 531 
Q 1563 422 1919 422 
Q 2459 422 2753 634 
Q 3047 847 3047 1241 
Q 3047 1584 2836 1778 
Q 2625 1972 2144 2069 
L 1759 2144 
Q 1053 2284 737 2584 
Q 422 2884 422 3419 
Q 422 4038 858 4394 
Q 1294 4750 2059 4750 
Q 2388 4750 2728 4690 
Q 3069 4631 3425 4513 
z
" id="DejaVuSans-53" transform="scale(0.015625)"/>
       <path d="M 603 3500 
L 1178 3500 
L 1178 0 
L 603 0 
L 603 3500 
z
M 603 4863 
L 1178 4863 
L 1178 4134 
L 603 4134 
L 603 4863 
z
" id="DejaVuSans-69" transform="scale(0.015625)"/>
       <path d="M 353 3500 
L 3084 3500 
L 3084 2975 
L 922 459 
L 3084 459 
L 3084 0 
L 275 0 
L 275 525 
L 2438 3041 
L 353 3041 
L 353 3500 
z
" id="DejaVuSans-7a" transform="scale(0.015625)"/>
      </defs>
      <use xlink:href="#DejaVuSans-54"/>
      <use x="46.333984" xlink:href="#DejaVuSans-72"/>
      <use x="87.447266" xlink:href="#DejaVuSans-61"/>
      <use x="148.726562" xlink:href="#DejaVuSans-64"/>
      <use x="212.203125" xlink:href="#DejaVuSans-65"/>
      <use x="273.726562" xlink:href="#DejaVuSans-20"/>
      <use x="305.513672" xlink:href="#DejaVuSans-53"/>
      <use x="368.990234" xlink:href="#DejaVuSans-69"/>
      <use x="396.773438" xlink:href="#DejaVuSans-7a"/>
      <use x="449.263672" xlink:href="#DejaVuSans-65"/>
     </g>
    </g>
   </g>
   <g id="line2d_12">
    <path clip-path="url(#p439b3834b2)" d="M 92.290909 368.678919 
L 94.36141 367.997838 
L 95.39666 361.187027 
L 117.13692 359.824865 
L 118.172171 359.143784 
L 119.207421 357.100541 
L 137.841929 356.419459 
L 138.87718 348.927568 
L 190.639703 329.857297 
L 251.719481 327.814054 
L 472.227829 165.035676 
L 498.109091 66.96 
" style="fill:none;"/>
   </g>
   <g id="patch_3">
    <path d="M 72 384.48 
L 72 51.84 
" style="fill:none;stroke:#ffffff;stroke-linecap:square;stroke-linejoin:miter;stroke-width:0.8;"/>
   </g>
   <g id="patch_4">
    <path d="M 518.4 384.48 
L 518.4 51.84 
" style="fill:none;stroke:#000000;stroke-linecap:square;stroke-linejoin:miter;stroke-width:0.8;"/>
   </g>
   <g id="patch_5">
    <path d="M 72 384.48 
L 518.4 384.48 
" style="fill:none;stroke:#ffffff;stroke-linecap:square;stroke-linejoin:miter;stroke-width:0.8;"/>
   </g>
   <g id="patch_6">
    <path d="M 72 51.84 
L 518.4 51.84 
" style="fill:none;stroke:#000000;stroke-linecap:square;stroke-linejoin:miter;stroke-width:0.8;"/>
   </g>
   <g id="text_14">
    <!-- Biggest Trade Over Time -->
    <g style="fill:#ffffff;" transform="translate(177.404687 45.84)scale(0.2 -0.2)">
     <defs>
      <path d="M 2769 125 
Q 2066 -150 972 -150 
Q 838 -150 717 -23 
Q 597 103 597 238 
L 597 1147 
Q 597 1594 653 2422 
Q 716 3316 722 3716 
Q 719 4003 756 4572 
Q 778 4728 859 4778 
Q 1284 4909 1825 4909 
Q 2375 4909 2881 4534 
Q 3466 4103 3466 3469 
Q 3466 2666 2841 2203 
Q 3309 2003 3542 1759 
Q 3775 1516 3775 1228 
Q 3775 850 3366 497 
Q 3081 247 2769 125 
z
M 1825 4272 
Q 1484 4272 1347 4250 
L 1341 3703 
L 1278 2494 
Q 1722 2456 1753 2459 
Q 2225 2497 2525 2753 
Q 2847 3031 2847 3469 
Q 2847 3766 2519 4019 
Q 2191 4272 1825 4272 
z
M 2175 1769 
L 1844 1822 
Q 1803 1822 1720 1817 
Q 1638 1813 1594 1813 
Q 1425 1813 1234 1841 
Q 1216 1447 1216 1138 
L 1216 491 
Q 2034 519 2550 722 
Q 2769 806 2969 984 
Q 3159 1147 3159 1228 
Q 3159 1375 2759 1559 
Q 2459 1700 2175 1769 
z
" id="ComicSansMS-42" transform="scale(0.015625)"/>
      <path d="M 1031 3956 
Q 881 3956 772 4062 
Q 663 4169 663 4319 
Q 663 4469 772 4575 
Q 881 4681 1031 4681 
Q 1181 4681 1289 4575 
Q 1397 4469 1397 4319 
Q 1397 4169 1289 4062 
Q 1181 3956 1031 3956 
z
M 1172 1419 
Q 1172 1231 1183 857 
Q 1194 484 1194 297 
Q 1194 159 1109 71 
Q 1025 -16 888 -16 
Q 753 -16 667 71 
Q 581 159 581 297 
Q 581 484 570 857 
Q 559 1231 559 1419 
Q 559 1713 590 2152 
Q 622 2591 622 2884 
Q 622 3025 708 3112 
Q 794 3200 928 3200 
Q 1063 3200 1148 3112 
Q 1234 3025 1234 2884 
Q 1234 2591 1203 2152 
Q 1172 1713 1172 1419 
z
" id="ComicSansMS-69" transform="scale(0.015625)"/>
      <path d="M 3006 1347 
L 2934 297 
Q 2916 -328 2806 -725 
Q 2666 -1231 2356 -1472 
Q 1981 -1763 1272 -1763 
Q 856 -1763 575 -1706 
Q 181 -1628 181 -1381 
Q 181 -1103 453 -1103 
Q 566 -1103 828 -1158 
Q 1091 -1213 1409 -1206 
Q 2009 -1197 2238 -625 
Q 2388 -244 2397 547 
Q 2228 234 1995 78 
Q 1763 -78 1463 -78 
Q 897 -78 542 308 
Q 188 694 188 1309 
Q 188 2153 672 2669 
Q 1172 3200 2034 3200 
Q 2325 3200 2522 3125 
Q 2719 3050 2822 2900 
Q 3156 2891 3156 2528 
Q 3156 2306 3091 1934 
Q 3019 1503 3006 1347 
z
M 2003 2700 
Q 1409 2700 1084 2291 
Q 794 1922 794 1353 
Q 794 900 966 672 
Q 1138 444 1481 444 
Q 1797 444 2094 800 
Q 2363 1128 2400 1450 
Q 2466 1788 2541 2509 
Q 2416 2606 2281 2653 
Q 2147 2700 2003 2700 
z
" id="ComicSansMS-67" transform="scale(0.015625)"/>
      <path d="M 2525 2663 
Q 2459 2663 2370 2669 
Q 2281 2675 2216 2675 
Q 2144 2675 1791 2628 
L 1850 781 
L 1853 644 
L 1856 484 
Q 1869 -200 1528 -200 
Q 1403 -200 1311 -119 
Q 1219 -38 1219 84 
Q 1219 203 1228 440 
Q 1238 678 1238 797 
L 1175 2622 
Q 947 2631 481 2675 
Q 203 2713 203 2984 
Q 203 3122 287 3212 
Q 372 3303 503 3303 
L 1159 3250 
Q 1159 3409 1145 3676 
Q 1131 3944 1131 4063 
Q 1131 4194 1222 4280 
Q 1313 4366 1444 4366 
Q 1725 4366 1772 3906 
Q 1781 3791 1781 3628 
L 1775 3447 
L 1772 3253 
Q 2159 3303 2216 3303 
Q 2541 3303 2641 3272 
Q 2831 3209 2831 2978 
Q 2831 2841 2745 2752 
Q 2659 2663 2525 2663 
z
" id="ComicSansMS-74" transform="scale(0.015625)"/>
      <path d="M 2506 -191 
Q 1625 -191 1013 338 
Q 363 900 363 1788 
Q 363 2869 1003 3753 
Q 1719 4734 2788 4734 
Q 3816 4734 4316 4272 
Q 4838 3791 4838 2753 
Q 4838 1672 4250 803 
Q 3575 -191 2506 -191 
z
M 2788 4094 
Q 2022 4094 1491 3331 
Q 1000 2631 1000 1788 
Q 1000 1184 1447 806 
Q 1875 450 2506 450 
Q 3266 450 3759 1216 
Q 4200 1900 4200 2753 
Q 4200 3500 3866 3803 
Q 3547 4094 2788 4094 
z
" id="ComicSansMS-4f" transform="scale(0.015625)"/>
      <path d="M 1875 163 
Q 1866 -125 1591 -125 
Q 1363 -125 1259 144 
L 781 1413 
L 225 2847 
Q 194 2928 194 2991 
Q 194 3119 291 3209 
Q 388 3300 516 3300 
Q 703 3300 784 3109 
L 1578 925 
Q 1813 1425 2169 2375 
Q 2253 2625 2434 3081 
Q 2531 3281 2709 3281 
Q 2838 3281 2934 3190 
Q 3031 3100 3031 2975 
Q 3031 2856 2516 1638 
L 1875 163 
z
" id="ComicSansMS-76" transform="scale(0.015625)"/>
      <path d="M 4403 -259 
Q 4147 -259 4103 13 
Q 4047 356 3991 981 
L 3884 1950 
Q 3853 2166 3778 2372 
Q 3672 2653 3547 2653 
Q 3431 2653 3116 2456 
Q 2816 2275 2722 2166 
Q 2719 1872 2738 1578 
L 2831 744 
Q 2891 250 2891 -72 
Q 2891 -209 2805 -298 
Q 2719 -388 2584 -388 
Q 2450 -388 2364 -298 
Q 2278 -209 2278 -72 
Q 2278 306 2201 1045 
Q 2125 1784 2125 2163 
Q 2125 2494 2031 2678 
Q 1813 2578 1588 2353 
L 1219 1941 
Q 1169 1866 1059 1744 
Q 1059 1556 1025 1190 
Q 991 825 991 650 
Q 991 556 1020 387 
Q 1050 219 1050 144 
Q 1050 16 954 -71 
Q 859 -159 731 -159 
Q 378 -159 378 644 
Q 378 831 412 1203 
Q 447 1575 447 1763 
Q 447 1928 417 2259 
Q 388 2591 388 2759 
Q 388 3469 706 3469 
Q 828 3469 929 3362 
Q 1031 3256 1031 3131 
Q 1031 3072 1015 2947 
Q 1000 2822 1000 2756 
L 1006 2428 
Q 1169 2763 1484 3033 
Q 1800 3303 2022 3303 
Q 2513 3303 2697 2816 
Q 2869 3044 3106 3158 
Q 3344 3272 3650 3272 
Q 4172 3272 4363 2709 
Q 4400 2597 4491 1831 
Q 4578 1294 4716 41 
Q 4725 -84 4631 -171 
Q 4538 -259 4403 -259 
z
" id="ComicSansMS-6d" transform="scale(0.015625)"/>
     </defs>
     <use xlink:href="#ComicSansMS-42"/>
     <use x="63.037109" xlink:href="#ComicSansMS-69"/>
     <use x="91.064453" xlink:href="#ComicSansMS-67"/>
     <use x="144.140625" xlink:href="#ComicSansMS-67"/>
     <use x="197.216797" xlink:href="#ComicSansMS-65"/>
     <use x="252.001953" xlink:href="#ComicSansMS-73"/>
     <use x="300.683594" xlink:href="#ComicSansMS-74"/>
     <use x="347.802734" xlink:href="#ComicSansMS-20"/>
     <use x="377.685547" xlink:href="#ComicSansMS-54"/>
     <use x="445.654297" xlink:href="#ComicSansMS-72"/>
     <use x="493.701172" xlink:href="#ComicSansMS-61"/>
     <use x="544.873047" xlink:href="#ComicSansMS-64"/>
     <use x="603.613281" xlink:href="#ComicSansMS-65"/>
     <use x="658.398438" xlink:href="#ComicSansMS-20"/>
     <use x="688.28125" xlink:href="#ComicSansMS-4f"/>
     <use x="768.115234" xlink:href="#ComicSansMS-76"/>
     <use x="816.748047" xlink:href="#ComicSansMS-65"/>
     <use x="871.533203" xlink:href="#ComicSansMS-72"/>
     <use x="919.580078" xlink:href="#ComicSansMS-20"/>
     <use x="949.462891" xlink:href="#ComicSansMS-54"/>
     <use x="1017.431641" xlink:href="#ComicSansMS-69"/>
     <use x="1045.458984" xlink:href="#ComicSansMS-6d"/>
     <use x="1123.144531" xlink:href="#ComicSansMS-65"/>
    </g>
   </g>
  </g>
 </g>
 <defs>
  <clipPath id="p439b3834b2">
   <rect height="332.64" width="446.4" x="72" y="51.84"/>
  </clipPath>
 </defs>
</svg>
