<?xml version="1.0" encoding="utf-8" standalone="no"?>
<!DOCTYPE svg PUBLIC "-//W3C//DTD SVG 1.1//EN"
  "http://www.w3.org/Graphics/SVG/1.1/DTD/svg11.dtd">
<!-- Created with matplotlib (https://matplotlib.org/) -->
<svg height="432pt" version="1.1" viewBox="0 0 576 432" width="576pt" xmlns="http://www.w3.org/2000/svg" xmlns:xlink="http://www.w3.org/1999/xlink">
 <metadata>
  <rdf:RDF xmlns:cc="http://creativecommons.org/ns#" xmlns:dc="http://purl.org/dc/elements/1.1/" xmlns:rdf="http://www.w3.org/1999/02/22-rdf-syntax-ns#">
   <cc:Work>
    <dc:type rdf:resource="http://purl.org/dc/dcmitype/StillImage"/>
    <dc:date>2021-07-12T13:49:21.535114</dc:date>
    <dc:format>image/svg+xml</dc:format>
    <dc:creator>
     <cc:Agent>
      <dc:title>Matplotlib v3.3.4, https://matplotlib.org/</dc:title>
     </cc:Agent>
    </dc:creator>
   </cc:Work>
  </rdf:RDF>
 </metadata>
 <defs>
  <style type="text/css">*{stroke-linecap:butt;stroke-linejoin:round;}</style>
 </defs>
 <g id="figure_1">
  <g id="patch_1">
   <path d="M 0 432 
L 576 432 
L 576 0 
L 0 0 
z
" style="fill:none;"/>
  </g>
  <g id="axes_1">
   <g id="patch_2">
    <path d="M 72 384.48 
L 518.4 384.48 
L 518.4 51.84 
L 72 51.84 
z
" style="fill:none;"/>
   </g>
   <g id="PolyCollection_1">
    <path clip-path="url(#p21d2c5748d)" d="M 92.290909 369.36 
L 92.290909 357.676852 
L 98.732468 357.246798 
L 105.174026 355.884959 
L 111.615584 341.048078 
L 118.057143 337.105911 
L 124.498701 334.883963 
L 150.264935 313.524589 
L 156.706494 311.230965 
L 163.148052 304.851823 
L 176.031169 304.063389 
L 182.472727 299.046087 
L 188.914286 297.612572 
L 195.355844 293.59873 
L 201.797403 279.048552 
L 208.238961 271.737625 
L 214.680519 270.590813 
L 221.122078 263.566589 
L 227.563636 257.832529 
L 234.005195 251.811766 
L 240.446753 247.941275 
L 246.888312 247.726248 
L 253.32987 238.336724 
L 259.771429 232.817691 
L 266.212987 224.861683 
L 272.654545 211.960047 
L 279.096104 209.594748 
L 285.537662 207.87453 
L 291.979221 203.358957 
L 298.420779 194.829543 
L 304.862338 191.317431 
L 311.303896 188.307049 
L 317.745455 187.44694 
L 324.187013 184.221531 
L 330.628571 171.24822 
L 337.07013 161.141939 
L 343.511688 152.827552 
L 349.953247 144.656516 
L 356.394805 137.990671 
L 362.836364 136.270453 
L 369.277922 129.604608 
L 375.719481 124.874008 
L 382.161039 118.064812 
L 388.602597 117.491406 
L 395.044156 114.265997 
L 401.485714 105.593231 
L 407.927273 102.869552 
L 414.368831 100.432576 
L 420.81039 96.705437 
L 427.251948 92.046513 
L 465.901299 86.02575 
L 472.342857 84.018829 
L 478.784416 77.496336 
L 485.225974 72.479033 
L 491.667532 68.966921 
L 498.109091 66.96 
L 498.109091 369.36 
L 498.109091 369.36 
L 491.667532 369.36 
L 485.225974 369.36 
L 478.784416 369.36 
L 472.342857 369.36 
L 465.901299 369.36 
L 427.251948 369.36 
L 420.81039 369.36 
L 414.368831 369.36 
L 407.927273 369.36 
L 401.485714 369.36 
L 395.044156 369.36 
L 388.602597 369.36 
L 382.161039 369.36 
L 375.719481 369.36 
L 369.277922 369.36 
L 362.836364 369.36 
L 356.394805 369.36 
L 349.953247 369.36 
L 343.511688 369.36 
L 337.07013 369.36 
L 330.628571 369.36 
L 324.187013 369.36 
L 317.745455 369.36 
L 311.303896 369.36 
L 304.862338 369.36 
L 298.420779 369.36 
L 291.979221 369.36 
L 285.537662 369.36 
L 279.096104 369.36 
L 272.654545 369.36 
L 266.212987 369.36 
L 259.771429 369.36 
L 253.32987 369.36 
L 246.888312 369.36 
L 240.446753 369.36 
L 234.005195 369.36 
L 227.563636 369.36 
L 221.122078 369.36 
L 214.680519 369.36 
L 208.238961 369.36 
L 201.797403 369.36 
L 195.355844 369.36 
L 188.914286 369.36 
L 182.472727 369.36 
L 176.031169 369.36 
L 163.148052 369.36 
L 156.706494 369.36 
L 150.264935 369.36 
L 124.498701 369.36 
L 118.057143 369.36 
L 111.615584 369.36 
L 105.174026 369.36 
L 98.732468 369.36 
L 92.290909 369.36 
z
" style="fill:#ff028d;"/>
   </g>
   <g id="matplotlib.axis_1">
    <g id="xtick_1">
     <g id="line2d_1">
      <defs>
       <path d="M 0 0 
L 0 3.5 
" id="m6ac88a99aa" style="stroke:#ffffff;stroke-width:0.8;"/>
      </defs>
      <g>
       <use style="fill:#ffffff;stroke:#ffffff;stroke-width:0.8;" x="118.057143" xlink:href="#m6ac88a99aa" y="384.48"/>
      </g>
     </g>
     <g id="text_1">
      <!-- 2021-05-13 -->
      <g style="fill:#ffffff;" transform="translate(88.99933 399.078438)scale(0.1 -0.1)">
       <defs>
        <path d="M 19.1875 8.296875 
L 53.609375 8.296875 
L 53.609375 0 
L 7.328125 0 
L 7.328125 8.296875 
Q 12.9375 14.109375 22.625 23.890625 
Q 32.328125 33.6875 34.8125 36.53125 
Q 39.546875 41.84375 41.421875 45.53125 
Q 43.3125 49.21875 43.3125 52.78125 
Q 43.3125 58.59375 39.234375 62.25 
Q 35.15625 65.921875 28.609375 65.921875 
Q 23.96875 65.921875 18.8125 64.3125 
Q 13.671875 62.703125 7.8125 59.421875 
L 7.8125 69.390625 
Q 13.765625 71.78125 18.9375 73 
Q 24.125 74.21875 28.421875 74.21875 
Q 39.75 74.21875 46.484375 68.546875 
Q 53.21875 62.890625 53.21875 53.421875 
Q 53.21875 48.921875 51.53125 44.890625 
Q 49.859375 40.875 45.40625 35.40625 
Q 44.1875 33.984375 37.640625 27.21875 
Q 31.109375 20.453125 19.1875 8.296875 
z
" id="DejaVuSans-50"/>
        <path d="M 31.78125 66.40625 
Q 24.171875 66.40625 20.328125 58.90625 
Q 16.5 51.421875 16.5 36.375 
Q 16.5 21.390625 20.328125 13.890625 
Q 24.171875 6.390625 31.78125 6.390625 
Q 39.453125 6.390625 43.28125 13.890625 
Q 47.125 21.390625 47.125 36.375 
Q 47.125 51.421875 43.28125 58.90625 
Q 39.453125 66.40625 31.78125 66.40625 
z
M 31.78125 74.21875 
Q 44.046875 74.21875 50.515625 64.515625 
Q 56.984375 54.828125 56.984375 36.375 
Q 56.984375 17.96875 50.515625 8.265625 
Q 44.046875 -1.421875 31.78125 -1.421875 
Q 19.53125 -1.421875 13.0625 8.265625 
Q 6.59375 17.96875 6.59375 36.375 
Q 6.59375 54.828125 13.0625 64.515625 
Q 19.53125 74.21875 31.78125 74.21875 
z
" id="DejaVuSans-48"/>
        <path d="M 12.40625 8.296875 
L 28.515625 8.296875 
L 28.515625 63.921875 
L 10.984375 60.40625 
L 10.984375 69.390625 
L 28.421875 72.90625 
L 38.28125 72.90625 
L 38.28125 8.296875 
L 54.390625 8.296875 
L 54.390625 0 
L 12.40625 0 
z
" id="DejaVuSans-49"/>
        <path d="M 4.890625 31.390625 
L 31.203125 31.390625 
L 31.203125 23.390625 
L 4.890625 23.390625 
z
" id="DejaVuSans-45"/>
        <path d="M 10.796875 72.90625 
L 49.515625 72.90625 
L 49.515625 64.59375 
L 19.828125 64.59375 
L 19.828125 46.734375 
Q 21.96875 47.46875 24.109375 47.828125 
Q 26.265625 48.1875 28.421875 48.1875 
Q 40.625 48.1875 47.75 41.5 
Q 54.890625 34.8125 54.890625 23.390625 
Q 54.890625 11.625 47.5625 5.09375 
Q 40.234375 -1.421875 26.90625 -1.421875 
Q 22.3125 -1.421875 17.546875 -0.640625 
Q 12.796875 0.140625 7.71875 1.703125 
L 7.71875 11.625 
Q 12.109375 9.234375 16.796875 8.0625 
Q 21.484375 6.890625 26.703125 6.890625 
Q 35.15625 6.890625 40.078125 11.328125 
Q 45.015625 15.765625 45.015625 23.390625 
Q 45.015625 31 40.078125 35.4375 
Q 35.15625 39.890625 26.703125 39.890625 
Q 22.75 39.890625 18.8125 39.015625 
Q 14.890625 38.140625 10.796875 36.28125 
z
" id="DejaVuSans-53"/>
        <path d="M 40.578125 39.3125 
Q 47.65625 37.796875 51.625 33 
Q 55.609375 28.21875 55.609375 21.1875 
Q 55.609375 10.40625 48.1875 4.484375 
Q 40.765625 -1.421875 27.09375 -1.421875 
Q 22.515625 -1.421875 17.65625 -0.515625 
Q 12.796875 0.390625 7.625 2.203125 
L 7.625 11.71875 
Q 11.71875 9.328125 16.59375 8.109375 
Q 21.484375 6.890625 26.8125 6.890625 
Q 36.078125 6.890625 40.9375 10.546875 
Q 45.796875 14.203125 45.796875 21.1875 
Q 45.796875 27.640625 41.28125 31.265625 
Q 36.765625 34.90625 28.71875 34.90625 
L 20.21875 34.90625 
L 20.21875 43.015625 
L 29.109375 43.015625 
Q 36.375 43.015625 40.234375 45.921875 
Q 44.09375 48.828125 44.09375 54.296875 
Q 44.09375 59.90625 40.109375 62.90625 
Q 36.140625 65.921875 28.71875 65.921875 
Q 24.65625 65.921875 20.015625 65.03125 
Q 15.375 64.15625 9.8125 62.3125 
L 9.8125 71.09375 
Q 15.4375 72.65625 20.34375 73.4375 
Q 25.25 74.21875 29.59375 74.21875 
Q 40.828125 74.21875 47.359375 69.109375 
Q 53.90625 64.015625 53.90625 55.328125 
Q 53.90625 49.265625 50.4375 45.09375 
Q 46.96875 40.921875 40.578125 39.3125 
z
" id="DejaVuSans-51"/>
       </defs>
       <use xlink:href="#DejaVuSans-50"/>
       <use x="63.623047" xlink:href="#DejaVuSans-48"/>
       <use x="127.246094" xlink:href="#DejaVuSans-50"/>
       <use x="190.869141" xlink:href="#DejaVuSans-49"/>
       <use x="254.492188" xlink:href="#DejaVuSans-45"/>
       <use x="290.576172" xlink:href="#DejaVuSans-48"/>
       <use x="354.199219" xlink:href="#DejaVuSans-53"/>
       <use x="417.822266" xlink:href="#DejaVuSans-45"/>
       <use x="453.90625" xlink:href="#DejaVuSans-49"/>
       <use x="517.529297" xlink:href="#DejaVuSans-51"/>
      </g>
     </g>
    </g>
    <g id="xtick_2">
     <g id="line2d_2">
      <g>
       <use style="fill:#ffffff;stroke:#ffffff;stroke-width:0.8;" x="214.680519" xlink:href="#m6ac88a99aa" y="384.48"/>
      </g>
     </g>
     <g id="text_2">
      <!-- 2021-05-28 -->
      <g style="fill:#ffffff;" transform="translate(185.622707 399.078438)scale(0.1 -0.1)">
       <defs>
        <path d="M 31.78125 34.625 
Q 24.75 34.625 20.71875 30.859375 
Q 16.703125 27.09375 16.703125 20.515625 
Q 16.703125 13.921875 20.71875 10.15625 
Q 24.75 6.390625 31.78125 6.390625 
Q 38.8125 6.390625 42.859375 10.171875 
Q 46.921875 13.96875 46.921875 20.515625 
Q 46.921875 27.09375 42.890625 30.859375 
Q 38.875 34.625 31.78125 34.625 
z
M 21.921875 38.8125 
Q 15.578125 40.375 12.03125 44.71875 
Q 8.5 49.078125 8.5 55.328125 
Q 8.5 64.0625 14.71875 69.140625 
Q 20.953125 74.21875 31.78125 74.21875 
Q 42.671875 74.21875 48.875 69.140625 
Q 55.078125 64.0625 55.078125 55.328125 
Q 55.078125 49.078125 51.53125 44.71875 
Q 48 40.375 41.703125 38.8125 
Q 48.828125 37.15625 52.796875 32.3125 
Q 56.78125 27.484375 56.78125 20.515625 
Q 56.78125 9.90625 50.3125 4.234375 
Q 43.84375 -1.421875 31.78125 -1.421875 
Q 19.734375 -1.421875 13.25 4.234375 
Q 6.78125 9.90625 6.78125 20.515625 
Q 6.78125 27.484375 10.78125 32.3125 
Q 14.796875 37.15625 21.921875 38.8125 
z
M 18.3125 54.390625 
Q 18.3125 48.734375 21.84375 45.5625 
Q 25.390625 42.390625 31.78125 42.390625 
Q 38.140625 42.390625 41.71875 45.5625 
Q 45.3125 48.734375 45.3125 54.390625 
Q 45.3125 60.0625 41.71875 63.234375 
Q 38.140625 66.40625 31.78125 66.40625 
Q 25.390625 66.40625 21.84375 63.234375 
Q 18.3125 60.0625 18.3125 54.390625 
z
" id="DejaVuSans-56"/>
       </defs>
       <use xlink:href="#DejaVuSans-50"/>
       <use x="63.623047" xlink:href="#DejaVuSans-48"/>
       <use x="127.246094" xlink:href="#DejaVuSans-50"/>
       <use x="190.869141" xlink:href="#DejaVuSans-49"/>
       <use x="254.492188" xlink:href="#DejaVuSans-45"/>
       <use x="290.576172" xlink:href="#DejaVuSans-48"/>
       <use x="354.199219" xlink:href="#DejaVuSans-53"/>
       <use x="417.822266" xlink:href="#DejaVuSans-45"/>
       <use x="453.90625" xlink:href="#DejaVuSans-50"/>
       <use x="517.529297" xlink:href="#DejaVuSans-56"/>
      </g>
     </g>
    </g>
    <g id="xtick_3">
     <g id="line2d_3">
      <g>
       <use style="fill:#ffffff;stroke:#ffffff;stroke-width:0.8;" x="311.303896" xlink:href="#m6ac88a99aa" y="384.48"/>
      </g>
     </g>
     <g id="text_3">
      <!-- 2021-06-12 -->
      <g style="fill:#ffffff;" transform="translate(282.246084 399.078438)scale(0.1 -0.1)">
       <defs>
        <path d="M 33.015625 40.375 
Q 26.375 40.375 22.484375 35.828125 
Q 18.609375 31.296875 18.609375 23.390625 
Q 18.609375 15.53125 22.484375 10.953125 
Q 26.375 6.390625 33.015625 6.390625 
Q 39.65625 6.390625 43.53125 10.953125 
Q 47.40625 15.53125 47.40625 23.390625 
Q 47.40625 31.296875 43.53125 35.828125 
Q 39.65625 40.375 33.015625 40.375 
z
M 52.59375 71.296875 
L 52.59375 62.3125 
Q 48.875 64.0625 45.09375 64.984375 
Q 41.3125 65.921875 37.59375 65.921875 
Q 27.828125 65.921875 22.671875 59.328125 
Q 17.53125 52.734375 16.796875 39.40625 
Q 19.671875 43.65625 24.015625 45.921875 
Q 28.375 48.1875 33.59375 48.1875 
Q 44.578125 48.1875 50.953125 41.515625 
Q 57.328125 34.859375 57.328125 23.390625 
Q 57.328125 12.15625 50.6875 5.359375 
Q 44.046875 -1.421875 33.015625 -1.421875 
Q 20.359375 -1.421875 13.671875 8.265625 
Q 6.984375 17.96875 6.984375 36.375 
Q 6.984375 53.65625 15.1875 63.9375 
Q 23.390625 74.21875 37.203125 74.21875 
Q 40.921875 74.21875 44.703125 73.484375 
Q 48.484375 72.75 52.59375 71.296875 
z
" id="DejaVuSans-54"/>
       </defs>
       <use xlink:href="#DejaVuSans-50"/>
       <use x="63.623047" xlink:href="#DejaVuSans-48"/>
       <use x="127.246094" xlink:href="#DejaVuSans-50"/>
       <use x="190.869141" xlink:href="#DejaVuSans-49"/>
       <use x="254.492188" xlink:href="#DejaVuSans-45"/>
       <use x="290.576172" xlink:href="#DejaVuSans-48"/>
       <use x="354.199219" xlink:href="#DejaVuSans-54"/>
       <use x="417.822266" xlink:href="#DejaVuSans-45"/>
       <use x="453.90625" xlink:href="#DejaVuSans-49"/>
       <use x="517.529297" xlink:href="#DejaVuSans-50"/>
      </g>
     </g>
    </g>
    <g id="xtick_4">
     <g id="line2d_4">
      <g>
       <use style="fill:#ffffff;stroke:#ffffff;stroke-width:0.8;" x="407.927273" xlink:href="#m6ac88a99aa" y="384.48"/>
      </g>
     </g>
     <g id="text_4">
      <!-- 2021-06-27 -->
      <g style="fill:#ffffff;" transform="translate(378.86946 399.078438)scale(0.1 -0.1)">
       <defs>
        <path d="M 8.203125 72.90625 
L 55.078125 72.90625 
L 55.078125 68.703125 
L 28.609375 0 
L 18.3125 0 
L 43.21875 64.59375 
L 8.203125 64.59375 
z
" id="DejaVuSans-55"/>
       </defs>
       <use xlink:href="#DejaVuSans-50"/>
       <use x="63.623047" xlink:href="#DejaVuSans-48"/>
       <use x="127.246094" xlink:href="#DejaVuSans-50"/>
       <use x="190.869141" xlink:href="#DejaVuSans-49"/>
       <use x="254.492188" xlink:href="#DejaVuSans-45"/>
       <use x="290.576172" xlink:href="#DejaVuSans-48"/>
       <use x="354.199219" xlink:href="#DejaVuSans-54"/>
       <use x="417.822266" xlink:href="#DejaVuSans-45"/>
       <use x="453.90625" xlink:href="#DejaVuSans-50"/>
       <use x="517.529297" xlink:href="#DejaVuSans-55"/>
      </g>
     </g>
    </g>
    <g id="xtick_5">
     <g id="line2d_5">
      <g>
       <use style="fill:#ffffff;stroke:#ffffff;stroke-width:0.8;" x="504.550649" xlink:href="#m6ac88a99aa" y="384.48"/>
      </g>
     </g>
     <g id="text_5">
      <!-- 2021-07-12 -->
      <g style="fill:#ffffff;" transform="translate(475.492837 399.078438)scale(0.1 -0.1)">
       <use xlink:href="#DejaVuSans-50"/>
       <use x="63.623047" xlink:href="#DejaVuSans-48"/>
       <use x="127.246094" xlink:href="#DejaVuSans-50"/>
       <use x="190.869141" xlink:href="#DejaVuSans-49"/>
       <use x="254.492188" xlink:href="#DejaVuSans-45"/>
       <use x="290.576172" xlink:href="#DejaVuSans-48"/>
       <use x="354.199219" xlink:href="#DejaVuSans-55"/>
       <use x="417.822266" xlink:href="#DejaVuSans-45"/>
       <use x="453.90625" xlink:href="#DejaVuSans-49"/>
       <use x="517.529297" xlink:href="#DejaVuSans-50"/>
      </g>
     </g>
    </g>
    <g id="text_6">
     <!-- Date -->
     <g style="fill:#ffffff;" transform="translate(281.685 414.585625)scale(0.12 -0.12)">
      <defs>
       <path d="M 52.546875 0.34375 
Q 44.96875 -4.828125 30.8125 -4.828125 
Q 27.25 -4.828125 22.65625 -3.71875 
Q 17.140625 -2.390625 14.359375 -0.296875 
L 13.875 -0.296875 
Q 11.765625 -0.296875 10.34375 1.171875 
Q 8.9375 2.640625 8.9375 4.734375 
Q 8.9375 9.859375 9.390625 20.09375 
Q 9.859375 30.328125 9.859375 35.453125 
Q 9.859375 41.15625 9.640625 52.515625 
Q 9.421875 63.875 9.421875 69.578125 
Q 9.421875 71.578125 11.46875 73.78125 
Q 13.53125 75.984375 15.578125 75.984375 
Q 16.75 75.984375 23.390625 72.703125 
Q 30.90625 69.046875 32.078125 68.65625 
Q 45.953125 63.921875 55.71875 54.109375 
Q 67.1875 42.53125 67.1875 28.65625 
Q 67.1875 20.3125 63.25 12.640625 
Q 59.328125 4.984375 52.546875 0.34375 
z
M 42.28125 52 
Q 37.3125 55.28125 19.28125 63.234375 
L 19.53125 49.171875 
L 19.671875 35.15625 
L 18.890625 8.5 
Q 19.234375 8.34375 19.921875 7.859375 
Q 24.21875 4.984375 30.765625 4.984375 
Q 41.890625 4.984375 46.96875 8.40625 
Q 51.703125 11.625 54.515625 17.0625 
Q 57.328125 22.515625 57.328125 28.421875 
Q 57.328125 42.1875 42.28125 52 
z
" id="ComicSansMS-68"/>
       <path d="M 44.921875 -3.21875 
Q 44 -3.21875 41.546875 -1.078125 
Q 39.359375 0.921875 38.28125 2.484375 
Q 33.59375 -0.046875 30.03125 -1.34375 
Q 26.46875 -2.640625 24.078125 -2.640625 
Q 12.640625 -2.640625 7.421875 3.8125 
Q 2.484375 9.859375 2.484375 22.359375 
Q 2.484375 34.1875 10.609375 42.578125 
Q 18.75 50.984375 30.03125 50.984375 
Q 34.28125 50.984375 39.546875 48.78125 
Q 46.1875 46.046875 46.1875 42.1875 
Q 46.1875 40.875 45.21875 39.84375 
Q 44.734375 37.984375 44.453125 33.734375 
Q 44.1875 29.5 44.140625 22.859375 
Q 44.09375 16.796875 44.96875 13.28125 
Q 45.453125 11.140625 48.046875 4.6875 
Q 48.390625 3.8125 49.171875 2.09375 
L 49.46875 1.265625 
Q 49.46875 -0.6875 48.09375 -1.953125 
Q 46.734375 -3.21875 44.921875 -3.21875 
z
M 34.765625 30.71875 
Q 34.765625 32.8125 35.03125 35.28125 
Q 35.296875 37.75 35.84375 40.53125 
Q 34.03125 41.453125 32.734375 41.890625 
Q 31.453125 42.328125 30.671875 42.328125 
Q 23.09375 42.328125 17.59375 36.15625 
Q 12.109375 29.984375 12.109375 21.921875 
Q 12.109375 13.921875 14.9375 9.90625 
Q 17.78125 5.90625 23.4375 5.90625 
Q 28.125 5.90625 31.390625 7.625 
Q 33.15625 8.546875 36.328125 11.328125 
Q 34.765625 24.265625 34.765625 30.71875 
z
" id="ComicSansMS-97"/>
       <path d="M 39.453125 41.609375 
Q 38.421875 41.609375 37.03125 41.703125 
Q 35.640625 41.796875 34.625 41.796875 
Q 33.5 41.796875 27.984375 41.0625 
L 28.90625 12.203125 
L 28.953125 10.0625 
L 29 7.5625 
Q 29.203125 -3.125 23.875 -3.125 
Q 21.921875 -3.125 20.484375 -1.859375 
Q 19.046875 -0.59375 19.046875 1.3125 
Q 19.046875 3.171875 19.1875 6.875 
Q 19.34375 10.59375 19.34375 12.453125 
L 18.359375 40.96875 
Q 14.796875 41.109375 7.515625 41.796875 
Q 3.171875 42.390625 3.171875 46.625 
Q 3.171875 48.78125 4.484375 50.1875 
Q 5.8125 51.609375 7.859375 51.609375 
L 18.109375 50.78125 
Q 18.109375 53.265625 17.890625 57.4375 
Q 17.671875 61.625 17.671875 63.484375 
Q 17.671875 65.53125 19.09375 66.875 
Q 20.515625 68.21875 22.5625 68.21875 
Q 26.953125 68.21875 27.6875 61.03125 
Q 27.828125 59.234375 27.828125 56.6875 
L 27.734375 53.859375 
L 27.6875 50.828125 
Q 33.734375 51.609375 34.625 51.609375 
Q 39.703125 51.609375 41.265625 51.125 
Q 44.234375 50.140625 44.234375 46.53125 
Q 44.234375 44.390625 42.890625 43 
Q 41.546875 41.609375 39.453125 41.609375 
z
" id="ComicSansMS-116"/>
       <path d="M 29.59375 -2.25 
Q 18.5625 -2.25 11.71875 3.265625 
Q 4.25 9.375 4.25 20.359375 
Q 4.25 33.0625 10.40625 41.65625 
Q 17.09375 51.03125 28.265625 51.03125 
Q 36.375 51.03125 41.5 48.296875 
Q 47.796875 44.921875 47.796875 37.9375 
Q 47.796875 33.0625 42.28125 29.046875 
Q 39.84375 27.296875 31.9375 23.578125 
L 13.28125 14.75 
Q 16.015625 10.6875 20.09375 8.640625 
Q 24.171875 6.59375 29.59375 6.59375 
Q 32.953125 6.59375 37.5 7.859375 
Q 43.265625 9.46875 44.921875 12.078125 
Q 46.578125 14.703125 48.484375 14.703125 
Q 50.203125 14.703125 51.53125 13.40625 
Q 52.875 12.109375 52.875 10.40625 
Q 52.875 4.984375 44.140625 1.078125 
Q 36.671875 -2.25 29.59375 -2.25 
z
M 28.265625 42.234375 
Q 22.3125 42.234375 18.359375 37.625 
Q 14.40625 33.015625 12.453125 23.734375 
L 27.4375 30.859375 
Q 36.28125 35.15625 40.046875 38.328125 
Q 35.84375 42.234375 28.265625 42.234375 
z
" id="ComicSansMS-101"/>
      </defs>
      <use xlink:href="#ComicSansMS-68"/>
      <use x="72.167969" xlink:href="#ComicSansMS-97"/>
      <use x="123.339844" xlink:href="#ComicSansMS-116"/>
      <use x="170.458984" xlink:href="#ComicSansMS-101"/>
     </g>
    </g>
   </g>
   <g id="matplotlib.axis_2">
    <g id="ytick_1">
     <g id="line2d_6">
      <defs>
       <path d="M 0 0 
L -3.5 0 
" id="m876cb9101f" style="stroke:#ffffff;stroke-width:0.8;"/>
      </defs>
      <g>
       <use style="fill:#ffffff;stroke:#ffffff;stroke-width:0.8;" x="72" xlink:href="#m876cb9101f" y="369.36"/>
      </g>
     </g>
     <g id="text_7">
      <!-- 0 -->
      <g style="fill:#ffffff;" transform="translate(58.6375 373.159219)scale(0.1 -0.1)">
       <use xlink:href="#DejaVuSans-48"/>
      </g>
     </g>
    </g>
    <g id="ytick_2">
     <g id="line2d_7">
      <g>
       <use style="fill:#ffffff;stroke:#ffffff;stroke-width:0.8;" x="72" xlink:href="#m876cb9101f" y="297.684247"/>
      </g>
     </g>
     <g id="text_8">
      <!-- 1000 -->
      <g style="fill:#ffffff;" transform="translate(39.55 301.483466)scale(0.1 -0.1)">
       <use xlink:href="#DejaVuSans-49"/>
       <use x="63.623047" xlink:href="#DejaVuSans-48"/>
       <use x="127.246094" xlink:href="#DejaVuSans-48"/>
       <use x="190.869141" xlink:href="#DejaVuSans-48"/>
      </g>
     </g>
    </g>
    <g id="ytick_3">
     <g id="line2d_8">
      <g>
       <use style="fill:#ffffff;stroke:#ffffff;stroke-width:0.8;" x="72" xlink:href="#m876cb9101f" y="226.008495"/>
      </g>
     </g>
     <g id="text_9">
      <!-- 2000 -->
      <g style="fill:#ffffff;" transform="translate(39.55 229.807714)scale(0.1 -0.1)">
       <use xlink:href="#DejaVuSans-50"/>
       <use x="63.623047" xlink:href="#DejaVuSans-48"/>
       <use x="127.246094" xlink:href="#DejaVuSans-48"/>
       <use x="190.869141" xlink:href="#DejaVuSans-48"/>
      </g>
     </g>
    </g>
    <g id="ytick_4">
     <g id="line2d_9">
      <g>
       <use style="fill:#ffffff;stroke:#ffffff;stroke-width:0.8;" x="72" xlink:href="#m876cb9101f" y="154.332742"/>
      </g>
     </g>
     <g id="text_10">
      <!-- 3000 -->
      <g style="fill:#ffffff;" transform="translate(39.55 158.131961)scale(0.1 -0.1)">
       <use xlink:href="#DejaVuSans-51"/>
       <use x="63.623047" xlink:href="#DejaVuSans-48"/>
       <use x="127.246094" xlink:href="#DejaVuSans-48"/>
       <use x="190.869141" xlink:href="#DejaVuSans-48"/>
      </g>
     </g>
    </g>
    <g id="ytick_5">
     <g id="line2d_10">
      <g>
       <use style="fill:#ffffff;stroke:#ffffff;stroke-width:0.8;" x="72" xlink:href="#m876cb9101f" y="82.65699"/>
      </g>
     </g>
     <g id="text_11">
      <!-- 4000 -->
      <g style="fill:#ffffff;" transform="translate(39.55 86.456209)scale(0.1 -0.1)">
       <defs>
        <path d="M 37.796875 64.3125 
L 12.890625 25.390625 
L 37.796875 25.390625 
z
M 35.203125 72.90625 
L 47.609375 72.90625 
L 47.609375 25.390625 
L 58.015625 25.390625 
L 58.015625 17.1875 
L 47.609375 17.1875 
L 47.609375 0 
L 37.796875 0 
L 37.796875 17.1875 
L 4.890625 17.1875 
L 4.890625 26.703125 
z
" id="DejaVuSans-52"/>
       </defs>
       <use xlink:href="#DejaVuSans-52"/>
       <use x="63.623047" xlink:href="#DejaVuSans-48"/>
       <use x="127.246094" xlink:href="#DejaVuSans-48"/>
       <use x="190.869141" xlink:href="#DejaVuSans-48"/>
      </g>
     </g>
    </g>
    <g id="text_12">
     <!-- ₡urrency Things -->
     <g style="fill:#ffffff;" transform="translate(33.054375 266.595937)rotate(-90)scale(0.12 -0.12)">
      <defs>
       <path d="M 42.578125 73.96875 
Q 45.75 73.578125 48.78125 72.65625 
L 50.25 77.78125 
L 57.8125 77.78125 
L 55.515625 69.734375 
Q 57.46875 68.65625 59.28125 67.28125 
L 59.28125 56.890625 
Q 56.453125 59.8125 53.328125 61.8125 
L 37.75 6.6875 
L 38.625 6.6875 
Q 44.4375 6.6875 49.578125 8.984375 
Q 54.734375 11.28125 59.28125 15.921875 
L 59.28125 5.609375 
Q 54.546875 2.09375 49.265625 0.328125 
Q 44 -1.421875 38.09375 -1.421875 
Q 36.765625 -1.421875 35.5 -1.3125 
L 34.625 -4.390625 
L 27.046875 -4.390625 
L 28.265625 -0.140625 
Q 25.09375 0.734375 22.3125 2.203125 
L 20.453125 -4.390625 
L 12.890625 -4.390625 
L 16.0625 6.84375 
Q 15.140625 7.71875 14.3125 8.734375 
Q 5.609375 18.84375 5.609375 36.375 
Q 5.609375 53.953125 14.3125 64.109375 
Q 22.125 73.140625 35.015625 74.125 
L 36.03125 77.78125 
L 43.65625 77.78125 
z
M 32.5625 65.484375 
Q 25.484375 63.96875 21.1875 58.5 
Q 15.09375 50.828125 15.09375 36.375 
Q 15.09375 24.75 19.09375 17.53125 
z
M 46.625 64.9375 
Q 43.609375 65.875 40.328125 66.0625 
L 24.75 10.84375 
Q 27.34375 8.890625 30.515625 7.859375 
z
" id="DejaVuSans-8353"/>
       <path d="M 8.5 21.578125 
L 8.5 54.6875 
L 17.484375 54.6875 
L 17.484375 21.921875 
Q 17.484375 14.15625 20.5 10.265625 
Q 23.53125 6.390625 29.59375 6.390625 
Q 36.859375 6.390625 41.078125 11.03125 
Q 45.3125 15.671875 45.3125 23.6875 
L 45.3125 54.6875 
L 54.296875 54.6875 
L 54.296875 0 
L 45.3125 0 
L 45.3125 8.40625 
Q 42.046875 3.421875 37.71875 1 
Q 33.40625 -1.421875 27.6875 -1.421875 
Q 18.265625 -1.421875 13.375 4.4375 
Q 8.5 10.296875 8.5 21.578125 
z
M 31.109375 56 
z
" id="DejaVuSans-117"/>
       <path d="M 41.109375 46.296875 
Q 39.59375 47.171875 37.8125 47.578125 
Q 36.03125 48 33.890625 48 
Q 26.265625 48 22.1875 43.046875 
Q 18.109375 38.09375 18.109375 28.8125 
L 18.109375 0 
L 9.078125 0 
L 9.078125 54.6875 
L 18.109375 54.6875 
L 18.109375 46.1875 
Q 20.953125 51.171875 25.484375 53.578125 
Q 30.03125 56 36.53125 56 
Q 37.453125 56 38.578125 55.875 
Q 39.703125 55.765625 41.0625 55.515625 
z
" id="DejaVuSans-114"/>
       <path d="M 56.203125 29.59375 
L 56.203125 25.203125 
L 14.890625 25.203125 
Q 15.484375 15.921875 20.484375 11.0625 
Q 25.484375 6.203125 34.421875 6.203125 
Q 39.59375 6.203125 44.453125 7.46875 
Q 49.3125 8.734375 54.109375 11.28125 
L 54.109375 2.78125 
Q 49.265625 0.734375 44.1875 -0.34375 
Q 39.109375 -1.421875 33.890625 -1.421875 
Q 20.796875 -1.421875 13.15625 6.1875 
Q 5.515625 13.8125 5.515625 26.8125 
Q 5.515625 40.234375 12.765625 48.109375 
Q 20.015625 56 32.328125 56 
Q 43.359375 56 49.78125 48.890625 
Q 56.203125 41.796875 56.203125 29.59375 
z
M 47.21875 32.234375 
Q 47.125 39.59375 43.09375 43.984375 
Q 39.0625 48.390625 32.421875 48.390625 
Q 24.90625 48.390625 20.390625 44.140625 
Q 15.875 39.890625 15.1875 32.171875 
z
" id="DejaVuSans-101"/>
       <path d="M 54.890625 33.015625 
L 54.890625 0 
L 45.90625 0 
L 45.90625 32.71875 
Q 45.90625 40.484375 42.875 44.328125 
Q 39.84375 48.1875 33.796875 48.1875 
Q 26.515625 48.1875 22.3125 43.546875 
Q 18.109375 38.921875 18.109375 30.90625 
L 18.109375 0 
L 9.078125 0 
L 9.078125 54.6875 
L 18.109375 54.6875 
L 18.109375 46.1875 
Q 21.34375 51.125 25.703125 53.5625 
Q 30.078125 56 35.796875 56 
Q 45.21875 56 50.046875 50.171875 
Q 54.890625 44.34375 54.890625 33.015625 
z
" id="DejaVuSans-110"/>
       <path d="M 48.78125 52.59375 
L 48.78125 44.1875 
Q 44.96875 46.296875 41.140625 47.34375 
Q 37.3125 48.390625 33.40625 48.390625 
Q 24.65625 48.390625 19.8125 42.84375 
Q 14.984375 37.3125 14.984375 27.296875 
Q 14.984375 17.28125 19.8125 11.734375 
Q 24.65625 6.203125 33.40625 6.203125 
Q 37.3125 6.203125 41.140625 7.25 
Q 44.96875 8.296875 48.78125 10.40625 
L 48.78125 2.09375 
Q 45.015625 0.34375 40.984375 -0.53125 
Q 36.96875 -1.421875 32.421875 -1.421875 
Q 20.0625 -1.421875 12.78125 6.34375 
Q 5.515625 14.109375 5.515625 27.296875 
Q 5.515625 40.671875 12.859375 48.328125 
Q 20.21875 56 33.015625 56 
Q 37.15625 56 41.109375 55.140625 
Q 45.0625 54.296875 48.78125 52.59375 
z
" id="DejaVuSans-99"/>
       <path d="M 32.171875 -5.078125 
Q 28.375 -14.84375 24.75 -17.8125 
Q 21.140625 -20.796875 15.09375 -20.796875 
L 7.90625 -20.796875 
L 7.90625 -13.28125 
L 13.1875 -13.28125 
Q 16.890625 -13.28125 18.9375 -11.515625 
Q 21 -9.765625 23.484375 -3.21875 
L 25.09375 0.875 
L 2.984375 54.6875 
L 12.5 54.6875 
L 29.59375 11.921875 
L 46.6875 54.6875 
L 56.203125 54.6875 
z
" id="DejaVuSans-121"/>
       <path id="DejaVuSans-32"/>
       <path d="M -0.296875 72.90625 
L 61.375 72.90625 
L 61.375 64.59375 
L 35.5 64.59375 
L 35.5 0 
L 25.59375 0 
L 25.59375 64.59375 
L -0.296875 64.59375 
z
" id="DejaVuSans-84"/>
       <path d="M 54.890625 33.015625 
L 54.890625 0 
L 45.90625 0 
L 45.90625 32.71875 
Q 45.90625 40.484375 42.875 44.328125 
Q 39.84375 48.1875 33.796875 48.1875 
Q 26.515625 48.1875 22.3125 43.546875 
Q 18.109375 38.921875 18.109375 30.90625 
L 18.109375 0 
L 9.078125 0 
L 9.078125 75.984375 
L 18.109375 75.984375 
L 18.109375 46.1875 
Q 21.34375 51.125 25.703125 53.5625 
Q 30.078125 56 35.796875 56 
Q 45.21875 56 50.046875 50.171875 
Q 54.890625 44.34375 54.890625 33.015625 
z
" id="DejaVuSans-104"/>
       <path d="M 9.421875 54.6875 
L 18.40625 54.6875 
L 18.40625 0 
L 9.421875 0 
z
M 9.421875 75.984375 
L 18.40625 75.984375 
L 18.40625 64.59375 
L 9.421875 64.59375 
z
" id="DejaVuSans-105"/>
       <path d="M 45.40625 27.984375 
Q 45.40625 37.75 41.375 43.109375 
Q 37.359375 48.484375 30.078125 48.484375 
Q 22.859375 48.484375 18.828125 43.109375 
Q 14.796875 37.75 14.796875 27.984375 
Q 14.796875 18.265625 18.828125 12.890625 
Q 22.859375 7.515625 30.078125 7.515625 
Q 37.359375 7.515625 41.375 12.890625 
Q 45.40625 18.265625 45.40625 27.984375 
z
M 54.390625 6.78125 
Q 54.390625 -7.171875 48.1875 -13.984375 
Q 42 -20.796875 29.203125 -20.796875 
Q 24.46875 -20.796875 20.265625 -20.09375 
Q 16.0625 -19.390625 12.109375 -17.921875 
L 12.109375 -9.1875 
Q 16.0625 -11.328125 19.921875 -12.34375 
Q 23.78125 -13.375 27.78125 -13.375 
Q 36.625 -13.375 41.015625 -8.765625 
Q 45.40625 -4.15625 45.40625 5.171875 
L 45.40625 9.625 
Q 42.625 4.78125 38.28125 2.390625 
Q 33.9375 0 27.875 0 
Q 17.828125 0 11.671875 7.65625 
Q 5.515625 15.328125 5.515625 27.984375 
Q 5.515625 40.671875 11.671875 48.328125 
Q 17.828125 56 27.875 56 
Q 33.9375 56 38.28125 53.609375 
Q 42.625 51.21875 45.40625 46.390625 
L 45.40625 54.6875 
L 54.390625 54.6875 
z
" id="DejaVuSans-103"/>
       <path d="M 44.28125 53.078125 
L 44.28125 44.578125 
Q 40.484375 46.53125 36.375 47.5 
Q 32.28125 48.484375 27.875 48.484375 
Q 21.1875 48.484375 17.84375 46.4375 
Q 14.5 44.390625 14.5 40.28125 
Q 14.5 37.15625 16.890625 35.375 
Q 19.28125 33.59375 26.515625 31.984375 
L 29.59375 31.296875 
Q 39.15625 29.25 43.1875 25.515625 
Q 47.21875 21.78125 47.21875 15.09375 
Q 47.21875 7.46875 41.1875 3.015625 
Q 35.15625 -1.421875 24.609375 -1.421875 
Q 20.21875 -1.421875 15.453125 -0.5625 
Q 10.6875 0.296875 5.421875 2 
L 5.421875 11.28125 
Q 10.40625 8.6875 15.234375 7.390625 
Q 20.0625 6.109375 24.8125 6.109375 
Q 31.15625 6.109375 34.5625 8.28125 
Q 37.984375 10.453125 37.984375 14.40625 
Q 37.984375 18.0625 35.515625 20.015625 
Q 33.0625 21.96875 24.703125 23.78125 
L 21.578125 24.515625 
Q 13.234375 26.265625 9.515625 29.90625 
Q 5.8125 33.546875 5.8125 39.890625 
Q 5.8125 47.609375 11.28125 51.796875 
Q 16.75 56 26.8125 56 
Q 31.78125 56 36.171875 55.265625 
Q 40.578125 54.546875 44.28125 53.078125 
z
" id="DejaVuSans-115"/>
      </defs>
      <use xlink:href="#DejaVuSans-8353"/>
      <use x="63.623047" xlink:href="#DejaVuSans-117"/>
      <use x="127.001953" xlink:href="#DejaVuSans-114"/>
      <use x="166.365234" xlink:href="#DejaVuSans-114"/>
      <use x="205.228516" xlink:href="#DejaVuSans-101"/>
      <use x="266.751953" xlink:href="#DejaVuSans-110"/>
      <use x="330.130859" xlink:href="#DejaVuSans-99"/>
      <use x="385.111328" xlink:href="#DejaVuSans-121"/>
      <use x="444.291016" xlink:href="#DejaVuSans-32"/>
      <use x="476.078125" xlink:href="#DejaVuSans-84"/>
      <use x="537.162109" xlink:href="#DejaVuSans-104"/>
      <use x="600.541016" xlink:href="#DejaVuSans-105"/>
      <use x="628.324219" xlink:href="#DejaVuSans-110"/>
      <use x="691.703125" xlink:href="#DejaVuSans-103"/>
      <use x="755.179688" xlink:href="#DejaVuSans-115"/>
     </g>
    </g>
   </g>
   <g id="line2d_11">
    <path clip-path="url(#p21d2c5748d)" d="M 92.290909 357.676852 
L 98.732468 357.246798 
L 105.174026 355.884959 
L 111.615584 341.048078 
L 118.057143 337.105911 
L 124.498701 334.883963 
L 150.264935 313.524589 
L 156.706494 311.230965 
L 163.148052 304.851823 
L 176.031169 304.063389 
L 182.472727 299.046087 
L 188.914286 297.612572 
L 195.355844 293.59873 
L 201.797403 279.048552 
L 208.238961 271.737625 
L 214.680519 270.590813 
L 221.122078 263.566589 
L 227.563636 257.832529 
L 234.005195 251.811766 
L 240.446753 247.941275 
L 246.888312 247.726248 
L 253.32987 238.336724 
L 259.771429 232.817691 
L 266.212987 224.861683 
L 272.654545 211.960047 
L 279.096104 209.594748 
L 285.537662 207.87453 
L 291.979221 203.358957 
L 298.420779 194.829543 
L 304.862338 191.317431 
L 311.303896 188.307049 
L 317.745455 187.44694 
L 324.187013 184.221531 
L 330.628571 171.24822 
L 337.07013 161.141939 
L 343.511688 152.827552 
L 349.953247 144.656516 
L 356.394805 137.990671 
L 362.836364 136.270453 
L 369.277922 129.604608 
L 375.719481 124.874008 
L 382.161039 118.064812 
L 388.602597 117.491406 
L 395.044156 114.265997 
L 401.485714 105.593231 
L 407.927273 102.869552 
L 414.368831 100.432576 
L 420.81039 96.705437 
L 427.251948 92.046513 
L 465.901299 86.02575 
L 472.342857 84.018829 
L 478.784416 77.496336 
L 485.225974 72.479033 
L 491.667532 68.966921 
L 498.109091 66.96 
" style="fill:none;"/>
   </g>
   <g id="patch_3">
    <path d="M 72 384.48 
L 72 51.84 
" style="fill:none;stroke:#ffffff;stroke-linecap:square;stroke-linejoin:miter;stroke-width:0.8;"/>
   </g>
   <g id="patch_4">
    <path d="M 518.4 384.48 
L 518.4 51.84 
" style="fill:none;stroke:#000000;stroke-linecap:square;stroke-linejoin:miter;stroke-width:0.8;"/>
   </g>
   <g id="patch_5">
    <path d="M 72 384.48 
L 518.4 384.48 
" style="fill:none;stroke:#ffffff;stroke-linecap:square;stroke-linejoin:miter;stroke-width:0.8;"/>
   </g>
   <g id="patch_6">
    <path d="M 72 51.84 
L 518.4 51.84 
" style="fill:none;stroke:#000000;stroke-linecap:square;stroke-linejoin:miter;stroke-width:0.8;"/>
   </g>
   <g id="text_13">
    <!-- Supply Over Time -->
    <g style="fill:#ffffff;" transform="translate(212.473437 45.84)scale(0.2 -0.2)">
     <defs>
      <path d="M 6.546875 12.15625 
Q 6.5 14.203125 7.9375 15.5 
Q 9.375 16.796875 11.46875 16.796875 
Q 13.875 16.796875 15.671875 14.0625 
Q 18.171875 10.359375 20.125 9.03125 
Q 24.265625 6.296875 32.171875 6.296875 
Q 39.75 6.296875 46.234375 9.578125 
Q 54.546875 13.765625 54.546875 21.234375 
Q 54.546875 27.390625 47.5625 30.953125 
Q 41.65625 34.03125 32.953125 34.28125 
Q 25.25 34.578125 19.828125 37.640625 
Q 12.890625 41.609375 12.890625 48.96875 
Q 12.890625 57.671875 22.75 64.84375 
Q 32.171875 71.625 42.234375 71.625 
Q 46.96875 71.625 52.9375 70.015625 
Q 60.84375 67.921875 60.84375 64.65625 
Q 60.84375 60.359375 56.453125 60.359375 
Q 54.5 60.359375 49.609375 61.40625 
Q 44.734375 62.453125 42.046875 62.40625 
Q 34.421875 62.3125 29.109375 58.640625 
Q 23.640625 54.890625 23.640625 49.515625 
Q 23.640625 45.453125 30.859375 43.796875 
Q 33.546875 43.171875 41.265625 42.625 
Q 52.4375 41.796875 58.734375 35.59375 
Q 64.5 29.9375 64.5 21.78125 
Q 64.5 10.15625 53.765625 3.21875 
Q 44.4375 -2.78125 32.125 -2.78125 
Q 23.1875 -2.78125 15.765625 0.640625 
Q 6.6875 4.828125 6.546875 12.15625 
z
" id="ComicSansMS-83"/>
      <path d="M 46.625 28.515625 
Q 46.625 25 46.671875 17.96875 
Q 46.734375 10.9375 46.734375 7.421875 
Q 46.734375 6.34375 46.90625 4.140625 
Q 47.078125 1.953125 47.078125 0.875 
Q 47.078125 -1.21875 45.65625 -2.5625 
Q 44.234375 -3.90625 42.1875 -3.90625 
Q 38.421875 -3.90625 37.40625 0.734375 
Q 31.296875 -2.4375 23.34375 -2.4375 
Q 16.9375 -2.4375 12.75 0.390625 
Q 8.109375 3.515625 7.234375 9.515625 
Q 5.328125 22.46875 5.328125 32.5625 
Q 5.328125 39.265625 6.78125 47.796875 
Q 7.46875 52.046875 11.421875 52.046875 
Q 13.53125 52.046875 14.9375 50.703125 
Q 16.359375 49.359375 16.359375 47.265625 
Q 16.359375 45.015625 15.640625 40.078125 
Q 14.9375 35.15625 14.9375 32.5625 
Q 14.9375 24.421875 15.46875 18.609375 
Q 16.015625 12.796875 17.09375 9.28125 
Q 18.703125 8.40625 20.265625 7.9375 
Q 21.828125 7.46875 23.34375 7.46875 
Q 29.890625 7.46875 37.15625 9.578125 
L 37.109375 19.484375 
L 37.015625 28.953125 
Q 37.015625 39.5 37.9375 47.265625 
Q 38.484375 51.765625 42.671875 51.765625 
Q 44.78125 51.765625 46.1875 50.390625 
Q 47.609375 49.03125 47.515625 46.96875 
z
" id="ComicSansMS-117"/>
      <path d="M 27.546875 -1.703125 
Q 22.65625 -1.703125 16.796875 -0.140625 
L 16.703125 -23.484375 
Q 16.703125 -25.640625 15.359375 -27 
Q 14.015625 -28.375 11.921875 -28.375 
Q 9.8125 -28.375 8.46875 -27 
Q 7.125 -25.640625 7.125 -23.484375 
L 7.28125 -3.953125 
L 7.28125 15.53125 
Q 7.125 26.21875 6.546875 35.015625 
L 5.8125 44.921875 
Q 5.8125 48.390625 7.078125 50.78125 
Q 8.546875 53.65625 11.328125 53.65625 
Q 13.234375 53.65625 14.53125 52.3125 
Q 15.828125 50.984375 15.828125 49.03125 
Q 15.828125 48.578125 15.671875 47.40625 
Q 15.4375 45.90625 15.328125 44.625 
Q 19.53125 47.515625 23.4375 48.953125 
Q 27.34375 50.390625 30.90625 50.390625 
Q 40.921875 50.390625 45.5625 41.5 
Q 49.21875 34.46875 49.21875 22.90625 
Q 49.21875 12.359375 43.5625 5.515625 
Q 37.546875 -1.703125 27.546875 -1.703125 
z
M 30.90625 40.625 
Q 26.421875 40.625 22.796875 38.625 
Q 20.21875 37.203125 16.265625 33.453125 
Q 16.890625 22.359375 16.890625 10.15625 
Q 22.21875 8.109375 27.546875 8.109375 
Q 33.640625 8.109375 36.859375 12.640625 
Q 39.65625 16.609375 39.65625 22.90625 
Q 39.65625 31.78125 37.46875 36.203125 
Q 35.296875 40.625 30.90625 40.625 
z
" id="ComicSansMS-112"/>
      <path d="M 19.1875 38.375 
L 18.453125 14.109375 
Q 18.453125 10.25 18.0625 2.78125 
Q 17.578125 -2.09375 13.28125 -2.09375 
Q 8.5 -2.09375 8.5 2.875 
Q 8.5 8.796875 9.03125 20.625 
Q 9.578125 32.46875 9.578125 38.375 
Q 9.578125 46.09375 9.8125 56.03125 
Q 10.0625 65.96875 10.0625 73.6875 
Q 10.0625 78.5625 14.84375 78.5625 
Q 19.671875 78.5625 19.671875 73.6875 
Q 19.671875 65.96875 19.421875 56.03125 
Q 19.1875 46.09375 19.1875 38.375 
z
" id="ComicSansMS-108"/>
      <path d="M 49.359375 43.5625 
L 32.46875 7.03125 
Q 26.21875 -6.296875 22.90625 -15.28125 
L 19.671875 -24.75 
Q 18.40625 -28.265625 15.28125 -28.265625 
Q 13.234375 -28.265625 11.734375 -26.921875 
Q 10.25 -25.59375 10.25 -23.578125 
Q 10.25 -18.703125 20.796875 4.6875 
L 3.328125 38.328125 
L 1.125 41.890625 
Q -0.203125 44.140625 -0.203125 45.65625 
Q -0.203125 47.65625 1.328125 49.171875 
Q 2.875 50.6875 4.78125 50.6875 
Q 7.03125 50.6875 8.25 48.96875 
Q 16.546875 37.453125 26.078125 16.15625 
L 33.296875 33.015625 
Q 37.203125 41.75 40.828125 48.046875 
Q 42.390625 50.78125 44.921875 50.78125 
Q 46.921875 50.78125 48.453125 49.359375 
Q 50 47.953125 50 46 
Q 50 44.921875 49.359375 43.5625 
z
" id="ComicSansMS-121"/>
      <path id="ComicSansMS-32"/>
      <path d="M 39.15625 -2.984375 
Q 25.390625 -2.984375 15.828125 5.28125 
Q 5.671875 14.0625 5.671875 27.9375 
Q 5.671875 44.828125 15.671875 58.640625 
Q 26.859375 73.96875 43.5625 73.96875 
Q 59.625 73.96875 67.4375 66.75 
Q 75.59375 59.234375 75.59375 43.015625 
Q 75.59375 26.125 66.40625 12.546875 
Q 55.859375 -2.984375 39.15625 -2.984375 
z
M 43.5625 63.96875 
Q 31.59375 63.96875 23.296875 52.046875 
Q 15.625 41.109375 15.625 27.9375 
Q 15.625 18.5 22.609375 12.59375 
Q 29.296875 7.03125 39.15625 7.03125 
Q 51.03125 7.03125 58.734375 19 
Q 65.625 29.6875 65.625 43.015625 
Q 65.625 54.6875 60.40625 59.421875 
Q 55.421875 63.96875 43.5625 63.96875 
z
" id="ComicSansMS-79"/>
      <path d="M 29.296875 2.546875 
Q 29.15625 -1.953125 24.859375 -1.953125 
Q 21.296875 -1.953125 19.671875 2.25 
L 12.203125 22.078125 
L 3.515625 44.484375 
Q 3.03125 45.75 3.03125 46.734375 
Q 3.03125 48.734375 4.546875 50.140625 
Q 6.0625 51.5625 8.0625 51.5625 
Q 10.984375 51.5625 12.25 48.578125 
L 24.65625 14.453125 
Q 28.328125 22.265625 33.890625 37.109375 
Q 35.203125 41.015625 38.03125 48.140625 
Q 39.546875 51.265625 42.328125 51.265625 
Q 44.34375 51.265625 45.84375 49.84375 
Q 47.359375 48.4375 47.359375 46.484375 
Q 47.359375 44.625 39.3125 25.59375 
z
" id="ComicSansMS-118"/>
      <path d="M 44.78125 36.078125 
Q 44.4375 29.984375 39.890625 29.984375 
Q 35.6875 29.984375 35.6875 34.8125 
Q 35.6875 35.75 35.546875 38.234375 
L 35.40625 42.328125 
Q 27.6875 41.40625 23.046875 37.984375 
Q 18.703125 34.8125 15.828125 28.421875 
L 15.921875 1.65625 
Q 15.921875 -3.265625 11.078125 -3.265625 
Q 6.78125 -3.265625 6.78125 1.65625 
L 6.78125 35.9375 
Q 6.78125 37.546875 6.90625 40.765625 
Q 7.03125 44 7.03125 45.609375 
Q 7.03125 50.53125 11.328125 50.53125 
Q 16.109375 50.53125 16.15625 42.4375 
Q 25.53125 51.46875 36.96875 51.46875 
Q 40.921875 51.46875 42.875 48.484375 
Q 44.828125 45.515625 44.828125 39.5 
Q 44.828125 36.96875 44.78125 36.078125 
z
" id="ComicSansMS-114"/>
      <path d="M 66.5 61.671875 
Q 62.890625 61.671875 55.375 62.25 
Q 48.046875 62.796875 44.234375 62.75 
L 40.765625 62.75 
Q 40.921875 56 42.09375 40.875 
Q 43.171875 26.765625 43.171875 18.953125 
Q 43.171875 17.234375 43.5 13.765625 
Q 43.84375 10.296875 43.84375 8.546875 
Q 43.84375 5.21875 42.78125 2.828125 
Q 41.40625 -0.390625 38.53125 -0.390625 
Q 36.578125 -0.390625 35.015625 0.96875 
Q 33.453125 2.34375 33.453125 4.5 
Q 33.453125 5.21875 33.6875 6.6875 
Q 33.9375 8.15625 33.9375 8.890625 
Q 33.9375 11.28125 33.609375 16.0625 
Q 33.296875 20.84375 33.296875 23.296875 
Q 33.296875 30.28125 32.171875 42.921875 
Q 31 56.59375 30.859375 62.546875 
L 26.421875 62.5 
Q 15.71875 62.5 9.625 64.0625 
Q 5.671875 65.09375 5.671875 68.890625 
Q 5.671875 70.90625 6.9375 72.40625 
Q 8.40625 74.125 10.6875 73.96875 
Q 12.40625 73.875 18.5 73.09375 
Q 23.390625 72.515625 26.421875 72.515625 
Q 29.34375 72.515625 35.296875 72.625 
Q 41.265625 72.75 44.1875 72.75 
Q 47.953125 72.75 55.34375 72.21875 
Q 62.75 71.6875 66.5 71.6875 
Q 68.609375 71.6875 70.015625 70.234375 
Q 71.4375 68.796875 71.4375 66.65625 
Q 71.4375 64.546875 70.015625 63.109375 
Q 68.609375 61.671875 66.5 61.671875 
z
" id="ComicSansMS-84"/>
      <path d="M 16.109375 61.8125 
Q 13.765625 61.8125 12.0625 63.46875 
Q 10.359375 65.140625 10.359375 67.484375 
Q 10.359375 69.828125 12.0625 71.484375 
Q 13.765625 73.140625 16.109375 73.140625 
Q 18.453125 73.140625 20.140625 71.484375 
Q 21.828125 69.828125 21.828125 67.484375 
Q 21.828125 65.140625 20.140625 63.46875 
Q 18.453125 61.8125 16.109375 61.8125 
z
M 18.3125 22.171875 
Q 18.3125 19.234375 18.484375 13.390625 
Q 18.65625 7.5625 18.65625 4.640625 
Q 18.65625 2.484375 17.328125 1.109375 
Q 16.015625 -0.25 13.875 -0.25 
Q 11.765625 -0.25 10.421875 1.109375 
Q 9.078125 2.484375 9.078125 4.640625 
Q 9.078125 7.5625 8.90625 13.390625 
Q 8.734375 19.234375 8.734375 22.171875 
Q 8.734375 26.765625 9.21875 33.625 
Q 9.71875 40.484375 9.71875 45.0625 
Q 9.71875 47.265625 11.0625 48.625 
Q 12.40625 50 14.5 50 
Q 16.609375 50 17.9375 48.625 
Q 19.28125 47.265625 19.28125 45.0625 
Q 19.28125 40.484375 18.796875 33.625 
Q 18.3125 26.765625 18.3125 22.171875 
z
" id="ComicSansMS-105"/>
      <path d="M 68.796875 -4.046875 
Q 64.796875 -4.046875 64.109375 0.203125 
Q 63.234375 5.5625 62.359375 15.328125 
L 60.6875 30.46875 
Q 60.203125 33.84375 59.03125 37.0625 
Q 57.375 41.453125 55.421875 41.453125 
Q 53.609375 41.453125 48.6875 38.375 
Q 44 35.546875 42.53125 33.84375 
Q 42.484375 29.25 42.78125 24.65625 
L 44.234375 11.625 
Q 45.171875 3.90625 45.171875 -1.125 
Q 45.171875 -3.265625 43.828125 -4.65625 
Q 42.484375 -6.0625 40.375 -6.0625 
Q 38.28125 -6.0625 36.9375 -4.65625 
Q 35.59375 -3.265625 35.59375 -1.125 
Q 35.59375 4.78125 34.390625 16.328125 
Q 33.203125 27.875 33.203125 33.796875 
Q 33.203125 38.96875 31.734375 41.84375 
Q 28.328125 40.28125 24.8125 36.765625 
L 19.046875 30.328125 
Q 18.265625 29.15625 16.546875 27.25 
Q 16.546875 24.3125 16.015625 18.59375 
Q 15.484375 12.890625 15.484375 10.15625 
Q 15.484375 8.6875 15.9375 6.046875 
Q 16.40625 3.421875 16.40625 2.25 
Q 16.40625 0.25 14.90625 -1.109375 
Q 13.421875 -2.484375 11.421875 -2.484375 
Q 5.90625 -2.484375 5.90625 10.0625 
Q 5.90625 12.984375 6.4375 18.796875 
Q 6.984375 24.609375 6.984375 27.546875 
Q 6.984375 30.125 6.515625 35.296875 
Q 6.0625 40.484375 6.0625 43.109375 
Q 6.0625 54.203125 11.03125 54.203125 
Q 12.9375 54.203125 14.515625 52.53125 
Q 16.109375 50.875 16.109375 48.921875 
Q 16.109375 48 15.859375 46.046875 
Q 15.625 44.09375 15.625 43.0625 
L 15.71875 37.9375 
Q 18.265625 43.171875 23.1875 47.390625 
Q 28.125 51.609375 31.59375 51.609375 
Q 39.265625 51.609375 42.140625 44 
Q 44.828125 47.5625 48.53125 49.34375 
Q 52.25 51.125 57.03125 51.125 
Q 65.1875 51.125 68.171875 42.328125 
Q 68.75 40.578125 70.171875 28.609375 
Q 71.53125 20.21875 73.6875 0.640625 
Q 73.828125 -1.3125 72.359375 -2.671875 
Q 70.90625 -4.046875 68.796875 -4.046875 
z
" id="ComicSansMS-109"/>
     </defs>
     <use xlink:href="#ComicSansMS-83"/>
     <use x="69.335938" xlink:href="#ComicSansMS-117"/>
     <use x="121.337891" xlink:href="#ComicSansMS-112"/>
     <use x="174.804688" xlink:href="#ComicSansMS-112"/>
     <use x="228.271484" xlink:href="#ComicSansMS-108"/>
     <use x="255.664062" xlink:href="#ComicSansMS-121"/>
     <use x="307.714844" xlink:href="#ComicSansMS-32"/>
     <use x="337.597656" xlink:href="#ComicSansMS-79"/>
     <use x="417.431641" xlink:href="#ComicSansMS-118"/>
     <use x="466.064453" xlink:href="#ComicSansMS-101"/>
     <use x="520.849609" xlink:href="#ComicSansMS-114"/>
     <use x="568.896484" xlink:href="#ComicSansMS-32"/>
     <use x="598.779297" xlink:href="#ComicSansMS-84"/>
     <use x="666.748047" xlink:href="#ComicSansMS-105"/>
     <use x="694.775391" xlink:href="#ComicSansMS-109"/>
     <use x="772.460938" xlink:href="#ComicSansMS-101"/>
    </g>
   </g>
  </g>
 </g>
 <defs>
  <clipPath id="p21d2c5748d">
   <rect height="332.64" width="446.4" x="72" y="51.84"/>
  </clipPath>
 </defs>
</svg>
