<?xml version="1.0" encoding="utf-8" standalone="no"?>
<!DOCTYPE svg PUBLIC "-//W3C//DTD SVG 1.1//EN"
  "http://www.w3.org/Graphics/SVG/1.1/DTD/svg11.dtd">
<svg height="432pt" version="1.1" viewBox="0 0 576 432" width="576pt" xmlns="http://www.w3.org/2000/svg" xmlns:xlink="http://www.w3.org/1999/xlink">
 <metadata>
  <rdf:RDF xmlns:cc="http://creativecommons.org/ns#" xmlns:dc="http://purl.org/dc/elements/1.1/" xmlns:rdf="http://www.w3.org/1999/02/22-rdf-syntax-ns#">
   <cc:Work>
    <dc:type rdf:resource="http://purl.org/dc/dcmitype/StillImage"/>
    <dc:date>2021-08-10T23:47:35.678058</dc:date>
    <dc:format>image/svg+xml</dc:format>
    <dc:creator>
     <cc:Agent>
      <dc:title>Matplotlib v3.4.2, https://matplotlib.org/</dc:title>
     </cc:Agent>
    </dc:creator>
   </cc:Work>
  </rdf:RDF>
 </metadata>
 <defs>
  <style type="text/css">*{stroke-linecap:butt;stroke-linejoin:round;}</style>
 </defs>
 <g id="figure_1">
  <g id="patch_1">
   <path d="M 0 432 
L 576 432 
L 576 0 
L 0 0 
z
" style="fill:none;"/>
  </g>
  <g id="axes_1">
   <g id="patch_2">
    <path d="M 72 384.48 
L 518.4 384.48 
L 518.4 51.84 
L 72 51.84 
z
" style="fill:none;"/>
   </g>
   <g id="PolyCollection_1">
    <path clip-path="url(#p77c6d86918)" d="M 92.290909 369.36 
L 92.290909 369.19348 
L 94.492454 367.195242 
L 97.427848 367.528282 
L 98.161697 366.362643 
L 101.09709 366.196123 
L 104.032484 365.863084 
L 104.766332 365.363524 
L 107.701726 365.530044 
L 108.435575 367.195242 
L 109.169423 366.695683 
L 109.903271 364.364405 
L 112.838665 364.197885 
L 116.507907 364.031366 
L 118.709453 363.864846 
L 121.644846 362.699207 
L 124.58024 359.53533 
L 127.515634 356.371454 
L 130.451027 355.871894 
L 134.854118 355.705374 
L 136.321815 355.205815 
L 138.52336 353.873656 
L 141.458754 355.538855 
L 142.192602 353.873656 
L 142.926451 355.538855 
L 143.660299 354.206696 
L 146.595693 353.873656 
L 149.531087 353.374097 
L 152.46648 352.874537 
L 154.668026 352.708018 
L 159.071116 352.541498 
L 162.00651 342.883348 
L 164.941904 340.219031 
L 167.877297 340.052511 
L 168.611146 338.553833 
L 171.54654 338.720352 
L 172.280388 338.387313 
L 175.215782 336.722115 
L 180.352721 336.888634 
L 181.086569 336.722115 
L 181.820418 334.224317 
L 184.755811 333.724758 
L 187.691205 333.558238 
L 189.158902 331.39348 
L 192.094296 331.060441 
L 195.029689 331.22696 
L 195.763538 330.727401 
L 198.698931 328.229604 
L 201.634325 327.730044 
L 203.83587 319.903612 
L 206.771264 319.404053 
L 207.505113 313.908899 
L 210.440506 313.575859 
L 211.908203 312.90978 
L 214.843597 311.910661 
L 217.778991 311.744141 
L 219.980536 310.078943 
L 222.91593 309.745903 
L 225.117475 307.081586 
L 228.052869 303.25163 
L 230.988262 300.920352 
L 233.923656 300.753833 
L 235.391353 298.755595 
L 239.060595 296.923877 
L 242.729837 297.756476 
L 243.463686 295.758238 
L 247.132928 294.925639 
L 250.80217 290.429604 
L 256.672957 290.762643 
L 257.406806 291.095683 
L 258.140654 290.263084 
L 258.874503 286.599648 
L 261.809896 284.26837 
L 265.479139 282.603172 
L 268.414532 282.436652 
L 270.616078 281.770573 
L 273.551471 279.605815 
L 277.220713 274.77674 
L 280.156107 272.278943 
L 284.559198 269.947665 
L 288.962288 269.614626 
L 291.897682 268.115947 
L 296.300773 263.453392 
L 299.236166 260.289515 
L 302.17156 253.795242 
L 305.106954 253.462203 
L 306.574651 252.629604 
L 309.510044 248.466608 
L 312.445438 246.96793 
L 316.11468 247.300969 
L 316.848529 248.133568 
L 317.582377 247.800529 
L 318.316226 243.304493 
L 321.251619 242.305374 
L 324.187013 238.808458 
L 327.122407 237.14326 
L 330.791649 233.646344 
L 333.727043 233.479824 
L 335.194739 229.316828 
L 338.863982 225.653392 
L 341.799375 225.486872 
L 346.202466 223.821674 
L 349.13786 220.491278 
L 352.073253 219.825198 
L 355.008647 217.99348 
L 358.677889 216.827841 
L 361.613283 166.871894 
L 362.347131 167.204934 
L 363.08098 168.870132 
L 363.814828 169.036652 
L 364.548677 167.704493 
L 367.48407 166.705374 
L 370.419464 165.539736 
L 373.354858 164.374097 
L 376.290252 166.039295 
L 377.0241 166.871894 
L 377.757948 150.219912 
L 378.491797 116.915947 
L 379.225645 66.96 
L 379.959494 140.894802 
L 380.693342 141.394361 
L 381.427191 139.229604 
L 384.362584 136.398767 
L 387.297978 135.899207 
L 390.233372 135.566167 
L 393.168765 133.40141 
L 396.104159 131.403172 
L 399.039553 129.238414 
L 401.974947 128.905374 
L 404.91034 126.241057 
L 407.845734 125.908018 
L 410.781128 125.075419 
L 413.716521 124.742379 
L 418.85346 119.746784 
L 421.788854 119.580264 
L 424.724248 104.76 
L 427.659642 104.42696 
L 430.595035 102.428722 
L 433.530429 102.262203 
L 434.998126 99.764405 
L 437.93352 99.098326 
L 440.868913 98.265727 
L 443.804307 96.767048 
L 446.739701 96.600529 
L 448.207398 96.267489 
L 451.142791 93.936211 
L 454.078185 93.103612 
L 457.013579 92.937093 
L 459.215124 109.589075 
L 459.948973 108.423436 
L 462.884366 108.256916 
L 465.085912 107.757357 
L 468.021305 105.09304 
L 470.956699 104.59348 
L 473.892093 103.927401 
L 476.827486 102.928282 
L 481.964425 102.262203 
L 485.633668 101.596123 
L 489.30291 101.429604 
L 490.036758 100.763524 
L 495.173697 99.764405 
L 498.109091 95.10185 
L 498.109091 369.36 
L 498.109091 369.36 
L 495.173697 369.36 
L 490.036758 369.36 
L 489.30291 369.36 
L 485.633668 369.36 
L 481.964425 369.36 
L 476.827486 369.36 
L 473.892093 369.36 
L 470.956699 369.36 
L 468.021305 369.36 
L 465.085912 369.36 
L 462.884366 369.36 
L 459.948973 369.36 
L 459.215124 369.36 
L 457.013579 369.36 
L 454.078185 369.36 
L 451.142791 369.36 
L 448.207398 369.36 
L 446.739701 369.36 
L 443.804307 369.36 
L 440.868913 369.36 
L 437.93352 369.36 
L 434.998126 369.36 
L 433.530429 369.36 
L 430.595035 369.36 
L 427.659642 369.36 
L 424.724248 369.36 
L 421.788854 369.36 
L 418.85346 369.36 
L 413.716521 369.36 
L 410.781128 369.36 
L 407.845734 369.36 
L 404.91034 369.36 
L 401.974947 369.36 
L 399.039553 369.36 
L 396.104159 369.36 
L 393.168765 369.36 
L 390.233372 369.36 
L 387.297978 369.36 
L 384.362584 369.36 
L 381.427191 369.36 
L 380.693342 369.36 
L 379.959494 369.36 
L 379.225645 369.36 
L 378.491797 369.36 
L 377.757948 369.36 
L 377.0241 369.36 
L 376.290252 369.36 
L 373.354858 369.36 
L 370.419464 369.36 
L 367.48407 369.36 
L 364.548677 369.36 
L 363.814828 369.36 
L 363.08098 369.36 
L 362.347131 369.36 
L 361.613283 369.36 
L 358.677889 369.36 
L 355.008647 369.36 
L 352.073253 369.36 
L 349.13786 369.36 
L 346.202466 369.36 
L 341.799375 369.36 
L 338.863982 369.36 
L 335.194739 369.36 
L 333.727043 369.36 
L 330.791649 369.36 
L 327.122407 369.36 
L 324.187013 369.36 
L 321.251619 369.36 
L 318.316226 369.36 
L 317.582377 369.36 
L 316.848529 369.36 
L 316.11468 369.36 
L 312.445438 369.36 
L 309.510044 369.36 
L 306.574651 369.36 
L 305.106954 369.36 
L 302.17156 369.36 
L 299.236166 369.36 
L 296.300773 369.36 
L 291.897682 369.36 
L 288.962288 369.36 
L 284.559198 369.36 
L 280.156107 369.36 
L 277.220713 369.36 
L 273.551471 369.36 
L 270.616078 369.36 
L 268.414532 369.36 
L 265.479139 369.36 
L 261.809896 369.36 
L 258.874503 369.36 
L 258.140654 369.36 
L 257.406806 369.36 
L 256.672957 369.36 
L 250.80217 369.36 
L 247.132928 369.36 
L 243.463686 369.36 
L 242.729837 369.36 
L 239.060595 369.36 
L 235.391353 369.36 
L 233.923656 369.36 
L 230.988262 369.36 
L 228.052869 369.36 
L 225.117475 369.36 
L 222.91593 369.36 
L 219.980536 369.36 
L 217.778991 369.36 
L 214.843597 369.36 
L 211.908203 369.36 
L 210.440506 369.36 
L 207.505113 369.36 
L 206.771264 369.36 
L 203.83587 369.36 
L 201.634325 369.36 
L 198.698931 369.36 
L 195.763538 369.36 
L 195.029689 369.36 
L 192.094296 369.36 
L 189.158902 369.36 
L 187.691205 369.36 
L 184.755811 369.36 
L 181.820418 369.36 
L 181.086569 369.36 
L 180.352721 369.36 
L 175.215782 369.36 
L 172.280388 369.36 
L 171.54654 369.36 
L 168.611146 369.36 
L 167.877297 369.36 
L 164.941904 369.36 
L 162.00651 369.36 
L 159.071116 369.36 
L 154.668026 369.36 
L 152.46648 369.36 
L 149.531087 369.36 
L 146.595693 369.36 
L 143.660299 369.36 
L 142.926451 369.36 
L 142.192602 369.36 
L 141.458754 369.36 
L 138.52336 369.36 
L 136.321815 369.36 
L 134.854118 369.36 
L 130.451027 369.36 
L 127.515634 369.36 
L 124.58024 369.36 
L 121.644846 369.36 
L 118.709453 369.36 
L 116.507907 369.36 
L 112.838665 369.36 
L 109.903271 369.36 
L 109.169423 369.36 
L 108.435575 369.36 
L 107.701726 369.36 
L 104.766332 369.36 
L 104.032484 369.36 
L 101.09709 369.36 
L 98.161697 369.36 
L 97.427848 369.36 
L 94.492454 369.36 
L 92.290909 369.36 
z
" style="fill:#ff028d;"/>
   </g>
   <g id="matplotlib.axis_1">
    <g id="xtick_1">
     <g id="line2d_1">
      <defs>
       <path d="M 0 0 
L 0 3.5 
" id="m562f663889" style="stroke:#ffffff;stroke-width:0.8;"/>
      </defs>
      <g>
       <use style="fill:#ffffff;stroke:#ffffff;stroke-width:0.8;" x="92.290909" xlink:href="#m562f663889" y="384.48"/>
      </g>
     </g>
     <g id="text_1">
      <!-- 0 -->
      <g style="fill:#ffffff;" transform="translate(89.109659 399.078438)scale(0.1 -0.1)">
       <defs>
        <path d="M 2034 4250 
Q 1547 4250 1301 3770 
Q 1056 3291 1056 2328 
Q 1056 1369 1301 889 
Q 1547 409 2034 409 
Q 2525 409 2770 889 
Q 3016 1369 3016 2328 
Q 3016 3291 2770 3770 
Q 2525 4250 2034 4250 
z
M 2034 4750 
Q 2819 4750 3233 4129 
Q 3647 3509 3647 2328 
Q 3647 1150 3233 529 
Q 2819 -91 2034 -91 
Q 1250 -91 836 529 
Q 422 1150 422 2328 
Q 422 3509 836 4129 
Q 1250 4750 2034 4750 
z
" id="DejaVuSans-30" transform="scale(0.015625)"/>
       </defs>
       <use xlink:href="#DejaVuSans-30"/>
      </g>
     </g>
    </g>
    <g id="xtick_2">
     <g id="line2d_2">
      <g>
       <use style="fill:#ffffff;stroke:#ffffff;stroke-width:0.8;" x="202.368174" xlink:href="#m562f663889" y="384.48"/>
      </g>
     </g>
     <g id="text_2">
      <!-- 150 -->
      <g style="fill:#ffffff;" transform="translate(192.824424 399.078438)scale(0.1 -0.1)">
       <defs>
        <path d="M 794 531 
L 1825 531 
L 1825 4091 
L 703 3866 
L 703 4441 
L 1819 4666 
L 2450 4666 
L 2450 531 
L 3481 531 
L 3481 0 
L 794 0 
L 794 531 
z
" id="DejaVuSans-31" transform="scale(0.015625)"/>
        <path d="M 691 4666 
L 3169 4666 
L 3169 4134 
L 1269 4134 
L 1269 2991 
Q 1406 3038 1543 3061 
Q 1681 3084 1819 3084 
Q 2600 3084 3056 2656 
Q 3513 2228 3513 1497 
Q 3513 744 3044 326 
Q 2575 -91 1722 -91 
Q 1428 -91 1123 -41 
Q 819 9 494 109 
L 494 744 
Q 775 591 1075 516 
Q 1375 441 1709 441 
Q 2250 441 2565 725 
Q 2881 1009 2881 1497 
Q 2881 1984 2565 2268 
Q 2250 2553 1709 2553 
Q 1456 2553 1204 2497 
Q 953 2441 691 2322 
L 691 4666 
z
" id="DejaVuSans-35" transform="scale(0.015625)"/>
       </defs>
       <use xlink:href="#DejaVuSans-31"/>
       <use x="63.623047" xlink:href="#DejaVuSans-35"/>
       <use x="127.246094" xlink:href="#DejaVuSans-30"/>
      </g>
     </g>
    </g>
    <g id="xtick_3">
     <g id="line2d_3">
      <g>
       <use style="fill:#ffffff;stroke:#ffffff;stroke-width:0.8;" x="312.445438" xlink:href="#m562f663889" y="384.48"/>
      </g>
     </g>
     <g id="text_3">
      <!-- 300 -->
      <g style="fill:#ffffff;" transform="translate(302.901688 399.078438)scale(0.1 -0.1)">
       <defs>
        <path d="M 2597 2516 
Q 3050 2419 3304 2112 
Q 3559 1806 3559 1356 
Q 3559 666 3084 287 
Q 2609 -91 1734 -91 
Q 1441 -91 1130 -33 
Q 819 25 488 141 
L 488 750 
Q 750 597 1062 519 
Q 1375 441 1716 441 
Q 2309 441 2620 675 
Q 2931 909 2931 1356 
Q 2931 1769 2642 2001 
Q 2353 2234 1838 2234 
L 1294 2234 
L 1294 2753 
L 1863 2753 
Q 2328 2753 2575 2939 
Q 2822 3125 2822 3475 
Q 2822 3834 2567 4026 
Q 2313 4219 1838 4219 
Q 1578 4219 1281 4162 
Q 984 4106 628 3988 
L 628 4550 
Q 988 4650 1302 4700 
Q 1616 4750 1894 4750 
Q 2613 4750 3031 4423 
Q 3450 4097 3450 3541 
Q 3450 3153 3228 2886 
Q 3006 2619 2597 2516 
z
" id="DejaVuSans-33" transform="scale(0.015625)"/>
       </defs>
       <use xlink:href="#DejaVuSans-33"/>
       <use x="63.623047" xlink:href="#DejaVuSans-30"/>
       <use x="127.246094" xlink:href="#DejaVuSans-30"/>
      </g>
     </g>
    </g>
    <g id="xtick_4">
     <g id="line2d_4">
      <g>
       <use style="fill:#ffffff;stroke:#ffffff;stroke-width:0.8;" x="422.522703" xlink:href="#m562f663889" y="384.48"/>
      </g>
     </g>
     <g id="text_4">
      <!-- 450 -->
      <g style="fill:#ffffff;" transform="translate(412.978953 399.078438)scale(0.1 -0.1)">
       <defs>
        <path d="M 2419 4116 
L 825 1625 
L 2419 1625 
L 2419 4116 
z
M 2253 4666 
L 3047 4666 
L 3047 1625 
L 3713 1625 
L 3713 1100 
L 3047 1100 
L 3047 0 
L 2419 0 
L 2419 1100 
L 313 1100 
L 313 1709 
L 2253 4666 
z
" id="DejaVuSans-34" transform="scale(0.015625)"/>
       </defs>
       <use xlink:href="#DejaVuSans-34"/>
       <use x="63.623047" xlink:href="#DejaVuSans-35"/>
       <use x="127.246094" xlink:href="#DejaVuSans-30"/>
      </g>
     </g>
    </g>
    <g id="text_5">
     <!-- # Of Trades -->
     <g style="fill:#ffffff;" transform="translate(258.953438 414.585625)scale(0.12 -0.12)">
      <defs>
       <path d="M 1725 1803 
L 3288 1803 
L 3641 3100 
L 2116 3100 
L 1725 1803 
z
M 1141 1803 
L 1522 3100 
L 688 3100 
Q 391 3100 391 3413 
Q 391 3650 853 3650 
L 1678 3650 
Q 1759 4013 1925 4638 
Q 2016 4925 2291 4925 
Q 2394 4925 2461 4842 
Q 2528 4759 2528 4659 
Q 2528 4534 2447 4247 
Q 2309 3750 2288 3650 
L 3803 3650 
Q 3909 4028 4094 4659 
Q 4175 4925 4400 4925 
Q 4663 4925 4663 4681 
Q 4663 4469 4403 3650 
L 5013 3650 
Q 5331 3650 5331 3416 
Q 5331 3088 4978 3088 
Q 4931 3088 4832 3094 
Q 4734 3100 4688 3100 
L 4231 3100 
L 3900 1803 
L 4538 1803 
Q 4766 1803 4859 1769 
Q 5022 1706 5022 1519 
Q 5022 1231 4750 1231 
L 3744 1231 
L 3463 216 
Q 3378 -88 3113 -88 
Q 2856 -88 2856 159 
Q 2856 344 2959 697 
Q 3103 1188 3113 1231 
L 1550 1231 
Q 1456 866 1222 156 
Q 1131 -66 916 -66 
Q 666 -66 666 181 
Q 666 303 738 534 
Q 847 884 956 1231 
L 359 1231 
Q 100 1231 100 1541 
Q 100 1663 206 1738 
Q 297 1803 425 1803 
L 1141 1803 
z
" id="ComicSansMS-23" transform="scale(0.015625)"/>
       <path id="ComicSansMS-20" transform="scale(0.015625)"/>
       <path d="M 2506 -191 
Q 1625 -191 1013 338 
Q 363 900 363 1788 
Q 363 2869 1003 3753 
Q 1719 4734 2788 4734 
Q 3816 4734 4316 4272 
Q 4838 3791 4838 2753 
Q 4838 1672 4250 803 
Q 3575 -191 2506 -191 
z
M 2788 4094 
Q 2022 4094 1491 3331 
Q 1000 2631 1000 1788 
Q 1000 1184 1447 806 
Q 1875 450 2506 450 
Q 3266 450 3759 1216 
Q 4200 1900 4200 2753 
Q 4200 3500 3866 3803 
Q 3547 4094 2788 4094 
z
" id="ComicSansMS-4f" transform="scale(0.015625)"/>
       <path d="M 2534 4394 
Q 1778 4394 1688 3344 
L 1678 3150 
Q 2209 3188 2366 3188 
Q 2863 3188 2863 2875 
Q 2863 2647 2619 2603 
Q 2513 2584 2370 2589 
Q 2228 2594 1650 2547 
L 1625 1834 
Q 1625 1641 1637 1253 
Q 1650 866 1650 675 
Q 1650 81 1581 -250 
Q 1528 -500 1291 -500 
Q 1163 -500 1072 -417 
Q 981 -334 981 -209 
Q 981 -184 988 -147 
Q 1053 259 1053 738 
L 1044 1591 
L 1044 2497 
Q 653 2466 550 2466 
Q 234 2466 234 2769 
Q 234 3078 781 3094 
L 1081 3103 
Q 1091 3278 1128 3578 
Q 1209 4272 1478 4600 
Q 1803 4997 2494 4997 
Q 2941 4997 2941 4694 
Q 2941 4394 2534 4394 
z
" id="ComicSansMS-66" transform="scale(0.015625)"/>
       <path d="M 4256 3947 
Q 4025 3947 3544 3984 
Q 3075 4019 2831 4016 
L 2609 4016 
Q 2619 3584 2694 2616 
Q 2763 1713 2763 1213 
Q 2763 1103 2784 881 
Q 2806 659 2806 547 
Q 2806 334 2738 181 
Q 2650 -25 2466 -25 
Q 2341 -25 2241 62 
Q 2141 150 2141 288 
Q 2141 334 2156 428 
Q 2172 522 2172 569 
Q 2172 722 2151 1028 
Q 2131 1334 2131 1491 
Q 2131 1938 2059 2747 
Q 1984 3622 1975 4003 
L 1691 4000 
Q 1006 4000 616 4100 
Q 363 4166 363 4409 
Q 363 4538 444 4634 
Q 538 4744 684 4734 
Q 794 4728 1184 4678 
Q 1497 4641 1691 4641 
Q 1878 4641 2259 4648 
Q 2641 4656 2828 4656 
Q 3069 4656 3542 4622 
Q 4016 4588 4256 4588 
Q 4391 4588 4481 4495 
Q 4572 4403 4572 4266 
Q 4572 4131 4481 4039 
Q 4391 3947 4256 3947 
z
" id="ComicSansMS-54" transform="scale(0.015625)"/>
       <path d="M 2866 2309 
Q 2844 1919 2553 1919 
Q 2284 1919 2284 2228 
Q 2284 2288 2275 2447 
L 2266 2709 
Q 1772 2650 1475 2431 
Q 1197 2228 1013 1819 
L 1019 106 
Q 1019 -209 709 -209 
Q 434 -209 434 106 
L 434 2300 
Q 434 2403 442 2609 
Q 450 2816 450 2919 
Q 450 3234 725 3234 
Q 1031 3234 1034 2716 
Q 1634 3294 2366 3294 
Q 2619 3294 2744 3103 
Q 2869 2913 2869 2528 
Q 2869 2366 2866 2309 
z
" id="ComicSansMS-72" transform="scale(0.015625)"/>
       <path d="M 2875 -206 
Q 2816 -206 2659 -69 
Q 2519 59 2450 159 
Q 2150 -3 1922 -86 
Q 1694 -169 1541 -169 
Q 809 -169 475 244 
Q 159 631 159 1431 
Q 159 2188 679 2725 
Q 1200 3263 1922 3263 
Q 2194 3263 2531 3122 
Q 2956 2947 2956 2700 
Q 2956 2616 2894 2550 
Q 2863 2431 2845 2159 
Q 2828 1888 2825 1463 
Q 2822 1075 2878 850 
Q 2909 713 3075 300 
Q 3097 244 3147 134 
L 3166 81 
Q 3166 -44 3078 -125 
Q 2991 -206 2875 -206 
z
M 2225 1966 
Q 2225 2100 2242 2258 
Q 2259 2416 2294 2594 
Q 2178 2653 2095 2681 
Q 2013 2709 1963 2709 
Q 1478 2709 1126 2314 
Q 775 1919 775 1403 
Q 775 891 956 634 
Q 1138 378 1500 378 
Q 1800 378 2009 488 
Q 2122 547 2325 725 
Q 2225 1553 2225 1966 
z
" id="ComicSansMS-61" transform="scale(0.015625)"/>
       <path d="M 3313 2759 
Q 3275 2300 3275 1841 
Q 3275 800 3372 269 
Q 3378 225 3378 197 
Q 3378 72 3290 -9 
Q 3203 -91 3088 -91 
Q 2894 -91 2803 191 
Q 2578 25 2336 -59 
Q 2094 -144 1831 -144 
Q 1184 -144 759 288 
Q 322 728 322 1419 
Q 322 2253 764 2756 
Q 1206 3259 1913 3259 
Q 2275 3259 2472 3147 
L 2766 2931 
Q 2809 4247 2869 4703 
Q 2909 4981 3153 4981 
Q 3438 4981 3438 4678 
Q 3438 4244 3313 2759 
z
M 1925 2678 
Q 1400 2678 1137 2367 
Q 875 2056 875 1431 
Q 875 1028 1161 737 
Q 1447 447 1831 447 
Q 2094 447 2275 544 
Q 2381 600 2622 803 
Q 2669 844 2713 900 
L 2703 1441 
L 2706 1803 
L 2713 2172 
Q 2594 2425 2397 2551 
Q 2200 2678 1925 2678 
z
" id="ComicSansMS-64" transform="scale(0.015625)"/>
       <path d="M 1894 -144 
Q 1188 -144 750 209 
Q 272 600 272 1303 
Q 272 2116 666 2666 
Q 1094 3266 1809 3266 
Q 2328 3266 2656 3091 
Q 3059 2875 3059 2428 
Q 3059 2116 2706 1859 
Q 2550 1747 2044 1509 
L 850 944 
Q 1025 684 1286 553 
Q 1547 422 1894 422 
Q 2109 422 2400 503 
Q 2769 606 2875 773 
Q 2981 941 3103 941 
Q 3213 941 3298 858 
Q 3384 775 3384 666 
Q 3384 319 2825 69 
Q 2347 -144 1894 -144 
z
M 1809 2703 
Q 1428 2703 1175 2408 
Q 922 2113 797 1519 
L 1756 1975 
Q 2322 2250 2563 2453 
Q 2294 2703 1809 2703 
z
" id="ComicSansMS-65" transform="scale(0.015625)"/>
       <path d="M 2544 2406 
Q 2372 2406 2303 2522 
Q 2256 2603 2222 2859 
Q 1988 2800 1500 2641 
Q 997 2441 994 2147 
Q 1088 2113 1178 2097 
Q 1897 1969 2247 1744 
Q 2756 1416 2756 794 
Q 2756 284 2316 25 
Q 1950 -188 1391 -188 
Q 981 -188 609 -50 
Q 128 125 128 438 
Q 128 563 226 656 
Q 325 750 450 750 
Q 547 750 700 600 
Q 775 528 1038 481 
Q 1247 444 1391 444 
Q 1653 444 1853 506 
Q 2144 597 2144 794 
Q 2144 1219 1550 1369 
L 1225 1441 
Q 809 1531 634 1653 
Q 381 1828 381 2181 
Q 381 2834 997 3113 
Q 1184 3197 1596 3314 
Q 2009 3431 2188 3513 
Q 2316 3569 2466 3569 
Q 2600 3569 2686 3481 
Q 2772 3394 2772 3253 
Q 2772 3163 2811 2988 
Q 2850 2813 2850 2722 
Q 2850 2581 2764 2493 
Q 2678 2406 2544 2406 
z
" id="ComicSansMS-73" transform="scale(0.015625)"/>
      </defs>
      <use xlink:href="#ComicSansMS-23"/>
      <use x="84.277344" xlink:href="#ComicSansMS-20"/>
      <use x="114.160156" xlink:href="#ComicSansMS-4f"/>
      <use x="193.994141" xlink:href="#ComicSansMS-66"/>
      <use x="244.824219" xlink:href="#ComicSansMS-20"/>
      <use x="274.707031" xlink:href="#ComicSansMS-54"/>
      <use x="342.675781" xlink:href="#ComicSansMS-72"/>
      <use x="390.722656" xlink:href="#ComicSansMS-61"/>
      <use x="441.894531" xlink:href="#ComicSansMS-64"/>
      <use x="500.634766" xlink:href="#ComicSansMS-65"/>
      <use x="555.419922" xlink:href="#ComicSansMS-73"/>
     </g>
    </g>
   </g>
   <g id="matplotlib.axis_2">
    <g id="ytick_1">
     <g id="line2d_5">
      <defs>
       <path d="M 0 0 
L -3.5 0 
" id="mb4e8b6b069" style="stroke:#ffffff;stroke-width:0.8;"/>
      </defs>
      <g>
       <use style="fill:#ffffff;stroke:#ffffff;stroke-width:0.8;" x="72" xlink:href="#mb4e8b6b069" y="369.36"/>
      </g>
     </g>
     <g id="text_6">
      <!-- 0 -->
      <g style="fill:#ffffff;" transform="translate(58.6375 373.159219)scale(0.1 -0.1)">
       <use xlink:href="#DejaVuSans-30"/>
      </g>
     </g>
    </g>
    <g id="ytick_2">
     <g id="line2d_6">
      <g>
       <use style="fill:#ffffff;stroke:#ffffff;stroke-width:0.8;" x="72" xlink:href="#mb4e8b6b069" y="327.730044"/>
      </g>
     </g>
     <g id="text_7">
      <!-- 250 -->
      <g style="fill:#ffffff;" transform="translate(45.9125 331.529263)scale(0.1 -0.1)">
       <defs>
        <path d="M 1228 531 
L 3431 531 
L 3431 0 
L 469 0 
L 469 531 
Q 828 903 1448 1529 
Q 2069 2156 2228 2338 
Q 2531 2678 2651 2914 
Q 2772 3150 2772 3378 
Q 2772 3750 2511 3984 
Q 2250 4219 1831 4219 
Q 1534 4219 1204 4116 
Q 875 4013 500 3803 
L 500 4441 
Q 881 4594 1212 4672 
Q 1544 4750 1819 4750 
Q 2544 4750 2975 4387 
Q 3406 4025 3406 3419 
Q 3406 3131 3298 2873 
Q 3191 2616 2906 2266 
Q 2828 2175 2409 1742 
Q 1991 1309 1228 531 
z
" id="DejaVuSans-32" transform="scale(0.015625)"/>
       </defs>
       <use xlink:href="#DejaVuSans-32"/>
       <use x="63.623047" xlink:href="#DejaVuSans-35"/>
       <use x="127.246094" xlink:href="#DejaVuSans-30"/>
      </g>
     </g>
    </g>
    <g id="ytick_3">
     <g id="line2d_7">
      <g>
       <use style="fill:#ffffff;stroke:#ffffff;stroke-width:0.8;" x="72" xlink:href="#mb4e8b6b069" y="286.100088"/>
      </g>
     </g>
     <g id="text_8">
      <!-- 500 -->
      <g style="fill:#ffffff;" transform="translate(45.9125 289.899307)scale(0.1 -0.1)">
       <use xlink:href="#DejaVuSans-35"/>
       <use x="63.623047" xlink:href="#DejaVuSans-30"/>
       <use x="127.246094" xlink:href="#DejaVuSans-30"/>
      </g>
     </g>
    </g>
    <g id="ytick_4">
     <g id="line2d_8">
      <g>
       <use style="fill:#ffffff;stroke:#ffffff;stroke-width:0.8;" x="72" xlink:href="#mb4e8b6b069" y="244.470132"/>
      </g>
     </g>
     <g id="text_9">
      <!-- 750 -->
      <g style="fill:#ffffff;" transform="translate(45.9125 248.269351)scale(0.1 -0.1)">
       <defs>
        <path d="M 525 4666 
L 3525 4666 
L 3525 4397 
L 1831 0 
L 1172 0 
L 2766 4134 
L 525 4134 
L 525 4666 
z
" id="DejaVuSans-37" transform="scale(0.015625)"/>
       </defs>
       <use xlink:href="#DejaVuSans-37"/>
       <use x="63.623047" xlink:href="#DejaVuSans-35"/>
       <use x="127.246094" xlink:href="#DejaVuSans-30"/>
      </g>
     </g>
    </g>
    <g id="ytick_5">
     <g id="line2d_9">
      <g>
       <use style="fill:#ffffff;stroke:#ffffff;stroke-width:0.8;" x="72" xlink:href="#mb4e8b6b069" y="202.840176"/>
      </g>
     </g>
     <g id="text_10">
      <!-- 1000 -->
      <g style="fill:#ffffff;" transform="translate(39.55 206.639395)scale(0.1 -0.1)">
       <use xlink:href="#DejaVuSans-31"/>
       <use x="63.623047" xlink:href="#DejaVuSans-30"/>
       <use x="127.246094" xlink:href="#DejaVuSans-30"/>
       <use x="190.869141" xlink:href="#DejaVuSans-30"/>
      </g>
     </g>
    </g>
    <g id="ytick_6">
     <g id="line2d_10">
      <g>
       <use style="fill:#ffffff;stroke:#ffffff;stroke-width:0.8;" x="72" xlink:href="#mb4e8b6b069" y="161.21022"/>
      </g>
     </g>
     <g id="text_11">
      <!-- 1250 -->
      <g style="fill:#ffffff;" transform="translate(39.55 165.009439)scale(0.1 -0.1)">
       <use xlink:href="#DejaVuSans-31"/>
       <use x="63.623047" xlink:href="#DejaVuSans-32"/>
       <use x="127.246094" xlink:href="#DejaVuSans-35"/>
       <use x="190.869141" xlink:href="#DejaVuSans-30"/>
      </g>
     </g>
    </g>
    <g id="ytick_7">
     <g id="line2d_11">
      <g>
       <use style="fill:#ffffff;stroke:#ffffff;stroke-width:0.8;" x="72" xlink:href="#mb4e8b6b069" y="119.580264"/>
      </g>
     </g>
     <g id="text_12">
      <!-- 1500 -->
      <g style="fill:#ffffff;" transform="translate(39.55 123.379483)scale(0.1 -0.1)">
       <use xlink:href="#DejaVuSans-31"/>
       <use x="63.623047" xlink:href="#DejaVuSans-35"/>
       <use x="127.246094" xlink:href="#DejaVuSans-30"/>
       <use x="190.869141" xlink:href="#DejaVuSans-30"/>
      </g>
     </g>
    </g>
    <g id="ytick_8">
     <g id="line2d_12">
      <g>
       <use style="fill:#ffffff;stroke:#ffffff;stroke-width:0.8;" x="72" xlink:href="#mb4e8b6b069" y="77.950308"/>
      </g>
     </g>
     <g id="text_13">
      <!-- 1750 -->
      <g style="fill:#ffffff;" transform="translate(39.55 81.749527)scale(0.1 -0.1)">
       <use xlink:href="#DejaVuSans-31"/>
       <use x="63.623047" xlink:href="#DejaVuSans-37"/>
       <use x="127.246094" xlink:href="#DejaVuSans-35"/>
       <use x="190.869141" xlink:href="#DejaVuSans-30"/>
      </g>
     </g>
    </g>
    <g id="text_14">
     <!-- ₡urrency Things -->
     <g style="fill:#ffffff;" transform="translate(33.054375 266.595937)rotate(-90)scale(0.12 -0.12)">
      <defs>
       <path d="M 2725 4734 
Q 2928 4709 3122 4650 
L 3216 4978 
L 3700 4978 
L 3553 4463 
Q 3678 4394 3794 4306 
L 3794 3641 
Q 3613 3828 3413 3956 
L 2416 428 
L 2472 428 
Q 2844 428 3173 575 
Q 3503 722 3794 1019 
L 3794 359 
Q 3491 134 3153 21 
Q 2816 -91 2438 -91 
Q 2353 -91 2272 -84 
L 2216 -281 
L 1731 -281 
L 1809 -9 
Q 1606 47 1428 141 
L 1309 -281 
L 825 -281 
L 1028 438 
Q 969 494 916 559 
Q 359 1206 359 2328 
Q 359 3453 916 4103 
Q 1416 4681 2241 4744 
L 2306 4978 
L 2794 4978 
L 2725 4734 
z
M 2084 4191 
Q 1631 4094 1356 3744 
Q 966 3253 966 2328 
Q 966 1584 1222 1122 
L 2084 4191 
z
M 2984 4156 
Q 2791 4216 2581 4228 
L 1584 694 
Q 1750 569 1953 503 
L 2984 4156 
z
" id="DejaVuSans-20a1" transform="scale(0.015625)"/>
       <path d="M 544 1381 
L 544 3500 
L 1119 3500 
L 1119 1403 
Q 1119 906 1312 657 
Q 1506 409 1894 409 
Q 2359 409 2629 706 
Q 2900 1003 2900 1516 
L 2900 3500 
L 3475 3500 
L 3475 0 
L 2900 0 
L 2900 538 
Q 2691 219 2414 64 
Q 2138 -91 1772 -91 
Q 1169 -91 856 284 
Q 544 659 544 1381 
z
M 1991 3584 
L 1991 3584 
z
" id="DejaVuSans-75" transform="scale(0.015625)"/>
       <path d="M 2631 2963 
Q 2534 3019 2420 3045 
Q 2306 3072 2169 3072 
Q 1681 3072 1420 2755 
Q 1159 2438 1159 1844 
L 1159 0 
L 581 0 
L 581 3500 
L 1159 3500 
L 1159 2956 
Q 1341 3275 1631 3429 
Q 1922 3584 2338 3584 
Q 2397 3584 2469 3576 
Q 2541 3569 2628 3553 
L 2631 2963 
z
" id="DejaVuSans-72" transform="scale(0.015625)"/>
       <path d="M 3597 1894 
L 3597 1613 
L 953 1613 
Q 991 1019 1311 708 
Q 1631 397 2203 397 
Q 2534 397 2845 478 
Q 3156 559 3463 722 
L 3463 178 
Q 3153 47 2828 -22 
Q 2503 -91 2169 -91 
Q 1331 -91 842 396 
Q 353 884 353 1716 
Q 353 2575 817 3079 
Q 1281 3584 2069 3584 
Q 2775 3584 3186 3129 
Q 3597 2675 3597 1894 
z
M 3022 2063 
Q 3016 2534 2758 2815 
Q 2500 3097 2075 3097 
Q 1594 3097 1305 2825 
Q 1016 2553 972 2059 
L 3022 2063 
z
" id="DejaVuSans-65" transform="scale(0.015625)"/>
       <path d="M 3513 2113 
L 3513 0 
L 2938 0 
L 2938 2094 
Q 2938 2591 2744 2837 
Q 2550 3084 2163 3084 
Q 1697 3084 1428 2787 
Q 1159 2491 1159 1978 
L 1159 0 
L 581 0 
L 581 3500 
L 1159 3500 
L 1159 2956 
Q 1366 3272 1645 3428 
Q 1925 3584 2291 3584 
Q 2894 3584 3203 3211 
Q 3513 2838 3513 2113 
z
" id="DejaVuSans-6e" transform="scale(0.015625)"/>
       <path d="M 3122 3366 
L 3122 2828 
Q 2878 2963 2633 3030 
Q 2388 3097 2138 3097 
Q 1578 3097 1268 2742 
Q 959 2388 959 1747 
Q 959 1106 1268 751 
Q 1578 397 2138 397 
Q 2388 397 2633 464 
Q 2878 531 3122 666 
L 3122 134 
Q 2881 22 2623 -34 
Q 2366 -91 2075 -91 
Q 1284 -91 818 406 
Q 353 903 353 1747 
Q 353 2603 823 3093 
Q 1294 3584 2113 3584 
Q 2378 3584 2631 3529 
Q 2884 3475 3122 3366 
z
" id="DejaVuSans-63" transform="scale(0.015625)"/>
       <path d="M 2059 -325 
Q 1816 -950 1584 -1140 
Q 1353 -1331 966 -1331 
L 506 -1331 
L 506 -850 
L 844 -850 
Q 1081 -850 1212 -737 
Q 1344 -625 1503 -206 
L 1606 56 
L 191 3500 
L 800 3500 
L 1894 763 
L 2988 3500 
L 3597 3500 
L 2059 -325 
z
" id="DejaVuSans-79" transform="scale(0.015625)"/>
       <path id="DejaVuSans-20" transform="scale(0.015625)"/>
       <path d="M -19 4666 
L 3928 4666 
L 3928 4134 
L 2272 4134 
L 2272 0 
L 1638 0 
L 1638 4134 
L -19 4134 
L -19 4666 
z
" id="DejaVuSans-54" transform="scale(0.015625)"/>
       <path d="M 3513 2113 
L 3513 0 
L 2938 0 
L 2938 2094 
Q 2938 2591 2744 2837 
Q 2550 3084 2163 3084 
Q 1697 3084 1428 2787 
Q 1159 2491 1159 1978 
L 1159 0 
L 581 0 
L 581 4863 
L 1159 4863 
L 1159 2956 
Q 1366 3272 1645 3428 
Q 1925 3584 2291 3584 
Q 2894 3584 3203 3211 
Q 3513 2838 3513 2113 
z
" id="DejaVuSans-68" transform="scale(0.015625)"/>
       <path d="M 603 3500 
L 1178 3500 
L 1178 0 
L 603 0 
L 603 3500 
z
M 603 4863 
L 1178 4863 
L 1178 4134 
L 603 4134 
L 603 4863 
z
" id="DejaVuSans-69" transform="scale(0.015625)"/>
       <path d="M 2906 1791 
Q 2906 2416 2648 2759 
Q 2391 3103 1925 3103 
Q 1463 3103 1205 2759 
Q 947 2416 947 1791 
Q 947 1169 1205 825 
Q 1463 481 1925 481 
Q 2391 481 2648 825 
Q 2906 1169 2906 1791 
z
M 3481 434 
Q 3481 -459 3084 -895 
Q 2688 -1331 1869 -1331 
Q 1566 -1331 1297 -1286 
Q 1028 -1241 775 -1147 
L 775 -588 
Q 1028 -725 1275 -790 
Q 1522 -856 1778 -856 
Q 2344 -856 2625 -561 
Q 2906 -266 2906 331 
L 2906 616 
Q 2728 306 2450 153 
Q 2172 0 1784 0 
Q 1141 0 747 490 
Q 353 981 353 1791 
Q 353 2603 747 3093 
Q 1141 3584 1784 3584 
Q 2172 3584 2450 3431 
Q 2728 3278 2906 2969 
L 2906 3500 
L 3481 3500 
L 3481 434 
z
" id="DejaVuSans-67" transform="scale(0.015625)"/>
       <path d="M 2834 3397 
L 2834 2853 
Q 2591 2978 2328 3040 
Q 2066 3103 1784 3103 
Q 1356 3103 1142 2972 
Q 928 2841 928 2578 
Q 928 2378 1081 2264 
Q 1234 2150 1697 2047 
L 1894 2003 
Q 2506 1872 2764 1633 
Q 3022 1394 3022 966 
Q 3022 478 2636 193 
Q 2250 -91 1575 -91 
Q 1294 -91 989 -36 
Q 684 19 347 128 
L 347 722 
Q 666 556 975 473 
Q 1284 391 1588 391 
Q 1994 391 2212 530 
Q 2431 669 2431 922 
Q 2431 1156 2273 1281 
Q 2116 1406 1581 1522 
L 1381 1569 
Q 847 1681 609 1914 
Q 372 2147 372 2553 
Q 372 3047 722 3315 
Q 1072 3584 1716 3584 
Q 2034 3584 2315 3537 
Q 2597 3491 2834 3397 
z
" id="DejaVuSans-73" transform="scale(0.015625)"/>
      </defs>
      <use xlink:href="#DejaVuSans-20a1"/>
      <use x="63.623047" xlink:href="#DejaVuSans-75"/>
      <use x="127.001953" xlink:href="#DejaVuSans-72"/>
      <use x="166.365234" xlink:href="#DejaVuSans-72"/>
      <use x="205.228516" xlink:href="#DejaVuSans-65"/>
      <use x="266.751953" xlink:href="#DejaVuSans-6e"/>
      <use x="330.130859" xlink:href="#DejaVuSans-63"/>
      <use x="385.111328" xlink:href="#DejaVuSans-79"/>
      <use x="444.291016" xlink:href="#DejaVuSans-20"/>
      <use x="476.078125" xlink:href="#DejaVuSans-54"/>
      <use x="537.162109" xlink:href="#DejaVuSans-68"/>
      <use x="600.541016" xlink:href="#DejaVuSans-69"/>
      <use x="628.324219" xlink:href="#DejaVuSans-6e"/>
      <use x="691.703125" xlink:href="#DejaVuSans-67"/>
      <use x="755.179688" xlink:href="#DejaVuSans-73"/>
     </g>
    </g>
   </g>
   <g id="line2d_13">
    <path clip-path="url(#p77c6d86918)" d="M 92.290909 369.19348 
L 94.492454 367.195242 
L 97.427848 367.528282 
L 98.161697 366.362643 
L 101.09709 366.196123 
L 104.032484 365.863084 
L 104.766332 365.363524 
L 107.701726 365.530044 
L 108.435575 367.195242 
L 109.169423 366.695683 
L 109.903271 364.364405 
L 118.709453 363.864846 
L 121.644846 362.699207 
L 127.515634 356.371454 
L 130.451027 355.871894 
L 134.854118 355.705374 
L 136.321815 355.205815 
L 138.52336 353.873656 
L 141.458754 355.538855 
L 142.192602 353.873656 
L 142.926451 355.538855 
L 143.660299 354.206696 
L 146.595693 353.873656 
L 152.46648 352.874537 
L 154.668026 352.708018 
L 159.071116 352.541498 
L 162.00651 342.883348 
L 164.941904 340.219031 
L 167.877297 340.052511 
L 168.611146 338.553833 
L 171.54654 338.720352 
L 172.280388 338.387313 
L 175.215782 336.722115 
L 180.352721 336.888634 
L 181.086569 336.722115 
L 181.820418 334.224317 
L 184.755811 333.724758 
L 187.691205 333.558238 
L 189.158902 331.39348 
L 192.094296 331.060441 
L 195.029689 331.22696 
L 195.763538 330.727401 
L 198.698931 328.229604 
L 201.634325 327.730044 
L 203.83587 319.903612 
L 206.771264 319.404053 
L 207.505113 313.908899 
L 210.440506 313.575859 
L 211.908203 312.90978 
L 214.843597 311.910661 
L 217.778991 311.744141 
L 219.980536 310.078943 
L 222.91593 309.745903 
L 225.117475 307.081586 
L 228.052869 303.25163 
L 230.988262 300.920352 
L 233.923656 300.753833 
L 235.391353 298.755595 
L 239.060595 296.923877 
L 242.729837 297.756476 
L 243.463686 295.758238 
L 247.132928 294.925639 
L 250.80217 290.429604 
L 256.672957 290.762643 
L 257.406806 291.095683 
L 258.140654 290.263084 
L 258.874503 286.599648 
L 261.809896 284.26837 
L 265.479139 282.603172 
L 268.414532 282.436652 
L 270.616078 281.770573 
L 273.551471 279.605815 
L 277.220713 274.77674 
L 280.156107 272.278943 
L 284.559198 269.947665 
L 288.962288 269.614626 
L 291.897682 268.115947 
L 299.236166 260.289515 
L 302.17156 253.795242 
L 305.106954 253.462203 
L 306.574651 252.629604 
L 309.510044 248.466608 
L 312.445438 246.96793 
L 316.11468 247.300969 
L 316.848529 248.133568 
L 317.582377 247.800529 
L 318.316226 243.304493 
L 321.251619 242.305374 
L 324.187013 238.808458 
L 327.122407 237.14326 
L 330.791649 233.646344 
L 333.727043 233.479824 
L 335.194739 229.316828 
L 338.863982 225.653392 
L 341.799375 225.486872 
L 346.202466 223.821674 
L 349.13786 220.491278 
L 352.073253 219.825198 
L 355.008647 217.99348 
L 358.677889 216.827841 
L 361.613283 166.871894 
L 362.347131 167.204934 
L 363.08098 168.870132 
L 363.814828 169.036652 
L 364.548677 167.704493 
L 367.48407 166.705374 
L 373.354858 164.374097 
L 376.290252 166.039295 
L 377.0241 166.871894 
L 377.757948 150.219912 
L 378.491797 116.915947 
L 379.225645 66.96 
L 379.959494 140.894802 
L 380.693342 141.394361 
L 381.427191 139.229604 
L 384.362584 136.398767 
L 387.297978 135.899207 
L 390.233372 135.566167 
L 393.168765 133.40141 
L 396.104159 131.403172 
L 399.039553 129.238414 
L 401.974947 128.905374 
L 404.91034 126.241057 
L 407.845734 125.908018 
L 410.781128 125.075419 
L 413.716521 124.742379 
L 418.85346 119.746784 
L 421.788854 119.580264 
L 424.724248 104.76 
L 427.659642 104.42696 
L 430.595035 102.428722 
L 433.530429 102.262203 
L 434.998126 99.764405 
L 437.93352 99.098326 
L 440.868913 98.265727 
L 443.804307 96.767048 
L 446.739701 96.600529 
L 448.207398 96.267489 
L 451.142791 93.936211 
L 454.078185 93.103612 
L 457.013579 92.937093 
L 459.215124 109.589075 
L 459.948973 108.423436 
L 462.884366 108.256916 
L 465.085912 107.757357 
L 468.021305 105.09304 
L 470.956699 104.59348 
L 473.892093 103.927401 
L 476.827486 102.928282 
L 481.964425 102.262203 
L 485.633668 101.596123 
L 489.30291 101.429604 
L 490.036758 100.763524 
L 495.173697 99.764405 
L 498.109091 95.10185 
L 498.109091 95.10185 
" style="fill:none;"/>
   </g>
   <g id="patch_3">
    <path d="M 72 384.48 
L 72 51.84 
" style="fill:none;stroke:#ffffff;stroke-linecap:square;stroke-linejoin:miter;stroke-width:0.8;"/>
   </g>
   <g id="patch_4">
    <path d="M 518.4 384.48 
L 518.4 51.84 
" style="fill:none;stroke:#000000;stroke-linecap:square;stroke-linejoin:miter;stroke-width:0.8;"/>
   </g>
   <g id="patch_5">
    <path d="M 72 384.48 
L 518.4 384.48 
" style="fill:none;stroke:#ffffff;stroke-linecap:square;stroke-linejoin:miter;stroke-width:0.8;"/>
   </g>
   <g id="patch_6">
    <path d="M 72 51.84 
L 518.4 51.84 
" style="fill:none;stroke:#000000;stroke-linecap:square;stroke-linejoin:miter;stroke-width:0.8;"/>
   </g>
   <g id="text_15">
    <!-- Networth Over Time -->
    <g style="fill:#ffffff;" transform="translate(197.692187 45.84)scale(0.2 -0.2)">
     <defs>
      <path d="M 4816 694 
Q 4816 544 4766 194 
Q 4716 -122 4431 -122 
Q 4259 -122 4022 103 
Q 2750 1306 1103 3575 
L 1088 2866 
L 1078 2153 
Q 1078 1894 1089 1375 
Q 1100 856 1100 594 
Q 1100 -247 775 -247 
Q 603 -247 503 -138 
Q 413 -41 413 94 
Q 413 225 433 490 
Q 453 756 453 888 
Q 453 1081 465 1467 
Q 478 1853 478 2047 
Q 478 2253 468 2670 
Q 459 3088 459 3294 
Q 459 3491 421 3880 
Q 384 4269 384 4466 
Q 384 4609 507 4728 
Q 631 4847 788 4847 
Q 953 4847 1197 4484 
Q 1975 3319 2597 2547 
Q 3338 1631 4222 797 
Q 4231 931 4222 1194 
L 4213 1588 
Q 4213 2959 4106 3772 
Q 4094 3853 4022 4100 
Q 3959 4313 3959 4431 
Q 3959 4794 4291 4794 
Q 4834 4794 4834 2766 
Q 4834 2419 4825 1730 
Q 4816 1041 4816 694 
z
" id="ComicSansMS-4e" transform="scale(0.015625)"/>
      <path d="M 2525 2663 
Q 2459 2663 2370 2669 
Q 2281 2675 2216 2675 
Q 2144 2675 1791 2628 
L 1850 781 
L 1853 644 
L 1856 484 
Q 1869 -200 1528 -200 
Q 1403 -200 1311 -119 
Q 1219 -38 1219 84 
Q 1219 203 1228 440 
Q 1238 678 1238 797 
L 1175 2622 
Q 947 2631 481 2675 
Q 203 2713 203 2984 
Q 203 3122 287 3212 
Q 372 3303 503 3303 
L 1159 3250 
Q 1159 3409 1145 3676 
Q 1131 3944 1131 4063 
Q 1131 4194 1222 4280 
Q 1313 4366 1444 4366 
Q 1725 4366 1772 3906 
Q 1781 3791 1781 3628 
L 1775 3447 
L 1772 3253 
Q 2159 3303 2216 3303 
Q 2541 3303 2641 3272 
Q 2831 3209 2831 2978 
Q 2831 2841 2745 2752 
Q 2659 2663 2525 2663 
z
" id="ComicSansMS-74" transform="scale(0.015625)"/>
      <path d="M 4175 2797 
Q 3931 1778 3538 494 
Q 3450 209 3247 -91 
Q 3138 -256 2950 -253 
Q 2609 -247 2419 594 
Q 2356 863 2291 1325 
L 2188 2022 
L 1931 1425 
L 1456 134 
Q 1416 16 1338 -47 
Q 1244 -228 1038 -234 
Q 800 -244 578 697 
Q 466 1181 353 2009 
L 278 2478 
Q 238 2759 238 2950 
Q 238 3081 330 3167 
Q 422 3253 553 3253 
Q 791 3253 847 2994 
Q 888 2809 913 2538 
L 959 2078 
L 1144 675 
Q 1491 1638 1863 2894 
Q 1966 3241 2222 3241 
Q 2469 3241 2556 2853 
Q 2638 2488 2759 1728 
Q 2884 941 2981 500 
L 3209 1350 
L 3613 3053 
Q 3659 3244 3881 3244 
Q 4013 3244 4109 3155 
Q 4206 3066 4206 2941 
Q 4206 2925 4175 2797 
z
" id="ComicSansMS-77" transform="scale(0.015625)"/>
      <path d="M 1606 -184 
Q 1081 -184 703 203 
Q 281 634 259 1363 
Q 241 2069 616 2606 
Q 1053 3241 1834 3241 
Q 2459 3241 2781 2669 
Q 3038 2206 3028 1556 
Q 3019 863 2666 372 
Q 2266 -184 1606 -184 
z
M 1794 2606 
Q 1334 2609 1078 2169 
Q 875 1816 875 1363 
Q 875 909 1122 656 
Q 1328 447 1606 447 
Q 1931 447 2166 684 
Q 2431 947 2447 1394 
Q 2491 2603 1794 2606 
z
" id="ComicSansMS-6f" transform="scale(0.015625)"/>
      <path d="M 3050 -194 
Q 2828 -194 2759 44 
Q 2688 300 2628 772 
Q 2572 1225 2572 1516 
Q 2572 1597 2580 1762 
Q 2588 1928 2588 2009 
Q 2588 2597 2294 2597 
Q 1897 2597 1584 2238 
Q 1425 2053 1147 1534 
Q 1147 344 1047 125 
Q 959 -69 775 -69 
Q 647 -69 550 18 
Q 453 106 453 231 
Q 453 275 481 369 
Q 506 447 516 825 
L 525 1288 
L 534 3584 
Q 556 3972 556 4106 
Q 556 4266 526 4408 
Q 497 4550 497 4703 
Q 497 4834 587 4920 
Q 678 5006 809 5006 
Q 1066 5006 1109 4731 
Q 1159 4428 1159 4184 
Q 1159 3856 1138 3500 
Q 1119 3159 1122 2816 
L 1125 2541 
Q 1381 2884 1673 3054 
Q 1966 3225 2294 3225 
Q 2813 3225 3006 2888 
Q 3144 2650 3163 2088 
L 3188 1491 
L 3250 841 
Q 3294 475 3356 197 
Q 3369 144 3369 106 
Q 3369 -22 3275 -108 
Q 3181 -194 3050 -194 
z
" id="ComicSansMS-68" transform="scale(0.015625)"/>
      <path d="M 1875 163 
Q 1866 -125 1591 -125 
Q 1363 -125 1259 144 
L 781 1413 
L 225 2847 
Q 194 2928 194 2991 
Q 194 3119 291 3209 
Q 388 3300 516 3300 
Q 703 3300 784 3109 
L 1578 925 
Q 1813 1425 2169 2375 
Q 2253 2625 2434 3081 
Q 2531 3281 2709 3281 
Q 2838 3281 2934 3190 
Q 3031 3100 3031 2975 
Q 3031 2856 2516 1638 
L 1875 163 
z
" id="ComicSansMS-76" transform="scale(0.015625)"/>
      <path d="M 1031 3956 
Q 881 3956 772 4062 
Q 663 4169 663 4319 
Q 663 4469 772 4575 
Q 881 4681 1031 4681 
Q 1181 4681 1289 4575 
Q 1397 4469 1397 4319 
Q 1397 4169 1289 4062 
Q 1181 3956 1031 3956 
z
M 1172 1419 
Q 1172 1231 1183 857 
Q 1194 484 1194 297 
Q 1194 159 1109 71 
Q 1025 -16 888 -16 
Q 753 -16 667 71 
Q 581 159 581 297 
Q 581 484 570 857 
Q 559 1231 559 1419 
Q 559 1713 590 2152 
Q 622 2591 622 2884 
Q 622 3025 708 3112 
Q 794 3200 928 3200 
Q 1063 3200 1148 3112 
Q 1234 3025 1234 2884 
Q 1234 2591 1203 2152 
Q 1172 1713 1172 1419 
z
" id="ComicSansMS-69" transform="scale(0.015625)"/>
      <path d="M 4403 -259 
Q 4147 -259 4103 13 
Q 4047 356 3991 981 
L 3884 1950 
Q 3853 2166 3778 2372 
Q 3672 2653 3547 2653 
Q 3431 2653 3116 2456 
Q 2816 2275 2722 2166 
Q 2719 1872 2738 1578 
L 2831 744 
Q 2891 250 2891 -72 
Q 2891 -209 2805 -298 
Q 2719 -388 2584 -388 
Q 2450 -388 2364 -298 
Q 2278 -209 2278 -72 
Q 2278 306 2201 1045 
Q 2125 1784 2125 2163 
Q 2125 2494 2031 2678 
Q 1813 2578 1588 2353 
L 1219 1941 
Q 1169 1866 1059 1744 
Q 1059 1556 1025 1190 
Q 991 825 991 650 
Q 991 556 1020 387 
Q 1050 219 1050 144 
Q 1050 16 954 -71 
Q 859 -159 731 -159 
Q 378 -159 378 644 
Q 378 831 412 1203 
Q 447 1575 447 1763 
Q 447 1928 417 2259 
Q 388 2591 388 2759 
Q 388 3469 706 3469 
Q 828 3469 929 3362 
Q 1031 3256 1031 3131 
Q 1031 3072 1015 2947 
Q 1000 2822 1000 2756 
L 1006 2428 
Q 1169 2763 1484 3033 
Q 1800 3303 2022 3303 
Q 2513 3303 2697 2816 
Q 2869 3044 3106 3158 
Q 3344 3272 3650 3272 
Q 4172 3272 4363 2709 
Q 4400 2597 4491 1831 
Q 4578 1294 4716 41 
Q 4725 -84 4631 -171 
Q 4538 -259 4403 -259 
z
" id="ComicSansMS-6d" transform="scale(0.015625)"/>
     </defs>
     <use xlink:href="#ComicSansMS-4e"/>
     <use x="79.6875" xlink:href="#ComicSansMS-65"/>
     <use x="134.472656" xlink:href="#ComicSansMS-74"/>
     <use x="181.591797" xlink:href="#ComicSansMS-77"/>
     <use x="250" xlink:href="#ComicSansMS-6f"/>
     <use x="302.587891" xlink:href="#ComicSansMS-72"/>
     <use x="350.634766" xlink:href="#ComicSansMS-74"/>
     <use x="397.753906" xlink:href="#ComicSansMS-68"/>
     <use x="455.517578" xlink:href="#ComicSansMS-20"/>
     <use x="485.400391" xlink:href="#ComicSansMS-4f"/>
     <use x="565.234375" xlink:href="#ComicSansMS-76"/>
     <use x="613.867188" xlink:href="#ComicSansMS-65"/>
     <use x="668.652344" xlink:href="#ComicSansMS-72"/>
     <use x="716.699219" xlink:href="#ComicSansMS-20"/>
     <use x="746.582031" xlink:href="#ComicSansMS-54"/>
     <use x="814.550781" xlink:href="#ComicSansMS-69"/>
     <use x="842.578125" xlink:href="#ComicSansMS-6d"/>
     <use x="920.263672" xlink:href="#ComicSansMS-65"/>
    </g>
   </g>
  </g>
 </g>
 <defs>
  <clipPath id="p77c6d86918">
   <rect height="332.64" width="446.4" x="72" y="51.84"/>
  </clipPath>
 </defs>
</svg>
