<?xml version="1.0" encoding="utf-8" standalone="no"?>
<!DOCTYPE svg PUBLIC "-//W3C//DTD SVG 1.1//EN"
  "http://www.w3.org/Graphics/SVG/1.1/DTD/svg11.dtd">
<svg height="432pt" version="1.1" viewBox="0 0 576 432" width="576pt" xmlns="http://www.w3.org/2000/svg" xmlns:xlink="http://www.w3.org/1999/xlink">
 <metadata>
  <rdf:RDF xmlns:cc="http://creativecommons.org/ns#" xmlns:dc="http://purl.org/dc/elements/1.1/" xmlns:rdf="http://www.w3.org/1999/02/22-rdf-syntax-ns#">
   <cc:Work>
    <dc:type rdf:resource="http://purl.org/dc/dcmitype/StillImage"/>
    <dc:date>2021-08-08T23:56:00.383435</dc:date>
    <dc:format>image/svg+xml</dc:format>
    <dc:creator>
     <cc:Agent>
      <dc:title>Matplotlib v3.4.2, https://matplotlib.org/</dc:title>
     </cc:Agent>
    </dc:creator>
   </cc:Work>
  </rdf:RDF>
 </metadata>
 <defs>
  <style type="text/css">*{stroke-linecap:butt;stroke-linejoin:round;}</style>
 </defs>
 <g id="figure_1">
  <g id="patch_1">
   <path d="M 0 432 
L 576 432 
L 576 0 
L 0 0 
z
" style="fill:none;"/>
  </g>
  <g id="axes_1">
   <g id="patch_2">
    <path d="M 72 384.48 
L 518.4 384.48 
L 518.4 51.84 
L 72 51.84 
z
" style="fill:none;"/>
   </g>
   <g id="PolyCollection_1">
    <path clip-path="url(#p181d18acb3)" d="M 92.290909 369.36 
L 92.290909 369.048568 
L 94.48848 365.934253 
L 96.686052 365.31139 
L 98.151099 361.574212 
L 101.081195 360.328486 
L 103.278766 360.951349 
L 104.743814 360.017055 
L 106.941385 359.705623 
L 109.87148 355.03415 
L 114.266623 354.722719 
L 116.464194 354.411287 
L 118.661766 353.476993 
L 121.591861 352.85413 
L 124.521956 343.511184 
L 127.452051 337.593986 
L 130.382146 336.659691 
L 132.579718 335.725396 
L 136.242337 335.413965 
L 138.439908 333.545376 
L 143.567575 332.611081 
L 146.49767 331.676787 
L 149.427765 330.742492 
L 152.35786 330.431061 
L 156.753003 330.119629 
L 158.950574 329.808198 
L 161.88067 318.908095 
L 164.810765 313.613759 
L 168.473384 310.810875 
L 172.136003 310.499444 
L 175.066098 308.942286 
L 177.263669 308.630855 
L 179.461241 308.319423 
L 180.193764 308.630855 
L 181.658812 302.402225 
L 184.588907 301.779361 
L 188.98405 297.107889 
L 191.914145 296.796457 
L 194.111716 296.485026 
L 195.576764 294.616437 
L 198.506859 291.19069 
L 201.436954 289.010669 
L 203.634526 274.373388 
L 205.832097 275.307683 
L 207.297145 268.144758 
L 210.22724 267.833326 
L 211.692287 266.899032 
L 214.622383 261.916128 
L 219.750049 259.113244 
L 222.680144 258.801813 
L 224.877716 252.573182 
L 227.807811 243.8531 
L 230.737906 238.870196 
L 235.865573 232.641565 
L 239.528192 230.150113 
L 243.923334 227.035798 
L 247.585953 224.855778 
L 251.248572 218.938579 
L 255.643715 218.315716 
L 256.376239 217.692853 
L 257.108763 219.25001 
L 258.57381 208.349907 
L 261.503905 203.678435 
L 265.166524 201.809846 
L 270.294191 200.252688 
L 273.224286 194.024058 
L 275.421858 193.712626 
L 276.886905 187.483996 
L 279.817 184.681112 
L 284.212143 182.18966 
L 286.409714 181.878229 
L 288.607286 180.943934 
L 291.537381 178.452482 
L 295.932524 170.978126 
L 298.862619 164.438064 
L 301.792714 156.340844 
L 304.722809 156.029413 
L 306.187857 154.160824 
L 309.117952 148.243625 
L 312.048047 146.997899 
L 314.978142 146.375036 
L 315.710666 144.817878 
L 316.44319 145.440742 
L 317.908238 137.654954 
L 320.838333 136.720659 
L 323.768428 130.492029 
L 326.698523 128.62344 
L 328.896095 128.312008 
L 330.361142 120.52622 
L 334.756285 118.3462 
L 338.418904 108.691823 
L 341.348999 108.380391 
L 343.54657 107.757528 
L 345.744142 105.266076 
L 348.674237 96.545994 
L 351.604332 94.677405 
L 354.534427 91.251658 
L 356.731999 90.940227 
L 358.197046 88.137343 
L 360.394618 181.566797 
L 361.127141 180.943934 
L 361.859665 177.829619 
L 362.592189 177.518187 
L 364.057237 176.272461 
L 366.987332 175.338167 
L 369.917427 171.289557 
L 372.847522 169.109537 
L 375.045094 165.995221 
L 376.510141 197.138373 
L 377.242665 259.424676 
L 377.975189 352.85413 
L 378.707713 214.578538 
L 379.440236 213.644243 
L 380.905284 212.087085 
L 383.835379 208.97277 
L 386.765474 207.104181 
L 389.695569 206.79275 
L 392.625665 203.055572 
L 395.55576 198.384099 
L 398.485855 194.024058 
L 401.41595 192.155469 
L 404.346045 189.041153 
L 407.27614 188.106859 
L 410.206236 186.549701 
L 413.136331 185.926838 
L 415.333902 184.369681 
L 418.263997 171.289557 
L 421.194093 170.978126 
L 424.124188 145.752173 
L 427.054283 143.883584 
L 429.984378 140.769269 
L 434.379521 138.589248 
L 437.309616 137.654954 
L 440.239711 136.097796 
L 443.169806 134.229207 
L 446.099902 133.917775 
L 447.564949 132.049186 
L 450.495044 130.180597 
L 453.425139 128.934871 
L 456.355235 128.62344 
L 457.820282 97.480288 
L 459.28533 94.054542 
L 462.215425 93.74311 
L 464.412996 92.185953 
L 467.343092 88.137343 
L 470.273187 87.51448 
L 473.203282 86.891617 
L 476.133377 84.711596 
L 478.330948 84.400165 
L 481.993567 80.351555 
L 485.656186 79.105829 
L 490.051329 76.302945 
L 492.248901 75.991514 
L 494.446472 75.057219 
L 498.109091 66.96 
L 498.109091 369.36 
L 498.109091 369.36 
L 494.446472 369.36 
L 492.248901 369.36 
L 490.051329 369.36 
L 485.656186 369.36 
L 481.993567 369.36 
L 478.330948 369.36 
L 476.133377 369.36 
L 473.203282 369.36 
L 470.273187 369.36 
L 467.343092 369.36 
L 464.412996 369.36 
L 462.215425 369.36 
L 459.28533 369.36 
L 457.820282 369.36 
L 456.355235 369.36 
L 453.425139 369.36 
L 450.495044 369.36 
L 447.564949 369.36 
L 446.099902 369.36 
L 443.169806 369.36 
L 440.239711 369.36 
L 437.309616 369.36 
L 434.379521 369.36 
L 429.984378 369.36 
L 427.054283 369.36 
L 424.124188 369.36 
L 421.194093 369.36 
L 418.263997 369.36 
L 415.333902 369.36 
L 413.136331 369.36 
L 410.206236 369.36 
L 407.27614 369.36 
L 404.346045 369.36 
L 401.41595 369.36 
L 398.485855 369.36 
L 395.55576 369.36 
L 392.625665 369.36 
L 389.695569 369.36 
L 386.765474 369.36 
L 383.835379 369.36 
L 380.905284 369.36 
L 379.440236 369.36 
L 378.707713 369.36 
L 377.975189 369.36 
L 377.242665 369.36 
L 376.510141 369.36 
L 375.045094 369.36 
L 372.847522 369.36 
L 369.917427 369.36 
L 366.987332 369.36 
L 364.057237 369.36 
L 362.592189 369.36 
L 361.859665 369.36 
L 361.127141 369.36 
L 360.394618 369.36 
L 358.197046 369.36 
L 356.731999 369.36 
L 354.534427 369.36 
L 351.604332 369.36 
L 348.674237 369.36 
L 345.744142 369.36 
L 343.54657 369.36 
L 341.348999 369.36 
L 338.418904 369.36 
L 334.756285 369.36 
L 330.361142 369.36 
L 328.896095 369.36 
L 326.698523 369.36 
L 323.768428 369.36 
L 320.838333 369.36 
L 317.908238 369.36 
L 316.44319 369.36 
L 315.710666 369.36 
L 314.978142 369.36 
L 312.048047 369.36 
L 309.117952 369.36 
L 306.187857 369.36 
L 304.722809 369.36 
L 301.792714 369.36 
L 298.862619 369.36 
L 295.932524 369.36 
L 291.537381 369.36 
L 288.607286 369.36 
L 286.409714 369.36 
L 284.212143 369.36 
L 279.817 369.36 
L 276.886905 369.36 
L 275.421858 369.36 
L 273.224286 369.36 
L 270.294191 369.36 
L 265.166524 369.36 
L 261.503905 369.36 
L 258.57381 369.36 
L 257.108763 369.36 
L 256.376239 369.36 
L 255.643715 369.36 
L 251.248572 369.36 
L 247.585953 369.36 
L 243.923334 369.36 
L 239.528192 369.36 
L 235.865573 369.36 
L 230.737906 369.36 
L 227.807811 369.36 
L 224.877716 369.36 
L 222.680144 369.36 
L 219.750049 369.36 
L 214.622383 369.36 
L 211.692287 369.36 
L 210.22724 369.36 
L 207.297145 369.36 
L 205.832097 369.36 
L 203.634526 369.36 
L 201.436954 369.36 
L 198.506859 369.36 
L 195.576764 369.36 
L 194.111716 369.36 
L 191.914145 369.36 
L 188.98405 369.36 
L 184.588907 369.36 
L 181.658812 369.36 
L 180.193764 369.36 
L 179.461241 369.36 
L 177.263669 369.36 
L 175.066098 369.36 
L 172.136003 369.36 
L 168.473384 369.36 
L 164.810765 369.36 
L 161.88067 369.36 
L 158.950574 369.36 
L 156.753003 369.36 
L 152.35786 369.36 
L 149.427765 369.36 
L 146.49767 369.36 
L 143.567575 369.36 
L 138.439908 369.36 
L 136.242337 369.36 
L 132.579718 369.36 
L 130.382146 369.36 
L 127.452051 369.36 
L 124.521956 369.36 
L 121.591861 369.36 
L 118.661766 369.36 
L 116.464194 369.36 
L 114.266623 369.36 
L 109.87148 369.36 
L 106.941385 369.36 
L 104.743814 369.36 
L 103.278766 369.36 
L 101.081195 369.36 
L 98.151099 369.36 
L 96.686052 369.36 
L 94.48848 369.36 
L 92.290909 369.36 
z
" style="fill:#ff028d;"/>
   </g>
   <g id="matplotlib.axis_1">
    <g id="xtick_1">
     <g id="line2d_1">
      <defs>
       <path d="M 0 0 
L 0 3.5 
" id="mc4a702dba7" style="stroke:#ffffff;stroke-width:0.8;"/>
      </defs>
      <g>
       <use style="fill:#ffffff;stroke:#ffffff;stroke-width:0.8;" x="91.558385" xlink:href="#mc4a702dba7" y="384.48"/>
      </g>
     </g>
     <g id="text_1">
      <!-- 0 -->
      <g style="fill:#ffffff;" transform="translate(88.377135 399.078438)scale(0.1 -0.1)">
       <defs>
        <path d="M 2034 4250 
Q 1547 4250 1301 3770 
Q 1056 3291 1056 2328 
Q 1056 1369 1301 889 
Q 1547 409 2034 409 
Q 2525 409 2770 889 
Q 3016 1369 3016 2328 
Q 3016 3291 2770 3770 
Q 2525 4250 2034 4250 
z
M 2034 4750 
Q 2819 4750 3233 4129 
Q 3647 3509 3647 2328 
Q 3647 1150 3233 529 
Q 2819 -91 2034 -91 
Q 1250 -91 836 529 
Q 422 1150 422 2328 
Q 422 3509 836 4129 
Q 1250 4750 2034 4750 
z
" id="DejaVuSans-30" transform="scale(0.015625)"/>
       </defs>
       <use xlink:href="#DejaVuSans-30"/>
      </g>
     </g>
    </g>
    <g id="xtick_2">
     <g id="line2d_2">
      <g>
       <use style="fill:#ffffff;stroke:#ffffff;stroke-width:0.8;" x="201.436954" xlink:href="#mc4a702dba7" y="384.48"/>
      </g>
     </g>
     <g id="text_2">
      <!-- 150 -->
      <g style="fill:#ffffff;" transform="translate(191.893204 399.078438)scale(0.1 -0.1)">
       <defs>
        <path d="M 794 531 
L 1825 531 
L 1825 4091 
L 703 3866 
L 703 4441 
L 1819 4666 
L 2450 4666 
L 2450 531 
L 3481 531 
L 3481 0 
L 794 0 
L 794 531 
z
" id="DejaVuSans-31" transform="scale(0.015625)"/>
        <path d="M 691 4666 
L 3169 4666 
L 3169 4134 
L 1269 4134 
L 1269 2991 
Q 1406 3038 1543 3061 
Q 1681 3084 1819 3084 
Q 2600 3084 3056 2656 
Q 3513 2228 3513 1497 
Q 3513 744 3044 326 
Q 2575 -91 1722 -91 
Q 1428 -91 1123 -41 
Q 819 9 494 109 
L 494 744 
Q 775 591 1075 516 
Q 1375 441 1709 441 
Q 2250 441 2565 725 
Q 2881 1009 2881 1497 
Q 2881 1984 2565 2268 
Q 2250 2553 1709 2553 
Q 1456 2553 1204 2497 
Q 953 2441 691 2322 
L 691 4666 
z
" id="DejaVuSans-35" transform="scale(0.015625)"/>
       </defs>
       <use xlink:href="#DejaVuSans-31"/>
       <use x="63.623047" xlink:href="#DejaVuSans-35"/>
       <use x="127.246094" xlink:href="#DejaVuSans-30"/>
      </g>
     </g>
    </g>
    <g id="xtick_3">
     <g id="line2d_3">
      <g>
       <use style="fill:#ffffff;stroke:#ffffff;stroke-width:0.8;" x="311.315523" xlink:href="#mc4a702dba7" y="384.48"/>
      </g>
     </g>
     <g id="text_3">
      <!-- 300 -->
      <g style="fill:#ffffff;" transform="translate(301.771773 399.078438)scale(0.1 -0.1)">
       <defs>
        <path d="M 2597 2516 
Q 3050 2419 3304 2112 
Q 3559 1806 3559 1356 
Q 3559 666 3084 287 
Q 2609 -91 1734 -91 
Q 1441 -91 1130 -33 
Q 819 25 488 141 
L 488 750 
Q 750 597 1062 519 
Q 1375 441 1716 441 
Q 2309 441 2620 675 
Q 2931 909 2931 1356 
Q 2931 1769 2642 2001 
Q 2353 2234 1838 2234 
L 1294 2234 
L 1294 2753 
L 1863 2753 
Q 2328 2753 2575 2939 
Q 2822 3125 2822 3475 
Q 2822 3834 2567 4026 
Q 2313 4219 1838 4219 
Q 1578 4219 1281 4162 
Q 984 4106 628 3988 
L 628 4550 
Q 988 4650 1302 4700 
Q 1616 4750 1894 4750 
Q 2613 4750 3031 4423 
Q 3450 4097 3450 3541 
Q 3450 3153 3228 2886 
Q 3006 2619 2597 2516 
z
" id="DejaVuSans-33" transform="scale(0.015625)"/>
       </defs>
       <use xlink:href="#DejaVuSans-33"/>
       <use x="63.623047" xlink:href="#DejaVuSans-30"/>
       <use x="127.246094" xlink:href="#DejaVuSans-30"/>
      </g>
     </g>
    </g>
    <g id="xtick_4">
     <g id="line2d_4">
      <g>
       <use style="fill:#ffffff;stroke:#ffffff;stroke-width:0.8;" x="421.194093" xlink:href="#mc4a702dba7" y="384.48"/>
      </g>
     </g>
     <g id="text_4">
      <!-- 450 -->
      <g style="fill:#ffffff;" transform="translate(411.650343 399.078438)scale(0.1 -0.1)">
       <defs>
        <path d="M 2419 4116 
L 825 1625 
L 2419 1625 
L 2419 4116 
z
M 2253 4666 
L 3047 4666 
L 3047 1625 
L 3713 1625 
L 3713 1100 
L 3047 1100 
L 3047 0 
L 2419 0 
L 2419 1100 
L 313 1100 
L 313 1709 
L 2253 4666 
z
" id="DejaVuSans-34" transform="scale(0.015625)"/>
       </defs>
       <use xlink:href="#DejaVuSans-34"/>
       <use x="63.623047" xlink:href="#DejaVuSans-35"/>
       <use x="127.246094" xlink:href="#DejaVuSans-30"/>
      </g>
     </g>
    </g>
    <g id="text_5">
     <!-- # Of Trades -->
     <g style="fill:#ffffff;" transform="translate(258.953438 414.585625)scale(0.12 -0.12)">
      <defs>
       <path d="M 1725 1803 
L 3288 1803 
L 3641 3100 
L 2116 3100 
L 1725 1803 
z
M 1141 1803 
L 1522 3100 
L 688 3100 
Q 391 3100 391 3413 
Q 391 3650 853 3650 
L 1678 3650 
Q 1759 4013 1925 4638 
Q 2016 4925 2291 4925 
Q 2394 4925 2461 4842 
Q 2528 4759 2528 4659 
Q 2528 4534 2447 4247 
Q 2309 3750 2288 3650 
L 3803 3650 
Q 3909 4028 4094 4659 
Q 4175 4925 4400 4925 
Q 4663 4925 4663 4681 
Q 4663 4469 4403 3650 
L 5013 3650 
Q 5331 3650 5331 3416 
Q 5331 3088 4978 3088 
Q 4931 3088 4832 3094 
Q 4734 3100 4688 3100 
L 4231 3100 
L 3900 1803 
L 4538 1803 
Q 4766 1803 4859 1769 
Q 5022 1706 5022 1519 
Q 5022 1231 4750 1231 
L 3744 1231 
L 3463 216 
Q 3378 -88 3113 -88 
Q 2856 -88 2856 159 
Q 2856 344 2959 697 
Q 3103 1188 3113 1231 
L 1550 1231 
Q 1456 866 1222 156 
Q 1131 -66 916 -66 
Q 666 -66 666 181 
Q 666 303 738 534 
Q 847 884 956 1231 
L 359 1231 
Q 100 1231 100 1541 
Q 100 1663 206 1738 
Q 297 1803 425 1803 
L 1141 1803 
z
" id="ComicSansMS-23" transform="scale(0.015625)"/>
       <path id="ComicSansMS-20" transform="scale(0.015625)"/>
       <path d="M 2506 -191 
Q 1625 -191 1013 338 
Q 363 900 363 1788 
Q 363 2869 1003 3753 
Q 1719 4734 2788 4734 
Q 3816 4734 4316 4272 
Q 4838 3791 4838 2753 
Q 4838 1672 4250 803 
Q 3575 -191 2506 -191 
z
M 2788 4094 
Q 2022 4094 1491 3331 
Q 1000 2631 1000 1788 
Q 1000 1184 1447 806 
Q 1875 450 2506 450 
Q 3266 450 3759 1216 
Q 4200 1900 4200 2753 
Q 4200 3500 3866 3803 
Q 3547 4094 2788 4094 
z
" id="ComicSansMS-4f" transform="scale(0.015625)"/>
       <path d="M 2534 4394 
Q 1778 4394 1688 3344 
L 1678 3150 
Q 2209 3188 2366 3188 
Q 2863 3188 2863 2875 
Q 2863 2647 2619 2603 
Q 2513 2584 2370 2589 
Q 2228 2594 1650 2547 
L 1625 1834 
Q 1625 1641 1637 1253 
Q 1650 866 1650 675 
Q 1650 81 1581 -250 
Q 1528 -500 1291 -500 
Q 1163 -500 1072 -417 
Q 981 -334 981 -209 
Q 981 -184 988 -147 
Q 1053 259 1053 738 
L 1044 1591 
L 1044 2497 
Q 653 2466 550 2466 
Q 234 2466 234 2769 
Q 234 3078 781 3094 
L 1081 3103 
Q 1091 3278 1128 3578 
Q 1209 4272 1478 4600 
Q 1803 4997 2494 4997 
Q 2941 4997 2941 4694 
Q 2941 4394 2534 4394 
z
" id="ComicSansMS-66" transform="scale(0.015625)"/>
       <path d="M 4256 3947 
Q 4025 3947 3544 3984 
Q 3075 4019 2831 4016 
L 2609 4016 
Q 2619 3584 2694 2616 
Q 2763 1713 2763 1213 
Q 2763 1103 2784 881 
Q 2806 659 2806 547 
Q 2806 334 2738 181 
Q 2650 -25 2466 -25 
Q 2341 -25 2241 62 
Q 2141 150 2141 288 
Q 2141 334 2156 428 
Q 2172 522 2172 569 
Q 2172 722 2151 1028 
Q 2131 1334 2131 1491 
Q 2131 1938 2059 2747 
Q 1984 3622 1975 4003 
L 1691 4000 
Q 1006 4000 616 4100 
Q 363 4166 363 4409 
Q 363 4538 444 4634 
Q 538 4744 684 4734 
Q 794 4728 1184 4678 
Q 1497 4641 1691 4641 
Q 1878 4641 2259 4648 
Q 2641 4656 2828 4656 
Q 3069 4656 3542 4622 
Q 4016 4588 4256 4588 
Q 4391 4588 4481 4495 
Q 4572 4403 4572 4266 
Q 4572 4131 4481 4039 
Q 4391 3947 4256 3947 
z
" id="ComicSansMS-54" transform="scale(0.015625)"/>
       <path d="M 2866 2309 
Q 2844 1919 2553 1919 
Q 2284 1919 2284 2228 
Q 2284 2288 2275 2447 
L 2266 2709 
Q 1772 2650 1475 2431 
Q 1197 2228 1013 1819 
L 1019 106 
Q 1019 -209 709 -209 
Q 434 -209 434 106 
L 434 2300 
Q 434 2403 442 2609 
Q 450 2816 450 2919 
Q 450 3234 725 3234 
Q 1031 3234 1034 2716 
Q 1634 3294 2366 3294 
Q 2619 3294 2744 3103 
Q 2869 2913 2869 2528 
Q 2869 2366 2866 2309 
z
" id="ComicSansMS-72" transform="scale(0.015625)"/>
       <path d="M 2875 -206 
Q 2816 -206 2659 -69 
Q 2519 59 2450 159 
Q 2150 -3 1922 -86 
Q 1694 -169 1541 -169 
Q 809 -169 475 244 
Q 159 631 159 1431 
Q 159 2188 679 2725 
Q 1200 3263 1922 3263 
Q 2194 3263 2531 3122 
Q 2956 2947 2956 2700 
Q 2956 2616 2894 2550 
Q 2863 2431 2845 2159 
Q 2828 1888 2825 1463 
Q 2822 1075 2878 850 
Q 2909 713 3075 300 
Q 3097 244 3147 134 
L 3166 81 
Q 3166 -44 3078 -125 
Q 2991 -206 2875 -206 
z
M 2225 1966 
Q 2225 2100 2242 2258 
Q 2259 2416 2294 2594 
Q 2178 2653 2095 2681 
Q 2013 2709 1963 2709 
Q 1478 2709 1126 2314 
Q 775 1919 775 1403 
Q 775 891 956 634 
Q 1138 378 1500 378 
Q 1800 378 2009 488 
Q 2122 547 2325 725 
Q 2225 1553 2225 1966 
z
" id="ComicSansMS-61" transform="scale(0.015625)"/>
       <path d="M 3313 2759 
Q 3275 2300 3275 1841 
Q 3275 800 3372 269 
Q 3378 225 3378 197 
Q 3378 72 3290 -9 
Q 3203 -91 3088 -91 
Q 2894 -91 2803 191 
Q 2578 25 2336 -59 
Q 2094 -144 1831 -144 
Q 1184 -144 759 288 
Q 322 728 322 1419 
Q 322 2253 764 2756 
Q 1206 3259 1913 3259 
Q 2275 3259 2472 3147 
L 2766 2931 
Q 2809 4247 2869 4703 
Q 2909 4981 3153 4981 
Q 3438 4981 3438 4678 
Q 3438 4244 3313 2759 
z
M 1925 2678 
Q 1400 2678 1137 2367 
Q 875 2056 875 1431 
Q 875 1028 1161 737 
Q 1447 447 1831 447 
Q 2094 447 2275 544 
Q 2381 600 2622 803 
Q 2669 844 2713 900 
L 2703 1441 
L 2706 1803 
L 2713 2172 
Q 2594 2425 2397 2551 
Q 2200 2678 1925 2678 
z
" id="ComicSansMS-64" transform="scale(0.015625)"/>
       <path d="M 1894 -144 
Q 1188 -144 750 209 
Q 272 600 272 1303 
Q 272 2116 666 2666 
Q 1094 3266 1809 3266 
Q 2328 3266 2656 3091 
Q 3059 2875 3059 2428 
Q 3059 2116 2706 1859 
Q 2550 1747 2044 1509 
L 850 944 
Q 1025 684 1286 553 
Q 1547 422 1894 422 
Q 2109 422 2400 503 
Q 2769 606 2875 773 
Q 2981 941 3103 941 
Q 3213 941 3298 858 
Q 3384 775 3384 666 
Q 3384 319 2825 69 
Q 2347 -144 1894 -144 
z
M 1809 2703 
Q 1428 2703 1175 2408 
Q 922 2113 797 1519 
L 1756 1975 
Q 2322 2250 2563 2453 
Q 2294 2703 1809 2703 
z
" id="ComicSansMS-65" transform="scale(0.015625)"/>
       <path d="M 2544 2406 
Q 2372 2406 2303 2522 
Q 2256 2603 2222 2859 
Q 1988 2800 1500 2641 
Q 997 2441 994 2147 
Q 1088 2113 1178 2097 
Q 1897 1969 2247 1744 
Q 2756 1416 2756 794 
Q 2756 284 2316 25 
Q 1950 -188 1391 -188 
Q 981 -188 609 -50 
Q 128 125 128 438 
Q 128 563 226 656 
Q 325 750 450 750 
Q 547 750 700 600 
Q 775 528 1038 481 
Q 1247 444 1391 444 
Q 1653 444 1853 506 
Q 2144 597 2144 794 
Q 2144 1219 1550 1369 
L 1225 1441 
Q 809 1531 634 1653 
Q 381 1828 381 2181 
Q 381 2834 997 3113 
Q 1184 3197 1596 3314 
Q 2009 3431 2188 3513 
Q 2316 3569 2466 3569 
Q 2600 3569 2686 3481 
Q 2772 3394 2772 3253 
Q 2772 3163 2811 2988 
Q 2850 2813 2850 2722 
Q 2850 2581 2764 2493 
Q 2678 2406 2544 2406 
z
" id="ComicSansMS-73" transform="scale(0.015625)"/>
      </defs>
      <use xlink:href="#ComicSansMS-23"/>
      <use x="84.277344" xlink:href="#ComicSansMS-20"/>
      <use x="114.160156" xlink:href="#ComicSansMS-4f"/>
      <use x="193.994141" xlink:href="#ComicSansMS-66"/>
      <use x="244.824219" xlink:href="#ComicSansMS-20"/>
      <use x="274.707031" xlink:href="#ComicSansMS-54"/>
      <use x="342.675781" xlink:href="#ComicSansMS-72"/>
      <use x="390.722656" xlink:href="#ComicSansMS-61"/>
      <use x="441.894531" xlink:href="#ComicSansMS-64"/>
      <use x="500.634766" xlink:href="#ComicSansMS-65"/>
      <use x="555.419922" xlink:href="#ComicSansMS-73"/>
     </g>
    </g>
   </g>
   <g id="matplotlib.axis_2">
    <g id="ytick_1">
     <g id="line2d_5">
      <defs>
       <path d="M 0 0 
L -3.5 0 
" id="me814752082" style="stroke:#ffffff;stroke-width:0.8;"/>
      </defs>
      <g>
       <use style="fill:#ffffff;stroke:#ffffff;stroke-width:0.8;" x="72" xlink:href="#me814752082" y="369.36"/>
      </g>
     </g>
     <g id="text_6">
      <!-- 0 -->
      <g style="fill:#ffffff;" transform="translate(58.6375 373.159219)scale(0.1 -0.1)">
       <use xlink:href="#DejaVuSans-30"/>
      </g>
     </g>
    </g>
    <g id="ytick_2">
     <g id="line2d_6">
      <g>
       <use style="fill:#ffffff;stroke:#ffffff;stroke-width:0.8;" x="72" xlink:href="#me814752082" y="307.073697"/>
      </g>
     </g>
     <g id="text_7">
      <!-- 200 -->
      <g style="fill:#ffffff;" transform="translate(45.9125 310.872916)scale(0.1 -0.1)">
       <defs>
        <path d="M 1228 531 
L 3431 531 
L 3431 0 
L 469 0 
L 469 531 
Q 828 903 1448 1529 
Q 2069 2156 2228 2338 
Q 2531 2678 2651 2914 
Q 2772 3150 2772 3378 
Q 2772 3750 2511 3984 
Q 2250 4219 1831 4219 
Q 1534 4219 1204 4116 
Q 875 4013 500 3803 
L 500 4441 
Q 881 4594 1212 4672 
Q 1544 4750 1819 4750 
Q 2544 4750 2975 4387 
Q 3406 4025 3406 3419 
Q 3406 3131 3298 2873 
Q 3191 2616 2906 2266 
Q 2828 2175 2409 1742 
Q 1991 1309 1228 531 
z
" id="DejaVuSans-32" transform="scale(0.015625)"/>
       </defs>
       <use xlink:href="#DejaVuSans-32"/>
       <use x="63.623047" xlink:href="#DejaVuSans-30"/>
       <use x="127.246094" xlink:href="#DejaVuSans-30"/>
      </g>
     </g>
    </g>
    <g id="ytick_3">
     <g id="line2d_7">
      <g>
       <use style="fill:#ffffff;stroke:#ffffff;stroke-width:0.8;" x="72" xlink:href="#me814752082" y="244.787394"/>
      </g>
     </g>
     <g id="text_8">
      <!-- 400 -->
      <g style="fill:#ffffff;" transform="translate(45.9125 248.586613)scale(0.1 -0.1)">
       <use xlink:href="#DejaVuSans-34"/>
       <use x="63.623047" xlink:href="#DejaVuSans-30"/>
       <use x="127.246094" xlink:href="#DejaVuSans-30"/>
      </g>
     </g>
    </g>
    <g id="ytick_4">
     <g id="line2d_8">
      <g>
       <use style="fill:#ffffff;stroke:#ffffff;stroke-width:0.8;" x="72" xlink:href="#me814752082" y="182.501092"/>
      </g>
     </g>
     <g id="text_9">
      <!-- 600 -->
      <g style="fill:#ffffff;" transform="translate(45.9125 186.30031)scale(0.1 -0.1)">
       <defs>
        <path d="M 2113 2584 
Q 1688 2584 1439 2293 
Q 1191 2003 1191 1497 
Q 1191 994 1439 701 
Q 1688 409 2113 409 
Q 2538 409 2786 701 
Q 3034 994 3034 1497 
Q 3034 2003 2786 2293 
Q 2538 2584 2113 2584 
z
M 3366 4563 
L 3366 3988 
Q 3128 4100 2886 4159 
Q 2644 4219 2406 4219 
Q 1781 4219 1451 3797 
Q 1122 3375 1075 2522 
Q 1259 2794 1537 2939 
Q 1816 3084 2150 3084 
Q 2853 3084 3261 2657 
Q 3669 2231 3669 1497 
Q 3669 778 3244 343 
Q 2819 -91 2113 -91 
Q 1303 -91 875 529 
Q 447 1150 447 2328 
Q 447 3434 972 4092 
Q 1497 4750 2381 4750 
Q 2619 4750 2861 4703 
Q 3103 4656 3366 4563 
z
" id="DejaVuSans-36" transform="scale(0.015625)"/>
       </defs>
       <use xlink:href="#DejaVuSans-36"/>
       <use x="63.623047" xlink:href="#DejaVuSans-30"/>
       <use x="127.246094" xlink:href="#DejaVuSans-30"/>
      </g>
     </g>
    </g>
    <g id="ytick_5">
     <g id="line2d_9">
      <g>
       <use style="fill:#ffffff;stroke:#ffffff;stroke-width:0.8;" x="72" xlink:href="#me814752082" y="120.214789"/>
      </g>
     </g>
     <g id="text_10">
      <!-- 800 -->
      <g style="fill:#ffffff;" transform="translate(45.9125 124.014008)scale(0.1 -0.1)">
       <defs>
        <path d="M 2034 2216 
Q 1584 2216 1326 1975 
Q 1069 1734 1069 1313 
Q 1069 891 1326 650 
Q 1584 409 2034 409 
Q 2484 409 2743 651 
Q 3003 894 3003 1313 
Q 3003 1734 2745 1975 
Q 2488 2216 2034 2216 
z
M 1403 2484 
Q 997 2584 770 2862 
Q 544 3141 544 3541 
Q 544 4100 942 4425 
Q 1341 4750 2034 4750 
Q 2731 4750 3128 4425 
Q 3525 4100 3525 3541 
Q 3525 3141 3298 2862 
Q 3072 2584 2669 2484 
Q 3125 2378 3379 2068 
Q 3634 1759 3634 1313 
Q 3634 634 3220 271 
Q 2806 -91 2034 -91 
Q 1263 -91 848 271 
Q 434 634 434 1313 
Q 434 1759 690 2068 
Q 947 2378 1403 2484 
z
M 1172 3481 
Q 1172 3119 1398 2916 
Q 1625 2713 2034 2713 
Q 2441 2713 2670 2916 
Q 2900 3119 2900 3481 
Q 2900 3844 2670 4047 
Q 2441 4250 2034 4250 
Q 1625 4250 1398 4047 
Q 1172 3844 1172 3481 
z
" id="DejaVuSans-38" transform="scale(0.015625)"/>
       </defs>
       <use xlink:href="#DejaVuSans-38"/>
       <use x="63.623047" xlink:href="#DejaVuSans-30"/>
       <use x="127.246094" xlink:href="#DejaVuSans-30"/>
      </g>
     </g>
    </g>
    <g id="ytick_6">
     <g id="line2d_10">
      <g>
       <use style="fill:#ffffff;stroke:#ffffff;stroke-width:0.8;" x="72" xlink:href="#me814752082" y="57.928486"/>
      </g>
     </g>
     <g id="text_11">
      <!-- 1000 -->
      <g style="fill:#ffffff;" transform="translate(39.55 61.727705)scale(0.1 -0.1)">
       <use xlink:href="#DejaVuSans-31"/>
       <use x="63.623047" xlink:href="#DejaVuSans-30"/>
       <use x="127.246094" xlink:href="#DejaVuSans-30"/>
       <use x="190.869141" xlink:href="#DejaVuSans-30"/>
      </g>
     </g>
    </g>
    <g id="text_12">
     <!-- ₡urrency Things -->
     <g style="fill:#ffffff;" transform="translate(33.054375 266.595937)rotate(-90)scale(0.12 -0.12)">
      <defs>
       <path d="M 2725 4734 
Q 2928 4709 3122 4650 
L 3216 4978 
L 3700 4978 
L 3553 4463 
Q 3678 4394 3794 4306 
L 3794 3641 
Q 3613 3828 3413 3956 
L 2416 428 
L 2472 428 
Q 2844 428 3173 575 
Q 3503 722 3794 1019 
L 3794 359 
Q 3491 134 3153 21 
Q 2816 -91 2438 -91 
Q 2353 -91 2272 -84 
L 2216 -281 
L 1731 -281 
L 1809 -9 
Q 1606 47 1428 141 
L 1309 -281 
L 825 -281 
L 1028 438 
Q 969 494 916 559 
Q 359 1206 359 2328 
Q 359 3453 916 4103 
Q 1416 4681 2241 4744 
L 2306 4978 
L 2794 4978 
L 2725 4734 
z
M 2084 4191 
Q 1631 4094 1356 3744 
Q 966 3253 966 2328 
Q 966 1584 1222 1122 
L 2084 4191 
z
M 2984 4156 
Q 2791 4216 2581 4228 
L 1584 694 
Q 1750 569 1953 503 
L 2984 4156 
z
" id="DejaVuSans-20a1" transform="scale(0.015625)"/>
       <path d="M 544 1381 
L 544 3500 
L 1119 3500 
L 1119 1403 
Q 1119 906 1312 657 
Q 1506 409 1894 409 
Q 2359 409 2629 706 
Q 2900 1003 2900 1516 
L 2900 3500 
L 3475 3500 
L 3475 0 
L 2900 0 
L 2900 538 
Q 2691 219 2414 64 
Q 2138 -91 1772 -91 
Q 1169 -91 856 284 
Q 544 659 544 1381 
z
M 1991 3584 
L 1991 3584 
z
" id="DejaVuSans-75" transform="scale(0.015625)"/>
       <path d="M 2631 2963 
Q 2534 3019 2420 3045 
Q 2306 3072 2169 3072 
Q 1681 3072 1420 2755 
Q 1159 2438 1159 1844 
L 1159 0 
L 581 0 
L 581 3500 
L 1159 3500 
L 1159 2956 
Q 1341 3275 1631 3429 
Q 1922 3584 2338 3584 
Q 2397 3584 2469 3576 
Q 2541 3569 2628 3553 
L 2631 2963 
z
" id="DejaVuSans-72" transform="scale(0.015625)"/>
       <path d="M 3597 1894 
L 3597 1613 
L 953 1613 
Q 991 1019 1311 708 
Q 1631 397 2203 397 
Q 2534 397 2845 478 
Q 3156 559 3463 722 
L 3463 178 
Q 3153 47 2828 -22 
Q 2503 -91 2169 -91 
Q 1331 -91 842 396 
Q 353 884 353 1716 
Q 353 2575 817 3079 
Q 1281 3584 2069 3584 
Q 2775 3584 3186 3129 
Q 3597 2675 3597 1894 
z
M 3022 2063 
Q 3016 2534 2758 2815 
Q 2500 3097 2075 3097 
Q 1594 3097 1305 2825 
Q 1016 2553 972 2059 
L 3022 2063 
z
" id="DejaVuSans-65" transform="scale(0.015625)"/>
       <path d="M 3513 2113 
L 3513 0 
L 2938 0 
L 2938 2094 
Q 2938 2591 2744 2837 
Q 2550 3084 2163 3084 
Q 1697 3084 1428 2787 
Q 1159 2491 1159 1978 
L 1159 0 
L 581 0 
L 581 3500 
L 1159 3500 
L 1159 2956 
Q 1366 3272 1645 3428 
Q 1925 3584 2291 3584 
Q 2894 3584 3203 3211 
Q 3513 2838 3513 2113 
z
" id="DejaVuSans-6e" transform="scale(0.015625)"/>
       <path d="M 3122 3366 
L 3122 2828 
Q 2878 2963 2633 3030 
Q 2388 3097 2138 3097 
Q 1578 3097 1268 2742 
Q 959 2388 959 1747 
Q 959 1106 1268 751 
Q 1578 397 2138 397 
Q 2388 397 2633 464 
Q 2878 531 3122 666 
L 3122 134 
Q 2881 22 2623 -34 
Q 2366 -91 2075 -91 
Q 1284 -91 818 406 
Q 353 903 353 1747 
Q 353 2603 823 3093 
Q 1294 3584 2113 3584 
Q 2378 3584 2631 3529 
Q 2884 3475 3122 3366 
z
" id="DejaVuSans-63" transform="scale(0.015625)"/>
       <path d="M 2059 -325 
Q 1816 -950 1584 -1140 
Q 1353 -1331 966 -1331 
L 506 -1331 
L 506 -850 
L 844 -850 
Q 1081 -850 1212 -737 
Q 1344 -625 1503 -206 
L 1606 56 
L 191 3500 
L 800 3500 
L 1894 763 
L 2988 3500 
L 3597 3500 
L 2059 -325 
z
" id="DejaVuSans-79" transform="scale(0.015625)"/>
       <path id="DejaVuSans-20" transform="scale(0.015625)"/>
       <path d="M -19 4666 
L 3928 4666 
L 3928 4134 
L 2272 4134 
L 2272 0 
L 1638 0 
L 1638 4134 
L -19 4134 
L -19 4666 
z
" id="DejaVuSans-54" transform="scale(0.015625)"/>
       <path d="M 3513 2113 
L 3513 0 
L 2938 0 
L 2938 2094 
Q 2938 2591 2744 2837 
Q 2550 3084 2163 3084 
Q 1697 3084 1428 2787 
Q 1159 2491 1159 1978 
L 1159 0 
L 581 0 
L 581 4863 
L 1159 4863 
L 1159 2956 
Q 1366 3272 1645 3428 
Q 1925 3584 2291 3584 
Q 2894 3584 3203 3211 
Q 3513 2838 3513 2113 
z
" id="DejaVuSans-68" transform="scale(0.015625)"/>
       <path d="M 603 3500 
L 1178 3500 
L 1178 0 
L 603 0 
L 603 3500 
z
M 603 4863 
L 1178 4863 
L 1178 4134 
L 603 4134 
L 603 4863 
z
" id="DejaVuSans-69" transform="scale(0.015625)"/>
       <path d="M 2906 1791 
Q 2906 2416 2648 2759 
Q 2391 3103 1925 3103 
Q 1463 3103 1205 2759 
Q 947 2416 947 1791 
Q 947 1169 1205 825 
Q 1463 481 1925 481 
Q 2391 481 2648 825 
Q 2906 1169 2906 1791 
z
M 3481 434 
Q 3481 -459 3084 -895 
Q 2688 -1331 1869 -1331 
Q 1566 -1331 1297 -1286 
Q 1028 -1241 775 -1147 
L 775 -588 
Q 1028 -725 1275 -790 
Q 1522 -856 1778 -856 
Q 2344 -856 2625 -561 
Q 2906 -266 2906 331 
L 2906 616 
Q 2728 306 2450 153 
Q 2172 0 1784 0 
Q 1141 0 747 490 
Q 353 981 353 1791 
Q 353 2603 747 3093 
Q 1141 3584 1784 3584 
Q 2172 3584 2450 3431 
Q 2728 3278 2906 2969 
L 2906 3500 
L 3481 3500 
L 3481 434 
z
" id="DejaVuSans-67" transform="scale(0.015625)"/>
       <path d="M 2834 3397 
L 2834 2853 
Q 2591 2978 2328 3040 
Q 2066 3103 1784 3103 
Q 1356 3103 1142 2972 
Q 928 2841 928 2578 
Q 928 2378 1081 2264 
Q 1234 2150 1697 2047 
L 1894 2003 
Q 2506 1872 2764 1633 
Q 3022 1394 3022 966 
Q 3022 478 2636 193 
Q 2250 -91 1575 -91 
Q 1294 -91 989 -36 
Q 684 19 347 128 
L 347 722 
Q 666 556 975 473 
Q 1284 391 1588 391 
Q 1994 391 2212 530 
Q 2431 669 2431 922 
Q 2431 1156 2273 1281 
Q 2116 1406 1581 1522 
L 1381 1569 
Q 847 1681 609 1914 
Q 372 2147 372 2553 
Q 372 3047 722 3315 
Q 1072 3584 1716 3584 
Q 2034 3584 2315 3537 
Q 2597 3491 2834 3397 
z
" id="DejaVuSans-73" transform="scale(0.015625)"/>
      </defs>
      <use xlink:href="#DejaVuSans-20a1"/>
      <use x="63.623047" xlink:href="#DejaVuSans-75"/>
      <use x="127.001953" xlink:href="#DejaVuSans-72"/>
      <use x="166.365234" xlink:href="#DejaVuSans-72"/>
      <use x="205.228516" xlink:href="#DejaVuSans-65"/>
      <use x="266.751953" xlink:href="#DejaVuSans-6e"/>
      <use x="330.130859" xlink:href="#DejaVuSans-63"/>
      <use x="385.111328" xlink:href="#DejaVuSans-79"/>
      <use x="444.291016" xlink:href="#DejaVuSans-20"/>
      <use x="476.078125" xlink:href="#DejaVuSans-54"/>
      <use x="537.162109" xlink:href="#DejaVuSans-68"/>
      <use x="600.541016" xlink:href="#DejaVuSans-69"/>
      <use x="628.324219" xlink:href="#DejaVuSans-6e"/>
      <use x="691.703125" xlink:href="#DejaVuSans-67"/>
      <use x="755.179688" xlink:href="#DejaVuSans-73"/>
     </g>
    </g>
   </g>
   <g id="line2d_11">
    <path clip-path="url(#p181d18acb3)" d="M 92.290909 369.048568 
L 94.48848 365.934253 
L 96.686052 365.31139 
L 98.151099 361.574212 
L 101.081195 360.328486 
L 103.278766 360.951349 
L 104.743814 360.017055 
L 106.941385 359.705623 
L 109.87148 355.03415 
L 114.266623 354.722719 
L 116.464194 354.411287 
L 118.661766 353.476993 
L 121.591861 352.85413 
L 124.521956 343.511184 
L 127.452051 337.593986 
L 130.382146 336.659691 
L 132.579718 335.725396 
L 136.242337 335.413965 
L 138.439908 333.545376 
L 143.567575 332.611081 
L 149.427765 330.742492 
L 152.35786 330.431061 
L 156.753003 330.119629 
L 158.950574 329.808198 
L 161.88067 318.908095 
L 164.810765 313.613759 
L 168.473384 310.810875 
L 172.136003 310.499444 
L 175.066098 308.942286 
L 179.461241 308.319423 
L 180.193764 308.630855 
L 181.658812 302.402225 
L 184.588907 301.779361 
L 188.98405 297.107889 
L 194.111716 296.485026 
L 195.576764 294.616437 
L 198.506859 291.19069 
L 201.436954 289.010669 
L 203.634526 274.373388 
L 205.832097 275.307683 
L 207.297145 268.144758 
L 210.22724 267.833326 
L 211.692287 266.899032 
L 214.622383 261.916128 
L 219.750049 259.113244 
L 222.680144 258.801813 
L 224.877716 252.573182 
L 227.807811 243.8531 
L 230.737906 238.870196 
L 235.865573 232.641565 
L 243.923334 227.035798 
L 247.585953 224.855778 
L 251.248572 218.938579 
L 255.643715 218.315716 
L 256.376239 217.692853 
L 257.108763 219.25001 
L 258.57381 208.349907 
L 261.503905 203.678435 
L 265.166524 201.809846 
L 270.294191 200.252688 
L 273.224286 194.024058 
L 275.421858 193.712626 
L 276.886905 187.483996 
L 279.817 184.681112 
L 284.212143 182.18966 
L 286.409714 181.878229 
L 288.607286 180.943934 
L 291.537381 178.452482 
L 295.932524 170.978126 
L 298.862619 164.438064 
L 301.792714 156.340844 
L 304.722809 156.029413 
L 306.187857 154.160824 
L 309.117952 148.243625 
L 312.048047 146.997899 
L 314.978142 146.375036 
L 315.710666 144.817878 
L 316.44319 145.440742 
L 317.908238 137.654954 
L 320.838333 136.720659 
L 323.768428 130.492029 
L 326.698523 128.62344 
L 328.896095 128.312008 
L 330.361142 120.52622 
L 334.756285 118.3462 
L 338.418904 108.691823 
L 341.348999 108.380391 
L 343.54657 107.757528 
L 345.744142 105.266076 
L 348.674237 96.545994 
L 351.604332 94.677405 
L 354.534427 91.251658 
L 356.731999 90.940227 
L 358.197046 88.137343 
L 360.394618 181.566797 
L 361.127141 180.943934 
L 361.859665 177.829619 
L 362.592189 177.518187 
L 364.057237 176.272461 
L 366.987332 175.338167 
L 369.917427 171.289557 
L 372.847522 169.109537 
L 375.045094 165.995221 
L 376.510141 197.138373 
L 377.242665 259.424676 
L 377.975189 352.85413 
L 378.707713 214.578538 
L 379.440236 213.644243 
L 383.835379 208.97277 
L 386.765474 207.104181 
L 389.695569 206.79275 
L 392.625665 203.055572 
L 395.55576 198.384099 
L 398.485855 194.024058 
L 401.41595 192.155469 
L 404.346045 189.041153 
L 407.27614 188.106859 
L 410.206236 186.549701 
L 413.136331 185.926838 
L 415.333902 184.369681 
L 418.263997 171.289557 
L 421.194093 170.978126 
L 424.124188 145.752173 
L 427.054283 143.883584 
L 429.984378 140.769269 
L 434.379521 138.589248 
L 437.309616 137.654954 
L 440.239711 136.097796 
L 443.169806 134.229207 
L 446.099902 133.917775 
L 447.564949 132.049186 
L 450.495044 130.180597 
L 453.425139 128.934871 
L 456.355235 128.62344 
L 457.820282 97.480288 
L 459.28533 94.054542 
L 462.215425 93.74311 
L 464.412996 92.185953 
L 467.343092 88.137343 
L 473.203282 86.891617 
L 476.133377 84.711596 
L 478.330948 84.400165 
L 481.993567 80.351555 
L 485.656186 79.105829 
L 490.051329 76.302945 
L 492.248901 75.991514 
L 494.446472 75.057219 
L 498.109091 66.96 
L 498.109091 66.96 
" style="fill:none;"/>
   </g>
   <g id="patch_3">
    <path d="M 72 384.48 
L 72 51.84 
" style="fill:none;stroke:#ffffff;stroke-linecap:square;stroke-linejoin:miter;stroke-width:0.8;"/>
   </g>
   <g id="patch_4">
    <path d="M 518.4 384.48 
L 518.4 51.84 
" style="fill:none;stroke:#000000;stroke-linecap:square;stroke-linejoin:miter;stroke-width:0.8;"/>
   </g>
   <g id="patch_5">
    <path d="M 72 384.48 
L 518.4 384.48 
" style="fill:none;stroke:#ffffff;stroke-linecap:square;stroke-linejoin:miter;stroke-width:0.8;"/>
   </g>
   <g id="patch_6">
    <path d="M 72 51.84 
L 518.4 51.84 
" style="fill:none;stroke:#000000;stroke-linecap:square;stroke-linejoin:miter;stroke-width:0.8;"/>
   </g>
   <g id="text_13">
    <!-- Networth Over Time -->
    <g style="fill:#ffffff;" transform="translate(197.692187 45.84)scale(0.2 -0.2)">
     <defs>
      <path d="M 4816 694 
Q 4816 544 4766 194 
Q 4716 -122 4431 -122 
Q 4259 -122 4022 103 
Q 2750 1306 1103 3575 
L 1088 2866 
L 1078 2153 
Q 1078 1894 1089 1375 
Q 1100 856 1100 594 
Q 1100 -247 775 -247 
Q 603 -247 503 -138 
Q 413 -41 413 94 
Q 413 225 433 490 
Q 453 756 453 888 
Q 453 1081 465 1467 
Q 478 1853 478 2047 
Q 478 2253 468 2670 
Q 459 3088 459 3294 
Q 459 3491 421 3880 
Q 384 4269 384 4466 
Q 384 4609 507 4728 
Q 631 4847 788 4847 
Q 953 4847 1197 4484 
Q 1975 3319 2597 2547 
Q 3338 1631 4222 797 
Q 4231 931 4222 1194 
L 4213 1588 
Q 4213 2959 4106 3772 
Q 4094 3853 4022 4100 
Q 3959 4313 3959 4431 
Q 3959 4794 4291 4794 
Q 4834 4794 4834 2766 
Q 4834 2419 4825 1730 
Q 4816 1041 4816 694 
z
" id="ComicSansMS-4e" transform="scale(0.015625)"/>
      <path d="M 2525 2663 
Q 2459 2663 2370 2669 
Q 2281 2675 2216 2675 
Q 2144 2675 1791 2628 
L 1850 781 
L 1853 644 
L 1856 484 
Q 1869 -200 1528 -200 
Q 1403 -200 1311 -119 
Q 1219 -38 1219 84 
Q 1219 203 1228 440 
Q 1238 678 1238 797 
L 1175 2622 
Q 947 2631 481 2675 
Q 203 2713 203 2984 
Q 203 3122 287 3212 
Q 372 3303 503 3303 
L 1159 3250 
Q 1159 3409 1145 3676 
Q 1131 3944 1131 4063 
Q 1131 4194 1222 4280 
Q 1313 4366 1444 4366 
Q 1725 4366 1772 3906 
Q 1781 3791 1781 3628 
L 1775 3447 
L 1772 3253 
Q 2159 3303 2216 3303 
Q 2541 3303 2641 3272 
Q 2831 3209 2831 2978 
Q 2831 2841 2745 2752 
Q 2659 2663 2525 2663 
z
" id="ComicSansMS-74" transform="scale(0.015625)"/>
      <path d="M 4175 2797 
Q 3931 1778 3538 494 
Q 3450 209 3247 -91 
Q 3138 -256 2950 -253 
Q 2609 -247 2419 594 
Q 2356 863 2291 1325 
L 2188 2022 
L 1931 1425 
L 1456 134 
Q 1416 16 1338 -47 
Q 1244 -228 1038 -234 
Q 800 -244 578 697 
Q 466 1181 353 2009 
L 278 2478 
Q 238 2759 238 2950 
Q 238 3081 330 3167 
Q 422 3253 553 3253 
Q 791 3253 847 2994 
Q 888 2809 913 2538 
L 959 2078 
L 1144 675 
Q 1491 1638 1863 2894 
Q 1966 3241 2222 3241 
Q 2469 3241 2556 2853 
Q 2638 2488 2759 1728 
Q 2884 941 2981 500 
L 3209 1350 
L 3613 3053 
Q 3659 3244 3881 3244 
Q 4013 3244 4109 3155 
Q 4206 3066 4206 2941 
Q 4206 2925 4175 2797 
z
" id="ComicSansMS-77" transform="scale(0.015625)"/>
      <path d="M 1606 -184 
Q 1081 -184 703 203 
Q 281 634 259 1363 
Q 241 2069 616 2606 
Q 1053 3241 1834 3241 
Q 2459 3241 2781 2669 
Q 3038 2206 3028 1556 
Q 3019 863 2666 372 
Q 2266 -184 1606 -184 
z
M 1794 2606 
Q 1334 2609 1078 2169 
Q 875 1816 875 1363 
Q 875 909 1122 656 
Q 1328 447 1606 447 
Q 1931 447 2166 684 
Q 2431 947 2447 1394 
Q 2491 2603 1794 2606 
z
" id="ComicSansMS-6f" transform="scale(0.015625)"/>
      <path d="M 3050 -194 
Q 2828 -194 2759 44 
Q 2688 300 2628 772 
Q 2572 1225 2572 1516 
Q 2572 1597 2580 1762 
Q 2588 1928 2588 2009 
Q 2588 2597 2294 2597 
Q 1897 2597 1584 2238 
Q 1425 2053 1147 1534 
Q 1147 344 1047 125 
Q 959 -69 775 -69 
Q 647 -69 550 18 
Q 453 106 453 231 
Q 453 275 481 369 
Q 506 447 516 825 
L 525 1288 
L 534 3584 
Q 556 3972 556 4106 
Q 556 4266 526 4408 
Q 497 4550 497 4703 
Q 497 4834 587 4920 
Q 678 5006 809 5006 
Q 1066 5006 1109 4731 
Q 1159 4428 1159 4184 
Q 1159 3856 1138 3500 
Q 1119 3159 1122 2816 
L 1125 2541 
Q 1381 2884 1673 3054 
Q 1966 3225 2294 3225 
Q 2813 3225 3006 2888 
Q 3144 2650 3163 2088 
L 3188 1491 
L 3250 841 
Q 3294 475 3356 197 
Q 3369 144 3369 106 
Q 3369 -22 3275 -108 
Q 3181 -194 3050 -194 
z
" id="ComicSansMS-68" transform="scale(0.015625)"/>
      <path d="M 1875 163 
Q 1866 -125 1591 -125 
Q 1363 -125 1259 144 
L 781 1413 
L 225 2847 
Q 194 2928 194 2991 
Q 194 3119 291 3209 
Q 388 3300 516 3300 
Q 703 3300 784 3109 
L 1578 925 
Q 1813 1425 2169 2375 
Q 2253 2625 2434 3081 
Q 2531 3281 2709 3281 
Q 2838 3281 2934 3190 
Q 3031 3100 3031 2975 
Q 3031 2856 2516 1638 
L 1875 163 
z
" id="ComicSansMS-76" transform="scale(0.015625)"/>
      <path d="M 1031 3956 
Q 881 3956 772 4062 
Q 663 4169 663 4319 
Q 663 4469 772 4575 
Q 881 4681 1031 4681 
Q 1181 4681 1289 4575 
Q 1397 4469 1397 4319 
Q 1397 4169 1289 4062 
Q 1181 3956 1031 3956 
z
M 1172 1419 
Q 1172 1231 1183 857 
Q 1194 484 1194 297 
Q 1194 159 1109 71 
Q 1025 -16 888 -16 
Q 753 -16 667 71 
Q 581 159 581 297 
Q 581 484 570 857 
Q 559 1231 559 1419 
Q 559 1713 590 2152 
Q 622 2591 622 2884 
Q 622 3025 708 3112 
Q 794 3200 928 3200 
Q 1063 3200 1148 3112 
Q 1234 3025 1234 2884 
Q 1234 2591 1203 2152 
Q 1172 1713 1172 1419 
z
" id="ComicSansMS-69" transform="scale(0.015625)"/>
      <path d="M 4403 -259 
Q 4147 -259 4103 13 
Q 4047 356 3991 981 
L 3884 1950 
Q 3853 2166 3778 2372 
Q 3672 2653 3547 2653 
Q 3431 2653 3116 2456 
Q 2816 2275 2722 2166 
Q 2719 1872 2738 1578 
L 2831 744 
Q 2891 250 2891 -72 
Q 2891 -209 2805 -298 
Q 2719 -388 2584 -388 
Q 2450 -388 2364 -298 
Q 2278 -209 2278 -72 
Q 2278 306 2201 1045 
Q 2125 1784 2125 2163 
Q 2125 2494 2031 2678 
Q 1813 2578 1588 2353 
L 1219 1941 
Q 1169 1866 1059 1744 
Q 1059 1556 1025 1190 
Q 991 825 991 650 
Q 991 556 1020 387 
Q 1050 219 1050 144 
Q 1050 16 954 -71 
Q 859 -159 731 -159 
Q 378 -159 378 644 
Q 378 831 412 1203 
Q 447 1575 447 1763 
Q 447 1928 417 2259 
Q 388 2591 388 2759 
Q 388 3469 706 3469 
Q 828 3469 929 3362 
Q 1031 3256 1031 3131 
Q 1031 3072 1015 2947 
Q 1000 2822 1000 2756 
L 1006 2428 
Q 1169 2763 1484 3033 
Q 1800 3303 2022 3303 
Q 2513 3303 2697 2816 
Q 2869 3044 3106 3158 
Q 3344 3272 3650 3272 
Q 4172 3272 4363 2709 
Q 4400 2597 4491 1831 
Q 4578 1294 4716 41 
Q 4725 -84 4631 -171 
Q 4538 -259 4403 -259 
z
" id="ComicSansMS-6d" transform="scale(0.015625)"/>
     </defs>
     <use xlink:href="#ComicSansMS-4e"/>
     <use x="79.6875" xlink:href="#ComicSansMS-65"/>
     <use x="134.472656" xlink:href="#ComicSansMS-74"/>
     <use x="181.591797" xlink:href="#ComicSansMS-77"/>
     <use x="250" xlink:href="#ComicSansMS-6f"/>
     <use x="302.587891" xlink:href="#ComicSansMS-72"/>
     <use x="350.634766" xlink:href="#ComicSansMS-74"/>
     <use x="397.753906" xlink:href="#ComicSansMS-68"/>
     <use x="455.517578" xlink:href="#ComicSansMS-20"/>
     <use x="485.400391" xlink:href="#ComicSansMS-4f"/>
     <use x="565.234375" xlink:href="#ComicSansMS-76"/>
     <use x="613.867188" xlink:href="#ComicSansMS-65"/>
     <use x="668.652344" xlink:href="#ComicSansMS-72"/>
     <use x="716.699219" xlink:href="#ComicSansMS-20"/>
     <use x="746.582031" xlink:href="#ComicSansMS-54"/>
     <use x="814.550781" xlink:href="#ComicSansMS-69"/>
     <use x="842.578125" xlink:href="#ComicSansMS-6d"/>
     <use x="920.263672" xlink:href="#ComicSansMS-65"/>
    </g>
   </g>
  </g>
 </g>
 <defs>
  <clipPath id="p181d18acb3">
   <rect height="332.64" width="446.4" x="72" y="51.84"/>
  </clipPath>
 </defs>
</svg>
