<?xml version="1.0" encoding="utf-8" standalone="no"?>
<!DOCTYPE svg PUBLIC "-//W3C//DTD SVG 1.1//EN"
  "http://www.w3.org/Graphics/SVG/1.1/DTD/svg11.dtd">
<svg height="432pt" version="1.1" viewBox="0 0 576 432" width="576pt" xmlns="http://www.w3.org/2000/svg" xmlns:xlink="http://www.w3.org/1999/xlink">
 <metadata>
  <rdf:RDF xmlns:cc="http://creativecommons.org/ns#" xmlns:dc="http://purl.org/dc/elements/1.1/" xmlns:rdf="http://www.w3.org/1999/02/22-rdf-syntax-ns#">
   <cc:Work>
    <dc:type rdf:resource="http://purl.org/dc/dcmitype/StillImage"/>
    <dc:date>2021-08-10T23:55:02.510530</dc:date>
    <dc:format>image/svg+xml</dc:format>
    <dc:creator>
     <cc:Agent>
      <dc:title>Matplotlib v3.4.2, https://matplotlib.org/</dc:title>
     </cc:Agent>
    </dc:creator>
   </cc:Work>
  </rdf:RDF>
 </metadata>
 <defs>
  <style type="text/css">*{stroke-linecap:butt;stroke-linejoin:round;}</style>
 </defs>
 <g id="figure_1">
  <g id="patch_1">
   <path d="M 0 432 
L 576 432 
L 576 0 
L 0 0 
z
" style="fill:none;"/>
  </g>
  <g id="axes_1">
   <g id="patch_2">
    <path d="M 72 384.48 
L 518.4 384.48 
L 518.4 51.84 
L 72 51.84 
z
" style="fill:none;"/>
   </g>
   <g id="PolyCollection_1">
    <path clip-path="url(#p3eb2ae8d7b)" d="M 92.290909 369.36 
L 92.290909 360.143246 
L 97.850062 359.803979 
L 103.409215 358.729634 
L 108.968369 347.024921 
L 114.527522 343.914974 
L 120.086675 342.162094 
L 125.645828 325.311832 
L 131.204981 323.502408 
L 136.764134 318.469948 
L 142.323288 317.847958 
L 147.882441 313.889843 
L 153.441594 312.758953 
L 159.000747 309.592461 
L 164.5599 298.113927 
L 170.119054 292.346387 
L 175.678207 291.441675 
L 181.23736 285.900314 
L 186.796513 281.376754 
L 192.355666 276.627016 
L 197.914819 273.573613 
L 203.473973 273.403979 
L 209.033126 265.996649 
L 214.592279 261.642723 
L 220.151432 255.366283 
L 225.710585 245.188272 
L 231.269738 243.322304 
L 236.828892 241.965236 
L 242.388045 238.402932 
L 247.947198 231.674136 
L 253.506351 228.903455 
L 259.065504 226.528586 
L 264.624658 225.850052 
L 270.183811 223.30555 
L 275.742964 213.070995 
L 281.302117 205.09822 
L 286.86127 198.539058 
L 292.420423 192.092984 
L 297.979577 186.834346 
L 303.53873 185.477277 
L 309.097883 180.218639 
L 314.657036 176.486702 
L 320.216189 171.114974 
L 325.775342 170.662618 
L 331.334496 168.118115 
L 336.893649 161.27623 
L 342.452802 159.127539 
L 348.011955 157.205026 
L 353.571108 154.264712 
L 359.130262 150.589319 
L 364.689415 145.839581 
L 370.248568 144.256335 
L 375.807721 139.110785 
L 381.366874 135.15267 
L 386.926027 132.38199 
L 392.485181 130.798743 
L 398.044334 121.695079 
L 403.603487 103.261571 
L 409.16264 99.868901 
L 414.721793 97.494031 
L 420.280946 95.684607 
L 425.8401 94.101361 
L 431.399253 93.988272 
L 436.958406 90.878325 
L 442.517559 87.598743 
L 448.076712 86.354764 
L 453.635866 83.188272 
L 459.195019 82.113927 
L 464.754172 80.417592 
L 470.313325 78.777801 
L 475.872478 77.703455 
L 481.431631 75.780942 
L 486.990785 74.819686 
L 492.549938 67.073089 
L 498.109091 66.96 
L 498.109091 369.36 
L 498.109091 369.36 
L 492.549938 369.36 
L 486.990785 369.36 
L 481.431631 369.36 
L 475.872478 369.36 
L 470.313325 369.36 
L 464.754172 369.36 
L 459.195019 369.36 
L 453.635866 369.36 
L 448.076712 369.36 
L 442.517559 369.36 
L 436.958406 369.36 
L 431.399253 369.36 
L 425.8401 369.36 
L 420.280946 369.36 
L 414.721793 369.36 
L 409.16264 369.36 
L 403.603487 369.36 
L 398.044334 369.36 
L 392.485181 369.36 
L 386.926027 369.36 
L 381.366874 369.36 
L 375.807721 369.36 
L 370.248568 369.36 
L 364.689415 369.36 
L 359.130262 369.36 
L 353.571108 369.36 
L 348.011955 369.36 
L 342.452802 369.36 
L 336.893649 369.36 
L 331.334496 369.36 
L 325.775342 369.36 
L 320.216189 369.36 
L 314.657036 369.36 
L 309.097883 369.36 
L 303.53873 369.36 
L 297.979577 369.36 
L 292.420423 369.36 
L 286.86127 369.36 
L 281.302117 369.36 
L 275.742964 369.36 
L 270.183811 369.36 
L 264.624658 369.36 
L 259.065504 369.36 
L 253.506351 369.36 
L 247.947198 369.36 
L 242.388045 369.36 
L 236.828892 369.36 
L 231.269738 369.36 
L 225.710585 369.36 
L 220.151432 369.36 
L 214.592279 369.36 
L 209.033126 369.36 
L 203.473973 369.36 
L 197.914819 369.36 
L 192.355666 369.36 
L 186.796513 369.36 
L 181.23736 369.36 
L 175.678207 369.36 
L 170.119054 369.36 
L 164.5599 369.36 
L 159.000747 369.36 
L 153.441594 369.36 
L 147.882441 369.36 
L 142.323288 369.36 
L 136.764134 369.36 
L 131.204981 369.36 
L 125.645828 369.36 
L 120.086675 369.36 
L 114.527522 369.36 
L 108.968369 369.36 
L 103.409215 369.36 
L 97.850062 369.36 
L 92.290909 369.36 
z
" style="fill:#ff028d;"/>
   </g>
   <g id="matplotlib.axis_1">
    <g id="xtick_1">
     <g id="line2d_1">
      <defs>
       <path d="M 0 0 
L 0 3.5 
" id="m4972892801" style="stroke:#ffffff;stroke-width:0.8;"/>
      </defs>
      <g>
       <use style="fill:#ffffff;stroke:#ffffff;stroke-width:0.8;" x="92.290909" xlink:href="#m4972892801" y="384.48"/>
      </g>
     </g>
     <g id="text_1">
      <!-- 9/5 -->
      <g style="fill:#ffffff;" transform="translate(84.244034 399.078438)scale(0.1 -0.1)">
       <defs>
        <path d="M 703 97 
L 703 672 
Q 941 559 1184 500 
Q 1428 441 1663 441 
Q 2288 441 2617 861 
Q 2947 1281 2994 2138 
Q 2813 1869 2534 1725 
Q 2256 1581 1919 1581 
Q 1219 1581 811 2004 
Q 403 2428 403 3163 
Q 403 3881 828 4315 
Q 1253 4750 1959 4750 
Q 2769 4750 3195 4129 
Q 3622 3509 3622 2328 
Q 3622 1225 3098 567 
Q 2575 -91 1691 -91 
Q 1453 -91 1209 -44 
Q 966 3 703 97 
z
M 1959 2075 
Q 2384 2075 2632 2365 
Q 2881 2656 2881 3163 
Q 2881 3666 2632 3958 
Q 2384 4250 1959 4250 
Q 1534 4250 1286 3958 
Q 1038 3666 1038 3163 
Q 1038 2656 1286 2365 
Q 1534 2075 1959 2075 
z
" id="DejaVuSans-39" transform="scale(0.015625)"/>
        <path d="M 1625 4666 
L 2156 4666 
L 531 -594 
L 0 -594 
L 1625 4666 
z
" id="DejaVuSans-2f" transform="scale(0.015625)"/>
        <path d="M 691 4666 
L 3169 4666 
L 3169 4134 
L 1269 4134 
L 1269 2991 
Q 1406 3038 1543 3061 
Q 1681 3084 1819 3084 
Q 2600 3084 3056 2656 
Q 3513 2228 3513 1497 
Q 3513 744 3044 326 
Q 2575 -91 1722 -91 
Q 1428 -91 1123 -41 
Q 819 9 494 109 
L 494 744 
Q 775 591 1075 516 
Q 1375 441 1709 441 
Q 2250 441 2565 725 
Q 2881 1009 2881 1497 
Q 2881 1984 2565 2268 
Q 2250 2553 1709 2553 
Q 1456 2553 1204 2497 
Q 953 2441 691 2322 
L 691 4666 
z
" id="DejaVuSans-35" transform="scale(0.015625)"/>
       </defs>
       <use xlink:href="#DejaVuSans-39"/>
       <use x="63.623047" xlink:href="#DejaVuSans-2f"/>
       <use x="97.314453" xlink:href="#DejaVuSans-35"/>
      </g>
     </g>
    </g>
    <g id="xtick_2">
     <g id="line2d_2">
      <g>
       <use style="fill:#ffffff;stroke:#ffffff;stroke-width:0.8;" x="175.678207" xlink:href="#m4972892801" y="384.48"/>
      </g>
     </g>
     <g id="text_2">
      <!-- 28/5 -->
      <g style="fill:#ffffff;" transform="translate(164.450082 399.078438)scale(0.1 -0.1)">
       <defs>
        <path d="M 1228 531 
L 3431 531 
L 3431 0 
L 469 0 
L 469 531 
Q 828 903 1448 1529 
Q 2069 2156 2228 2338 
Q 2531 2678 2651 2914 
Q 2772 3150 2772 3378 
Q 2772 3750 2511 3984 
Q 2250 4219 1831 4219 
Q 1534 4219 1204 4116 
Q 875 4013 500 3803 
L 500 4441 
Q 881 4594 1212 4672 
Q 1544 4750 1819 4750 
Q 2544 4750 2975 4387 
Q 3406 4025 3406 3419 
Q 3406 3131 3298 2873 
Q 3191 2616 2906 2266 
Q 2828 2175 2409 1742 
Q 1991 1309 1228 531 
z
" id="DejaVuSans-32" transform="scale(0.015625)"/>
        <path d="M 2034 2216 
Q 1584 2216 1326 1975 
Q 1069 1734 1069 1313 
Q 1069 891 1326 650 
Q 1584 409 2034 409 
Q 2484 409 2743 651 
Q 3003 894 3003 1313 
Q 3003 1734 2745 1975 
Q 2488 2216 2034 2216 
z
M 1403 2484 
Q 997 2584 770 2862 
Q 544 3141 544 3541 
Q 544 4100 942 4425 
Q 1341 4750 2034 4750 
Q 2731 4750 3128 4425 
Q 3525 4100 3525 3541 
Q 3525 3141 3298 2862 
Q 3072 2584 2669 2484 
Q 3125 2378 3379 2068 
Q 3634 1759 3634 1313 
Q 3634 634 3220 271 
Q 2806 -91 2034 -91 
Q 1263 -91 848 271 
Q 434 634 434 1313 
Q 434 1759 690 2068 
Q 947 2378 1403 2484 
z
M 1172 3481 
Q 1172 3119 1398 2916 
Q 1625 2713 2034 2713 
Q 2441 2713 2670 2916 
Q 2900 3119 2900 3481 
Q 2900 3844 2670 4047 
Q 2441 4250 2034 4250 
Q 1625 4250 1398 4047 
Q 1172 3844 1172 3481 
z
" id="DejaVuSans-38" transform="scale(0.015625)"/>
       </defs>
       <use xlink:href="#DejaVuSans-32"/>
       <use x="63.623047" xlink:href="#DejaVuSans-38"/>
       <use x="127.246094" xlink:href="#DejaVuSans-2f"/>
       <use x="160.9375" xlink:href="#DejaVuSans-35"/>
      </g>
     </g>
    </g>
    <g id="xtick_3">
     <g id="line2d_3">
      <g>
       <use style="fill:#ffffff;stroke:#ffffff;stroke-width:0.8;" x="259.065504" xlink:href="#m4972892801" y="384.48"/>
      </g>
     </g>
     <g id="text_3">
      <!-- 12/6 -->
      <g style="fill:#ffffff;" transform="translate(247.837379 399.078438)scale(0.1 -0.1)">
       <defs>
        <path d="M 794 531 
L 1825 531 
L 1825 4091 
L 703 3866 
L 703 4441 
L 1819 4666 
L 2450 4666 
L 2450 531 
L 3481 531 
L 3481 0 
L 794 0 
L 794 531 
z
" id="DejaVuSans-31" transform="scale(0.015625)"/>
        <path d="M 2113 2584 
Q 1688 2584 1439 2293 
Q 1191 2003 1191 1497 
Q 1191 994 1439 701 
Q 1688 409 2113 409 
Q 2538 409 2786 701 
Q 3034 994 3034 1497 
Q 3034 2003 2786 2293 
Q 2538 2584 2113 2584 
z
M 3366 4563 
L 3366 3988 
Q 3128 4100 2886 4159 
Q 2644 4219 2406 4219 
Q 1781 4219 1451 3797 
Q 1122 3375 1075 2522 
Q 1259 2794 1537 2939 
Q 1816 3084 2150 3084 
Q 2853 3084 3261 2657 
Q 3669 2231 3669 1497 
Q 3669 778 3244 343 
Q 2819 -91 2113 -91 
Q 1303 -91 875 529 
Q 447 1150 447 2328 
Q 447 3434 972 4092 
Q 1497 4750 2381 4750 
Q 2619 4750 2861 4703 
Q 3103 4656 3366 4563 
z
" id="DejaVuSans-36" transform="scale(0.015625)"/>
       </defs>
       <use xlink:href="#DejaVuSans-31"/>
       <use x="63.623047" xlink:href="#DejaVuSans-32"/>
       <use x="127.246094" xlink:href="#DejaVuSans-2f"/>
       <use x="160.9375" xlink:href="#DejaVuSans-36"/>
      </g>
     </g>
    </g>
    <g id="xtick_4">
     <g id="line2d_4">
      <g>
       <use style="fill:#ffffff;stroke:#ffffff;stroke-width:0.8;" x="342.452802" xlink:href="#m4972892801" y="384.48"/>
      </g>
     </g>
     <g id="text_4">
      <!-- 27/6 -->
      <g style="fill:#ffffff;" transform="translate(331.224677 399.078438)scale(0.1 -0.1)">
       <defs>
        <path d="M 525 4666 
L 3525 4666 
L 3525 4397 
L 1831 0 
L 1172 0 
L 2766 4134 
L 525 4134 
L 525 4666 
z
" id="DejaVuSans-37" transform="scale(0.015625)"/>
       </defs>
       <use xlink:href="#DejaVuSans-32"/>
       <use x="63.623047" xlink:href="#DejaVuSans-37"/>
       <use x="127.246094" xlink:href="#DejaVuSans-2f"/>
       <use x="160.9375" xlink:href="#DejaVuSans-36"/>
      </g>
     </g>
    </g>
    <g id="xtick_5">
     <g id="line2d_5">
      <g>
       <use style="fill:#ffffff;stroke:#ffffff;stroke-width:0.8;" x="425.8401" xlink:href="#m4972892801" y="384.48"/>
      </g>
     </g>
     <g id="text_5">
      <!-- 17/7 -->
      <g style="fill:#ffffff;" transform="translate(414.611975 399.078438)scale(0.1 -0.1)">
       <use xlink:href="#DejaVuSans-31"/>
       <use x="63.623047" xlink:href="#DejaVuSans-37"/>
       <use x="127.246094" xlink:href="#DejaVuSans-2f"/>
       <use x="160.9375" xlink:href="#DejaVuSans-37"/>
      </g>
     </g>
    </g>
    <g id="xtick_6">
     <g id="line2d_6">
      <g>
       <use style="fill:#ffffff;stroke:#ffffff;stroke-width:0.8;" x="509.227397" xlink:href="#m4972892801" y="384.48"/>
      </g>
     </g>
    </g>
    <g id="text_6">
     <!-- Date -->
     <g style="fill:#ffffff;" transform="translate(281.685 414.585625)scale(0.12 -0.12)">
      <defs>
       <path d="M 3363 22 
Q 2878 -309 1972 -309 
Q 1744 -309 1450 -238 
Q 1097 -153 919 -19 
L 888 -19 
Q 753 -19 662 75 
Q 572 169 572 303 
Q 572 631 601 1286 
Q 631 1941 631 2269 
Q 631 2634 617 3361 
Q 603 4088 603 4453 
Q 603 4581 734 4722 
Q 866 4863 997 4863 
Q 1072 4863 1497 4653 
Q 1978 4419 2053 4394 
Q 2941 4091 3566 3463 
Q 4300 2722 4300 1834 
Q 4300 1300 4048 809 
Q 3797 319 3363 22 
z
M 2706 3328 
Q 2388 3538 1234 4047 
L 1250 3147 
L 1259 2250 
L 1209 544 
Q 1231 534 1275 503 
Q 1550 319 1969 319 
Q 2681 319 3006 538 
Q 3309 744 3489 1092 
Q 3669 1441 3669 1819 
Q 3669 2700 2706 3328 
z
" id="ComicSansMS-44" transform="scale(0.015625)"/>
       <path d="M 2875 -206 
Q 2816 -206 2659 -69 
Q 2519 59 2450 159 
Q 2150 -3 1922 -86 
Q 1694 -169 1541 -169 
Q 809 -169 475 244 
Q 159 631 159 1431 
Q 159 2188 679 2725 
Q 1200 3263 1922 3263 
Q 2194 3263 2531 3122 
Q 2956 2947 2956 2700 
Q 2956 2616 2894 2550 
Q 2863 2431 2845 2159 
Q 2828 1888 2825 1463 
Q 2822 1075 2878 850 
Q 2909 713 3075 300 
Q 3097 244 3147 134 
L 3166 81 
Q 3166 -44 3078 -125 
Q 2991 -206 2875 -206 
z
M 2225 1966 
Q 2225 2100 2242 2258 
Q 2259 2416 2294 2594 
Q 2178 2653 2095 2681 
Q 2013 2709 1963 2709 
Q 1478 2709 1126 2314 
Q 775 1919 775 1403 
Q 775 891 956 634 
Q 1138 378 1500 378 
Q 1800 378 2009 488 
Q 2122 547 2325 725 
Q 2225 1553 2225 1966 
z
" id="ComicSansMS-61" transform="scale(0.015625)"/>
       <path d="M 2525 2663 
Q 2459 2663 2370 2669 
Q 2281 2675 2216 2675 
Q 2144 2675 1791 2628 
L 1850 781 
L 1853 644 
L 1856 484 
Q 1869 -200 1528 -200 
Q 1403 -200 1311 -119 
Q 1219 -38 1219 84 
Q 1219 203 1228 440 
Q 1238 678 1238 797 
L 1175 2622 
Q 947 2631 481 2675 
Q 203 2713 203 2984 
Q 203 3122 287 3212 
Q 372 3303 503 3303 
L 1159 3250 
Q 1159 3409 1145 3676 
Q 1131 3944 1131 4063 
Q 1131 4194 1222 4280 
Q 1313 4366 1444 4366 
Q 1725 4366 1772 3906 
Q 1781 3791 1781 3628 
L 1775 3447 
L 1772 3253 
Q 2159 3303 2216 3303 
Q 2541 3303 2641 3272 
Q 2831 3209 2831 2978 
Q 2831 2841 2745 2752 
Q 2659 2663 2525 2663 
z
" id="ComicSansMS-74" transform="scale(0.015625)"/>
       <path d="M 1894 -144 
Q 1188 -144 750 209 
Q 272 600 272 1303 
Q 272 2116 666 2666 
Q 1094 3266 1809 3266 
Q 2328 3266 2656 3091 
Q 3059 2875 3059 2428 
Q 3059 2116 2706 1859 
Q 2550 1747 2044 1509 
L 850 944 
Q 1025 684 1286 553 
Q 1547 422 1894 422 
Q 2109 422 2400 503 
Q 2769 606 2875 773 
Q 2981 941 3103 941 
Q 3213 941 3298 858 
Q 3384 775 3384 666 
Q 3384 319 2825 69 
Q 2347 -144 1894 -144 
z
M 1809 2703 
Q 1428 2703 1175 2408 
Q 922 2113 797 1519 
L 1756 1975 
Q 2322 2250 2563 2453 
Q 2294 2703 1809 2703 
z
" id="ComicSansMS-65" transform="scale(0.015625)"/>
      </defs>
      <use xlink:href="#ComicSansMS-44"/>
      <use x="72.167969" xlink:href="#ComicSansMS-61"/>
      <use x="123.339844" xlink:href="#ComicSansMS-74"/>
      <use x="170.458984" xlink:href="#ComicSansMS-65"/>
     </g>
    </g>
   </g>
   <g id="matplotlib.axis_2">
    <g id="ytick_1">
     <g id="line2d_7">
      <defs>
       <path d="M 0 0 
L -3.5 0 
" id="mbecb16fd74" style="stroke:#ffffff;stroke-width:0.8;"/>
      </defs>
      <g>
       <use style="fill:#ffffff;stroke:#ffffff;stroke-width:0.8;" x="72" xlink:href="#mbecb16fd74" y="369.36"/>
      </g>
     </g>
     <g id="text_7">
      <!-- 0 -->
      <g style="fill:#ffffff;" transform="translate(58.6375 373.159219)scale(0.1 -0.1)">
       <defs>
        <path d="M 2034 4250 
Q 1547 4250 1301 3770 
Q 1056 3291 1056 2328 
Q 1056 1369 1301 889 
Q 1547 409 2034 409 
Q 2525 409 2770 889 
Q 3016 1369 3016 2328 
Q 3016 3291 2770 3770 
Q 2525 4250 2034 4250 
z
M 2034 4750 
Q 2819 4750 3233 4129 
Q 3647 3509 3647 2328 
Q 3647 1150 3233 529 
Q 2819 -91 2034 -91 
Q 1250 -91 836 529 
Q 422 1150 422 2328 
Q 422 3509 836 4129 
Q 1250 4750 2034 4750 
z
" id="DejaVuSans-30" transform="scale(0.015625)"/>
       </defs>
       <use xlink:href="#DejaVuSans-30"/>
      </g>
     </g>
    </g>
    <g id="ytick_2">
     <g id="line2d_8">
      <g>
       <use style="fill:#ffffff;stroke:#ffffff;stroke-width:0.8;" x="72" xlink:href="#mbecb16fd74" y="312.815497"/>
      </g>
     </g>
     <g id="text_8">
      <!-- 1000 -->
      <g style="fill:#ffffff;" transform="translate(39.55 316.614716)scale(0.1 -0.1)">
       <use xlink:href="#DejaVuSans-31"/>
       <use x="63.623047" xlink:href="#DejaVuSans-30"/>
       <use x="127.246094" xlink:href="#DejaVuSans-30"/>
       <use x="190.869141" xlink:href="#DejaVuSans-30"/>
      </g>
     </g>
    </g>
    <g id="ytick_3">
     <g id="line2d_9">
      <g>
       <use style="fill:#ffffff;stroke:#ffffff;stroke-width:0.8;" x="72" xlink:href="#mbecb16fd74" y="256.270995"/>
      </g>
     </g>
     <g id="text_9">
      <!-- 2000 -->
      <g style="fill:#ffffff;" transform="translate(39.55 260.070214)scale(0.1 -0.1)">
       <use xlink:href="#DejaVuSans-32"/>
       <use x="63.623047" xlink:href="#DejaVuSans-30"/>
       <use x="127.246094" xlink:href="#DejaVuSans-30"/>
       <use x="190.869141" xlink:href="#DejaVuSans-30"/>
      </g>
     </g>
    </g>
    <g id="ytick_4">
     <g id="line2d_10">
      <g>
       <use style="fill:#ffffff;stroke:#ffffff;stroke-width:0.8;" x="72" xlink:href="#mbecb16fd74" y="199.726492"/>
      </g>
     </g>
     <g id="text_10">
      <!-- 3000 -->
      <g style="fill:#ffffff;" transform="translate(39.55 203.525711)scale(0.1 -0.1)">
       <defs>
        <path d="M 2597 2516 
Q 3050 2419 3304 2112 
Q 3559 1806 3559 1356 
Q 3559 666 3084 287 
Q 2609 -91 1734 -91 
Q 1441 -91 1130 -33 
Q 819 25 488 141 
L 488 750 
Q 750 597 1062 519 
Q 1375 441 1716 441 
Q 2309 441 2620 675 
Q 2931 909 2931 1356 
Q 2931 1769 2642 2001 
Q 2353 2234 1838 2234 
L 1294 2234 
L 1294 2753 
L 1863 2753 
Q 2328 2753 2575 2939 
Q 2822 3125 2822 3475 
Q 2822 3834 2567 4026 
Q 2313 4219 1838 4219 
Q 1578 4219 1281 4162 
Q 984 4106 628 3988 
L 628 4550 
Q 988 4650 1302 4700 
Q 1616 4750 1894 4750 
Q 2613 4750 3031 4423 
Q 3450 4097 3450 3541 
Q 3450 3153 3228 2886 
Q 3006 2619 2597 2516 
z
" id="DejaVuSans-33" transform="scale(0.015625)"/>
       </defs>
       <use xlink:href="#DejaVuSans-33"/>
       <use x="63.623047" xlink:href="#DejaVuSans-30"/>
       <use x="127.246094" xlink:href="#DejaVuSans-30"/>
       <use x="190.869141" xlink:href="#DejaVuSans-30"/>
      </g>
     </g>
    </g>
    <g id="ytick_5">
     <g id="line2d_11">
      <g>
       <use style="fill:#ffffff;stroke:#ffffff;stroke-width:0.8;" x="72" xlink:href="#mbecb16fd74" y="143.18199"/>
      </g>
     </g>
     <g id="text_11">
      <!-- 4000 -->
      <g style="fill:#ffffff;" transform="translate(39.55 146.981208)scale(0.1 -0.1)">
       <defs>
        <path d="M 2419 4116 
L 825 1625 
L 2419 1625 
L 2419 4116 
z
M 2253 4666 
L 3047 4666 
L 3047 1625 
L 3713 1625 
L 3713 1100 
L 3047 1100 
L 3047 0 
L 2419 0 
L 2419 1100 
L 313 1100 
L 313 1709 
L 2253 4666 
z
" id="DejaVuSans-34" transform="scale(0.015625)"/>
       </defs>
       <use xlink:href="#DejaVuSans-34"/>
       <use x="63.623047" xlink:href="#DejaVuSans-30"/>
       <use x="127.246094" xlink:href="#DejaVuSans-30"/>
       <use x="190.869141" xlink:href="#DejaVuSans-30"/>
      </g>
     </g>
    </g>
    <g id="ytick_6">
     <g id="line2d_12">
      <g>
       <use style="fill:#ffffff;stroke:#ffffff;stroke-width:0.8;" x="72" xlink:href="#mbecb16fd74" y="86.637487"/>
      </g>
     </g>
     <g id="text_12">
      <!-- 5000 -->
      <g style="fill:#ffffff;" transform="translate(39.55 90.436706)scale(0.1 -0.1)">
       <use xlink:href="#DejaVuSans-35"/>
       <use x="63.623047" xlink:href="#DejaVuSans-30"/>
       <use x="127.246094" xlink:href="#DejaVuSans-30"/>
       <use x="190.869141" xlink:href="#DejaVuSans-30"/>
      </g>
     </g>
    </g>
    <g id="text_13">
     <!-- ₡urrency Things -->
     <g style="fill:#ffffff;" transform="translate(33.054375 266.595937)rotate(-90)scale(0.12 -0.12)">
      <defs>
       <path d="M 2725 4734 
Q 2928 4709 3122 4650 
L 3216 4978 
L 3700 4978 
L 3553 4463 
Q 3678 4394 3794 4306 
L 3794 3641 
Q 3613 3828 3413 3956 
L 2416 428 
L 2472 428 
Q 2844 428 3173 575 
Q 3503 722 3794 1019 
L 3794 359 
Q 3491 134 3153 21 
Q 2816 -91 2438 -91 
Q 2353 -91 2272 -84 
L 2216 -281 
L 1731 -281 
L 1809 -9 
Q 1606 47 1428 141 
L 1309 -281 
L 825 -281 
L 1028 438 
Q 969 494 916 559 
Q 359 1206 359 2328 
Q 359 3453 916 4103 
Q 1416 4681 2241 4744 
L 2306 4978 
L 2794 4978 
L 2725 4734 
z
M 2084 4191 
Q 1631 4094 1356 3744 
Q 966 3253 966 2328 
Q 966 1584 1222 1122 
L 2084 4191 
z
M 2984 4156 
Q 2791 4216 2581 4228 
L 1584 694 
Q 1750 569 1953 503 
L 2984 4156 
z
" id="DejaVuSans-20a1" transform="scale(0.015625)"/>
       <path d="M 544 1381 
L 544 3500 
L 1119 3500 
L 1119 1403 
Q 1119 906 1312 657 
Q 1506 409 1894 409 
Q 2359 409 2629 706 
Q 2900 1003 2900 1516 
L 2900 3500 
L 3475 3500 
L 3475 0 
L 2900 0 
L 2900 538 
Q 2691 219 2414 64 
Q 2138 -91 1772 -91 
Q 1169 -91 856 284 
Q 544 659 544 1381 
z
M 1991 3584 
L 1991 3584 
z
" id="DejaVuSans-75" transform="scale(0.015625)"/>
       <path d="M 2631 2963 
Q 2534 3019 2420 3045 
Q 2306 3072 2169 3072 
Q 1681 3072 1420 2755 
Q 1159 2438 1159 1844 
L 1159 0 
L 581 0 
L 581 3500 
L 1159 3500 
L 1159 2956 
Q 1341 3275 1631 3429 
Q 1922 3584 2338 3584 
Q 2397 3584 2469 3576 
Q 2541 3569 2628 3553 
L 2631 2963 
z
" id="DejaVuSans-72" transform="scale(0.015625)"/>
       <path d="M 3597 1894 
L 3597 1613 
L 953 1613 
Q 991 1019 1311 708 
Q 1631 397 2203 397 
Q 2534 397 2845 478 
Q 3156 559 3463 722 
L 3463 178 
Q 3153 47 2828 -22 
Q 2503 -91 2169 -91 
Q 1331 -91 842 396 
Q 353 884 353 1716 
Q 353 2575 817 3079 
Q 1281 3584 2069 3584 
Q 2775 3584 3186 3129 
Q 3597 2675 3597 1894 
z
M 3022 2063 
Q 3016 2534 2758 2815 
Q 2500 3097 2075 3097 
Q 1594 3097 1305 2825 
Q 1016 2553 972 2059 
L 3022 2063 
z
" id="DejaVuSans-65" transform="scale(0.015625)"/>
       <path d="M 3513 2113 
L 3513 0 
L 2938 0 
L 2938 2094 
Q 2938 2591 2744 2837 
Q 2550 3084 2163 3084 
Q 1697 3084 1428 2787 
Q 1159 2491 1159 1978 
L 1159 0 
L 581 0 
L 581 3500 
L 1159 3500 
L 1159 2956 
Q 1366 3272 1645 3428 
Q 1925 3584 2291 3584 
Q 2894 3584 3203 3211 
Q 3513 2838 3513 2113 
z
" id="DejaVuSans-6e" transform="scale(0.015625)"/>
       <path d="M 3122 3366 
L 3122 2828 
Q 2878 2963 2633 3030 
Q 2388 3097 2138 3097 
Q 1578 3097 1268 2742 
Q 959 2388 959 1747 
Q 959 1106 1268 751 
Q 1578 397 2138 397 
Q 2388 397 2633 464 
Q 2878 531 3122 666 
L 3122 134 
Q 2881 22 2623 -34 
Q 2366 -91 2075 -91 
Q 1284 -91 818 406 
Q 353 903 353 1747 
Q 353 2603 823 3093 
Q 1294 3584 2113 3584 
Q 2378 3584 2631 3529 
Q 2884 3475 3122 3366 
z
" id="DejaVuSans-63" transform="scale(0.015625)"/>
       <path d="M 2059 -325 
Q 1816 -950 1584 -1140 
Q 1353 -1331 966 -1331 
L 506 -1331 
L 506 -850 
L 844 -850 
Q 1081 -850 1212 -737 
Q 1344 -625 1503 -206 
L 1606 56 
L 191 3500 
L 800 3500 
L 1894 763 
L 2988 3500 
L 3597 3500 
L 2059 -325 
z
" id="DejaVuSans-79" transform="scale(0.015625)"/>
       <path id="DejaVuSans-20" transform="scale(0.015625)"/>
       <path d="M -19 4666 
L 3928 4666 
L 3928 4134 
L 2272 4134 
L 2272 0 
L 1638 0 
L 1638 4134 
L -19 4134 
L -19 4666 
z
" id="DejaVuSans-54" transform="scale(0.015625)"/>
       <path d="M 3513 2113 
L 3513 0 
L 2938 0 
L 2938 2094 
Q 2938 2591 2744 2837 
Q 2550 3084 2163 3084 
Q 1697 3084 1428 2787 
Q 1159 2491 1159 1978 
L 1159 0 
L 581 0 
L 581 4863 
L 1159 4863 
L 1159 2956 
Q 1366 3272 1645 3428 
Q 1925 3584 2291 3584 
Q 2894 3584 3203 3211 
Q 3513 2838 3513 2113 
z
" id="DejaVuSans-68" transform="scale(0.015625)"/>
       <path d="M 603 3500 
L 1178 3500 
L 1178 0 
L 603 0 
L 603 3500 
z
M 603 4863 
L 1178 4863 
L 1178 4134 
L 603 4134 
L 603 4863 
z
" id="DejaVuSans-69" transform="scale(0.015625)"/>
       <path d="M 2906 1791 
Q 2906 2416 2648 2759 
Q 2391 3103 1925 3103 
Q 1463 3103 1205 2759 
Q 947 2416 947 1791 
Q 947 1169 1205 825 
Q 1463 481 1925 481 
Q 2391 481 2648 825 
Q 2906 1169 2906 1791 
z
M 3481 434 
Q 3481 -459 3084 -895 
Q 2688 -1331 1869 -1331 
Q 1566 -1331 1297 -1286 
Q 1028 -1241 775 -1147 
L 775 -588 
Q 1028 -725 1275 -790 
Q 1522 -856 1778 -856 
Q 2344 -856 2625 -561 
Q 2906 -266 2906 331 
L 2906 616 
Q 2728 306 2450 153 
Q 2172 0 1784 0 
Q 1141 0 747 490 
Q 353 981 353 1791 
Q 353 2603 747 3093 
Q 1141 3584 1784 3584 
Q 2172 3584 2450 3431 
Q 2728 3278 2906 2969 
L 2906 3500 
L 3481 3500 
L 3481 434 
z
" id="DejaVuSans-67" transform="scale(0.015625)"/>
       <path d="M 2834 3397 
L 2834 2853 
Q 2591 2978 2328 3040 
Q 2066 3103 1784 3103 
Q 1356 3103 1142 2972 
Q 928 2841 928 2578 
Q 928 2378 1081 2264 
Q 1234 2150 1697 2047 
L 1894 2003 
Q 2506 1872 2764 1633 
Q 3022 1394 3022 966 
Q 3022 478 2636 193 
Q 2250 -91 1575 -91 
Q 1294 -91 989 -36 
Q 684 19 347 128 
L 347 722 
Q 666 556 975 473 
Q 1284 391 1588 391 
Q 1994 391 2212 530 
Q 2431 669 2431 922 
Q 2431 1156 2273 1281 
Q 2116 1406 1581 1522 
L 1381 1569 
Q 847 1681 609 1914 
Q 372 2147 372 2553 
Q 372 3047 722 3315 
Q 1072 3584 1716 3584 
Q 2034 3584 2315 3537 
Q 2597 3491 2834 3397 
z
" id="DejaVuSans-73" transform="scale(0.015625)"/>
      </defs>
      <use xlink:href="#DejaVuSans-20a1"/>
      <use x="63.623047" xlink:href="#DejaVuSans-75"/>
      <use x="127.001953" xlink:href="#DejaVuSans-72"/>
      <use x="166.365234" xlink:href="#DejaVuSans-72"/>
      <use x="205.228516" xlink:href="#DejaVuSans-65"/>
      <use x="266.751953" xlink:href="#DejaVuSans-6e"/>
      <use x="330.130859" xlink:href="#DejaVuSans-63"/>
      <use x="385.111328" xlink:href="#DejaVuSans-79"/>
      <use x="444.291016" xlink:href="#DejaVuSans-20"/>
      <use x="476.078125" xlink:href="#DejaVuSans-54"/>
      <use x="537.162109" xlink:href="#DejaVuSans-68"/>
      <use x="600.541016" xlink:href="#DejaVuSans-69"/>
      <use x="628.324219" xlink:href="#DejaVuSans-6e"/>
      <use x="691.703125" xlink:href="#DejaVuSans-67"/>
      <use x="755.179688" xlink:href="#DejaVuSans-73"/>
     </g>
    </g>
   </g>
   <g id="line2d_13">
    <path clip-path="url(#p3eb2ae8d7b)" d="M 92.290909 360.143246 
L 97.850062 359.803979 
L 103.409215 358.729634 
L 108.968369 347.024921 
L 114.527522 343.914974 
L 120.086675 342.162094 
L 125.645828 325.311832 
L 131.204981 323.502408 
L 136.764134 318.469948 
L 142.323288 317.847958 
L 147.882441 313.889843 
L 153.441594 312.758953 
L 159.000747 309.592461 
L 164.5599 298.113927 
L 170.119054 292.346387 
L 175.678207 291.441675 
L 181.23736 285.900314 
L 186.796513 281.376754 
L 192.355666 276.627016 
L 197.914819 273.573613 
L 203.473973 273.403979 
L 209.033126 265.996649 
L 214.592279 261.642723 
L 220.151432 255.366283 
L 225.710585 245.188272 
L 231.269738 243.322304 
L 236.828892 241.965236 
L 242.388045 238.402932 
L 247.947198 231.674136 
L 253.506351 228.903455 
L 259.065504 226.528586 
L 264.624658 225.850052 
L 270.183811 223.30555 
L 275.742964 213.070995 
L 281.302117 205.09822 
L 286.86127 198.539058 
L 292.420423 192.092984 
L 297.979577 186.834346 
L 303.53873 185.477277 
L 309.097883 180.218639 
L 314.657036 176.486702 
L 320.216189 171.114974 
L 325.775342 170.662618 
L 331.334496 168.118115 
L 336.893649 161.27623 
L 342.452802 159.127539 
L 348.011955 157.205026 
L 353.571108 154.264712 
L 359.130262 150.589319 
L 364.689415 145.839581 
L 370.248568 144.256335 
L 375.807721 139.110785 
L 381.366874 135.15267 
L 386.926027 132.38199 
L 392.485181 130.798743 
L 398.044334 121.695079 
L 403.603487 103.261571 
L 409.16264 99.868901 
L 414.721793 97.494031 
L 420.280946 95.684607 
L 425.8401 94.101361 
L 431.399253 93.988272 
L 436.958406 90.878325 
L 442.517559 87.598743 
L 448.076712 86.354764 
L 453.635866 83.188272 
L 459.195019 82.113927 
L 464.754172 80.417592 
L 470.313325 78.777801 
L 475.872478 77.703455 
L 481.431631 75.780942 
L 486.990785 74.819686 
L 492.549938 67.073089 
L 498.109091 66.96 
" style="fill:none;"/>
   </g>
   <g id="patch_3">
    <path d="M 72 384.48 
L 72 51.84 
" style="fill:none;stroke:#ffffff;stroke-linecap:square;stroke-linejoin:miter;stroke-width:0.8;"/>
   </g>
   <g id="patch_4">
    <path d="M 518.4 384.48 
L 518.4 51.84 
" style="fill:none;stroke:#000000;stroke-linecap:square;stroke-linejoin:miter;stroke-width:0.8;"/>
   </g>
   <g id="patch_5">
    <path d="M 72 384.48 
L 518.4 384.48 
" style="fill:none;stroke:#ffffff;stroke-linecap:square;stroke-linejoin:miter;stroke-width:0.8;"/>
   </g>
   <g id="patch_6">
    <path d="M 72 51.84 
L 518.4 51.84 
" style="fill:none;stroke:#000000;stroke-linecap:square;stroke-linejoin:miter;stroke-width:0.8;"/>
   </g>
   <g id="text_14">
    <!-- Supply Over Time -->
    <g style="fill:#ffffff;" transform="translate(212.473437 45.84)scale(0.2 -0.2)">
     <defs>
      <path d="M 419 778 
Q 416 909 508 992 
Q 600 1075 734 1075 
Q 888 1075 1003 900 
Q 1163 663 1288 578 
Q 1553 403 2059 403 
Q 2544 403 2959 613 
Q 3491 881 3491 1359 
Q 3491 1753 3044 1981 
Q 2666 2178 2109 2194 
Q 1616 2213 1269 2409 
Q 825 2663 825 3134 
Q 825 3691 1456 4150 
Q 2059 4584 2703 4584 
Q 3006 4584 3388 4481 
Q 3894 4347 3894 4138 
Q 3894 3863 3613 3863 
Q 3488 3863 3175 3930 
Q 2863 3997 2691 3994 
Q 2203 3988 1863 3753 
Q 1513 3513 1513 3169 
Q 1513 2909 1975 2803 
Q 2147 2763 2641 2728 
Q 3356 2675 3759 2278 
Q 4128 1916 4128 1394 
Q 4128 650 3441 206 
Q 2844 -178 2056 -178 
Q 1484 -178 1009 41 
Q 428 309 419 778 
z
" id="ComicSansMS-53" transform="scale(0.015625)"/>
      <path d="M 2984 1825 
Q 2984 1600 2987 1150 
Q 2991 700 2991 475 
Q 2991 406 3002 265 
Q 3013 125 3013 56 
Q 3013 -78 2922 -164 
Q 2831 -250 2700 -250 
Q 2459 -250 2394 47 
Q 2003 -156 1494 -156 
Q 1084 -156 816 25 
Q 519 225 463 609 
Q 341 1438 341 2084 
Q 341 2513 434 3059 
Q 478 3331 731 3331 
Q 866 3331 956 3245 
Q 1047 3159 1047 3025 
Q 1047 2881 1001 2565 
Q 956 2250 956 2084 
Q 956 1563 990 1191 
Q 1025 819 1094 594 
Q 1197 538 1297 508 
Q 1397 478 1494 478 
Q 1913 478 2378 613 
L 2375 1247 
L 2369 1853 
Q 2369 2528 2428 3025 
Q 2463 3313 2731 3313 
Q 2866 3313 2956 3225 
Q 3047 3138 3041 3006 
L 2984 1825 
z
" id="ComicSansMS-75" transform="scale(0.015625)"/>
      <path d="M 1763 -109 
Q 1450 -109 1075 -9 
L 1069 -1503 
Q 1069 -1641 983 -1728 
Q 897 -1816 763 -1816 
Q 628 -1816 542 -1728 
Q 456 -1641 456 -1503 
L 466 -253 
L 466 994 
Q 456 1678 419 2241 
L 372 2875 
Q 372 3097 453 3250 
Q 547 3434 725 3434 
Q 847 3434 930 3348 
Q 1013 3263 1013 3138 
Q 1013 3109 1003 3034 
Q 988 2938 981 2856 
Q 1250 3041 1500 3133 
Q 1750 3225 1978 3225 
Q 2619 3225 2916 2656 
Q 3150 2206 3150 1466 
Q 3150 791 2788 353 
Q 2403 -109 1763 -109 
z
M 1978 2600 
Q 1691 2600 1459 2472 
Q 1294 2381 1041 2141 
Q 1081 1431 1081 650 
Q 1422 519 1763 519 
Q 2153 519 2359 809 
Q 2538 1063 2538 1466 
Q 2538 2034 2398 2317 
Q 2259 2600 1978 2600 
z
" id="ComicSansMS-70" transform="scale(0.015625)"/>
      <path d="M 1228 2456 
L 1181 903 
Q 1181 656 1156 178 
Q 1125 -134 850 -134 
Q 544 -134 544 184 
Q 544 563 578 1320 
Q 613 2078 613 2456 
Q 613 2950 628 3586 
Q 644 4222 644 4716 
Q 644 5028 950 5028 
Q 1259 5028 1259 4716 
Q 1259 4222 1243 3586 
Q 1228 2950 1228 2456 
z
" id="ComicSansMS-6c" transform="scale(0.015625)"/>
      <path d="M 3159 2788 
L 2078 450 
Q 1678 -403 1466 -978 
L 1259 -1584 
Q 1178 -1809 978 -1809 
Q 847 -1809 751 -1723 
Q 656 -1638 656 -1509 
Q 656 -1197 1331 300 
L 213 2453 
L 72 2681 
Q -13 2825 -13 2922 
Q -13 3050 85 3147 
Q 184 3244 306 3244 
Q 450 3244 528 3134 
Q 1059 2397 1669 1034 
L 2131 2113 
Q 2381 2672 2613 3075 
Q 2713 3250 2875 3250 
Q 3003 3250 3101 3159 
Q 3200 3069 3200 2944 
Q 3200 2875 3159 2788 
z
" id="ComicSansMS-79" transform="scale(0.015625)"/>
      <path id="ComicSansMS-20" transform="scale(0.015625)"/>
      <path d="M 2506 -191 
Q 1625 -191 1013 338 
Q 363 900 363 1788 
Q 363 2869 1003 3753 
Q 1719 4734 2788 4734 
Q 3816 4734 4316 4272 
Q 4838 3791 4838 2753 
Q 4838 1672 4250 803 
Q 3575 -191 2506 -191 
z
M 2788 4094 
Q 2022 4094 1491 3331 
Q 1000 2631 1000 1788 
Q 1000 1184 1447 806 
Q 1875 450 2506 450 
Q 3266 450 3759 1216 
Q 4200 1900 4200 2753 
Q 4200 3500 3866 3803 
Q 3547 4094 2788 4094 
z
" id="ComicSansMS-4f" transform="scale(0.015625)"/>
      <path d="M 1875 163 
Q 1866 -125 1591 -125 
Q 1363 -125 1259 144 
L 781 1413 
L 225 2847 
Q 194 2928 194 2991 
Q 194 3119 291 3209 
Q 388 3300 516 3300 
Q 703 3300 784 3109 
L 1578 925 
Q 1813 1425 2169 2375 
Q 2253 2625 2434 3081 
Q 2531 3281 2709 3281 
Q 2838 3281 2934 3190 
Q 3031 3100 3031 2975 
Q 3031 2856 2516 1638 
L 1875 163 
z
" id="ComicSansMS-76" transform="scale(0.015625)"/>
      <path d="M 2866 2309 
Q 2844 1919 2553 1919 
Q 2284 1919 2284 2228 
Q 2284 2288 2275 2447 
L 2266 2709 
Q 1772 2650 1475 2431 
Q 1197 2228 1013 1819 
L 1019 106 
Q 1019 -209 709 -209 
Q 434 -209 434 106 
L 434 2300 
Q 434 2403 442 2609 
Q 450 2816 450 2919 
Q 450 3234 725 3234 
Q 1031 3234 1034 2716 
Q 1634 3294 2366 3294 
Q 2619 3294 2744 3103 
Q 2869 2913 2869 2528 
Q 2869 2366 2866 2309 
z
" id="ComicSansMS-72" transform="scale(0.015625)"/>
      <path d="M 4256 3947 
Q 4025 3947 3544 3984 
Q 3075 4019 2831 4016 
L 2609 4016 
Q 2619 3584 2694 2616 
Q 2763 1713 2763 1213 
Q 2763 1103 2784 881 
Q 2806 659 2806 547 
Q 2806 334 2738 181 
Q 2650 -25 2466 -25 
Q 2341 -25 2241 62 
Q 2141 150 2141 288 
Q 2141 334 2156 428 
Q 2172 522 2172 569 
Q 2172 722 2151 1028 
Q 2131 1334 2131 1491 
Q 2131 1938 2059 2747 
Q 1984 3622 1975 4003 
L 1691 4000 
Q 1006 4000 616 4100 
Q 363 4166 363 4409 
Q 363 4538 444 4634 
Q 538 4744 684 4734 
Q 794 4728 1184 4678 
Q 1497 4641 1691 4641 
Q 1878 4641 2259 4648 
Q 2641 4656 2828 4656 
Q 3069 4656 3542 4622 
Q 4016 4588 4256 4588 
Q 4391 4588 4481 4495 
Q 4572 4403 4572 4266 
Q 4572 4131 4481 4039 
Q 4391 3947 4256 3947 
z
" id="ComicSansMS-54" transform="scale(0.015625)"/>
      <path d="M 1031 3956 
Q 881 3956 772 4062 
Q 663 4169 663 4319 
Q 663 4469 772 4575 
Q 881 4681 1031 4681 
Q 1181 4681 1289 4575 
Q 1397 4469 1397 4319 
Q 1397 4169 1289 4062 
Q 1181 3956 1031 3956 
z
M 1172 1419 
Q 1172 1231 1183 857 
Q 1194 484 1194 297 
Q 1194 159 1109 71 
Q 1025 -16 888 -16 
Q 753 -16 667 71 
Q 581 159 581 297 
Q 581 484 570 857 
Q 559 1231 559 1419 
Q 559 1713 590 2152 
Q 622 2591 622 2884 
Q 622 3025 708 3112 
Q 794 3200 928 3200 
Q 1063 3200 1148 3112 
Q 1234 3025 1234 2884 
Q 1234 2591 1203 2152 
Q 1172 1713 1172 1419 
z
" id="ComicSansMS-69" transform="scale(0.015625)"/>
      <path d="M 4403 -259 
Q 4147 -259 4103 13 
Q 4047 356 3991 981 
L 3884 1950 
Q 3853 2166 3778 2372 
Q 3672 2653 3547 2653 
Q 3431 2653 3116 2456 
Q 2816 2275 2722 2166 
Q 2719 1872 2738 1578 
L 2831 744 
Q 2891 250 2891 -72 
Q 2891 -209 2805 -298 
Q 2719 -388 2584 -388 
Q 2450 -388 2364 -298 
Q 2278 -209 2278 -72 
Q 2278 306 2201 1045 
Q 2125 1784 2125 2163 
Q 2125 2494 2031 2678 
Q 1813 2578 1588 2353 
L 1219 1941 
Q 1169 1866 1059 1744 
Q 1059 1556 1025 1190 
Q 991 825 991 650 
Q 991 556 1020 387 
Q 1050 219 1050 144 
Q 1050 16 954 -71 
Q 859 -159 731 -159 
Q 378 -159 378 644 
Q 378 831 412 1203 
Q 447 1575 447 1763 
Q 447 1928 417 2259 
Q 388 2591 388 2759 
Q 388 3469 706 3469 
Q 828 3469 929 3362 
Q 1031 3256 1031 3131 
Q 1031 3072 1015 2947 
Q 1000 2822 1000 2756 
L 1006 2428 
Q 1169 2763 1484 3033 
Q 1800 3303 2022 3303 
Q 2513 3303 2697 2816 
Q 2869 3044 3106 3158 
Q 3344 3272 3650 3272 
Q 4172 3272 4363 2709 
Q 4400 2597 4491 1831 
Q 4578 1294 4716 41 
Q 4725 -84 4631 -171 
Q 4538 -259 4403 -259 
z
" id="ComicSansMS-6d" transform="scale(0.015625)"/>
     </defs>
     <use xlink:href="#ComicSansMS-53"/>
     <use x="69.335938" xlink:href="#ComicSansMS-75"/>
     <use x="121.337891" xlink:href="#ComicSansMS-70"/>
     <use x="174.804688" xlink:href="#ComicSansMS-70"/>
     <use x="228.271484" xlink:href="#ComicSansMS-6c"/>
     <use x="255.664062" xlink:href="#ComicSansMS-79"/>
     <use x="307.714844" xlink:href="#ComicSansMS-20"/>
     <use x="337.597656" xlink:href="#ComicSansMS-4f"/>
     <use x="417.431641" xlink:href="#ComicSansMS-76"/>
     <use x="466.064453" xlink:href="#ComicSansMS-65"/>
     <use x="520.849609" xlink:href="#ComicSansMS-72"/>
     <use x="568.896484" xlink:href="#ComicSansMS-20"/>
     <use x="598.779297" xlink:href="#ComicSansMS-54"/>
     <use x="666.748047" xlink:href="#ComicSansMS-69"/>
     <use x="694.775391" xlink:href="#ComicSansMS-6d"/>
     <use x="772.460938" xlink:href="#ComicSansMS-65"/>
    </g>
   </g>
  </g>
 </g>
 <defs>
  <clipPath id="p3eb2ae8d7b">
   <rect height="332.64" width="446.4" x="72" y="51.84"/>
  </clipPath>
 </defs>
</svg>
